<ttFont>
    <TTGlyph name=".notdef" xMin="33" yMin="0" xMax="298" yMax="666">
      <contour>
        <pt x="33" y="0" on="1"/>
        <pt x="33" y="666" on="1"/>
        <pt x="298" y="666" on="1"/>
        <pt x="298" y="0" on="1"/>
      </contour>
      <contour>
        <pt x="66" y="33" on="1"/>
        <pt x="265" y="33" on="1"/>
        <pt x="265" y="633" on="1"/>
        <pt x="66" y="633" on="1"/>
      </contour>
    </TTGlyph>
    <TTGlyph name="A" xMin="59" yMin="0" xMax="591" yMax="699">
      <contour>
        <pt x="63" y="1" on="1"/>
        <pt x="52" y="8" on="0"/>
        <pt x="59" y="18" on="1"/>
        <pt x="431" y="693" on="1"/>
        <pt x="436" y="701" on="0"/>
        <pt x="444" y="699" on="1"/>
        <pt x="454" y="701" on="0"/>
        <pt x="457" y="689" on="1"/>
        <pt x="591" y="15" on="1"/>
        <pt x="593" y="2" on="0"/>
        <pt x="581" y="0" on="1"/>
        <pt x="579" y="0" on="1"/>
        <pt x="568" y="0" on="0"/>
        <pt x="566" y="10" on="1"/>
        <pt x="531" y="188" on="1"/>
        <pt x="181" y="188" on="1"/>
        <pt x="81" y="6" on="1"/>
        <pt x="76" y="0" on="0"/>
        <pt x="65" y="0" on="0"/>
      </contour>
      <contour>
        <pt x="438" y="653" on="1"/>
        <pt x="195" y="213" on="1"/>
        <pt x="526" y="213" on="1"/>
      </contour>
    </TTGlyph>
    <TTGlyph name="AE" xMin="38" yMin="2" xMax="1101" yMax="704">
      <contour>
        <pt x="38" y="23" on="1"/>
        <pt x="45" y="37" on="0"/>
        <pt x="554" y="688" on="1"/>
        <pt x="567" y="704" on="0"/>
        <pt x="583" y="704" on="1"/>
        <pt x="1080" y="704" on="1"/>
        <pt x="1092" y="704" on="0"/>
        <pt x="1103" y="699" on="0"/>
        <pt x="1101" y="690" on="1"/>
        <pt x="1099" y="676" on="0"/>
        <pt x="1075" y="676" on="1"/>
        <pt x="642" y="676" on="1"/>
        <pt x="588" y="373" on="1"/>
        <pt x="976" y="373" on="1"/>
        <pt x="987" y="373" on="0"/>
        <pt x="999" y="366" on="0"/>
        <pt x="994" y="341" on="0"/>
        <pt x="971" y="341" on="1"/>
        <pt x="583" y="341" on="1"/>
        <pt x="528" y="33" on="1"/>
        <pt x="966" y="33" on="1"/>
        <pt x="978" y="33" on="0"/>
        <pt x="989" y="28" on="0"/>
        <pt x="988" y="19" on="1"/>
        <pt x="986" y="4" on="0"/>
        <pt x="961" y="4" on="1"/>
        <pt x="519" y="4" on="1"/>
        <pt x="508" y="4" on="0"/>
        <pt x="496" y="20" on="0"/>
        <pt x="498" y="30" on="1"/>
        <pt x="530" y="210" on="1"/>
        <pt x="217" y="210" on="1"/>
        <pt x="62" y="12" on="1"/>
        <pt x="51" y="1" on="0"/>
        <pt x="32" y="4" on="0"/>
      </contour>
      <contour>
        <pt x="238" y="237" on="1"/>
        <pt x="534" y="237" on="1"/>
        <pt x="612" y="677" on="1"/>
        <pt x="580" y="677" on="1"/>
      </contour>
    </TTGlyph>
    <TTGlyph name="Aacute" xMin="60" yMin="0" xMax="592" yMax="923">
      <contour>
        <pt x="64" y="1" on="1"/>
        <pt x="53" y="8" on="0"/>
        <pt x="60" y="18" on="1"/>
        <pt x="432" y="693" on="1"/>
        <pt x="437" y="701" on="0"/>
        <pt x="445" y="699" on="1"/>
        <pt x="455" y="701" on="0"/>
        <pt x="458" y="689" on="1"/>
        <pt x="592" y="15" on="1"/>
        <pt x="594" y="2" on="0"/>
        <pt x="582" y="0" on="1"/>
        <pt x="580" y="0" on="1"/>
        <pt x="569" y="0" on="0"/>
        <pt x="567" y="10" on="1"/>
        <pt x="532" y="188" on="1"/>
        <pt x="182" y="188" on="1"/>
        <pt x="82" y="6" on="1"/>
        <pt x="78" y="0" on="0"/>
        <pt x="66" y="0" on="0"/>
      </contour>
      <contour>
        <pt x="439" y="653" on="1"/>
        <pt x="196" y="213" on="1"/>
        <pt x="527" y="213" on="1"/>
      </contour>
      <contour>
        <pt x="413" y="813" on="1"/>
        <pt x="405" y="804" on="0"/>
        <pt x="382" y="794" on="0"/>
        <pt x="382" y="806" on="0"/>
        <pt x="386" y="812" on="1"/>
        <pt x="448" y="905" on="1"/>
        <pt x="460" y="923" on="0"/>
        <pt x="485" y="923" on="0"/>
        <pt x="494" y="917" on="0"/>
        <pt x="494" y="908" on="1"/>
        <pt x="497" y="903" on="0"/>
        <pt x="484" y="890" on="1"/>
      </contour>
    </TTGlyph>
    <TTGlyph name="Acircumflex" xMin="60" yMin="0" xMax="592" yMax="920">
      <contour>
        <pt x="64" y="1" on="1"/>
        <pt x="53" y="8" on="0"/>
        <pt x="60" y="18" on="1"/>
        <pt x="432" y="693" on="1"/>
        <pt x="437" y="701" on="0"/>
        <pt x="445" y="699" on="1"/>
        <pt x="455" y="701" on="0"/>
        <pt x="458" y="689" on="1"/>
        <pt x="592" y="15" on="1"/>
        <pt x="594" y="2" on="0"/>
        <pt x="582" y="0" on="1"/>
        <pt x="580" y="0" on="1"/>
        <pt x="569" y="0" on="0"/>
        <pt x="567" y="10" on="1"/>
        <pt x="532" y="188" on="1"/>
        <pt x="182" y="188" on="1"/>
        <pt x="82" y="6" on="1"/>
        <pt x="78" y="0" on="0"/>
        <pt x="66" y="0" on="0"/>
      </contour>
      <contour>
        <pt x="439" y="653" on="1"/>
        <pt x="196" y="213" on="1"/>
        <pt x="527" y="213" on="1"/>
      </contour>
      <contour>
        <pt x="459" y="894" on="1"/>
        <pt x="374" y="818" on="1"/>
        <pt x="352" y="800" on="0"/>
        <pt x="345" y="800" on="1"/>
        <pt x="331" y="802" on="0"/>
        <pt x="331" y="802" on="1"/>
        <pt x="332" y="807" on="0"/>
        <pt x="339" y="814" on="1"/>
        <pt x="430" y="902" on="1"/>
        <pt x="450" y="920" on="0"/>
        <pt x="462" y="920" on="1"/>
        <pt x="470" y="920" on="1"/>
        <pt x="484" y="920" on="0"/>
        <pt x="494" y="902" on="1"/>
        <pt x="547" y="814" on="1"/>
        <pt x="551" y="808" on="0"/>
        <pt x="548" y="798" on="0"/>
        <pt x="539" y="800" on="0"/>
        <pt x="532" y="800" on="0"/>
        <pt x="524" y="805" on="0"/>
        <pt x="520" y="809" on="0"/>
        <pt x="514" y="818" on="0"/>
        <pt x="513" y="819" on="1"/>
      </contour>
    </TTGlyph>
    <TTGlyph name="Adieresis" xMin="60" yMin="0" xMax="592" yMax="871">
      <contour>
        <pt x="64" y="1" on="1"/>
        <pt x="53" y="8" on="0"/>
        <pt x="60" y="18" on="1"/>
        <pt x="432" y="693" on="1"/>
        <pt x="437" y="701" on="0"/>
        <pt x="445" y="699" on="1"/>
        <pt x="455" y="701" on="0"/>
        <pt x="458" y="689" on="1"/>
        <pt x="592" y="15" on="1"/>
        <pt x="594" y="2" on="0"/>
        <pt x="582" y="0" on="1"/>
        <pt x="580" y="0" on="1"/>
        <pt x="569" y="0" on="0"/>
        <pt x="567" y="10" on="1"/>
        <pt x="532" y="188" on="1"/>
        <pt x="182" y="188" on="1"/>
        <pt x="82" y="6" on="1"/>
        <pt x="78" y="0" on="0"/>
        <pt x="66" y="0" on="0"/>
      </contour>
      <contour>
        <pt x="439" y="653" on="1"/>
        <pt x="196" y="213" on="1"/>
        <pt x="527" y="213" on="1"/>
      </contour>
      <contour>
        <pt x="330" y="823" on="0"/>
        <pt x="334" y="851" on="0"/>
        <pt x="355" y="871" on="0"/>
        <pt x="383" y="871" on="0"/>
        <pt x="401" y="851" on="0"/>
        <pt x="397" y="822" on="0"/>
        <pt x="376" y="803" on="0"/>
        <pt x="348" y="803" on="0"/>
      </contour>
      <contour>
        <pt x="512" y="823" on="0"/>
        <pt x="516" y="851" on="0"/>
        <pt x="537" y="871" on="0"/>
        <pt x="565" y="871" on="0"/>
        <pt x="583" y="851" on="0"/>
        <pt x="580" y="823" on="0"/>
        <pt x="558" y="803" on="0"/>
        <pt x="530" y="803" on="0"/>
      </contour>
    </TTGlyph>
    <TTGlyph name="Agrave" xMin="60" yMin="0" xMax="592" yMax="923">
      <contour>
        <pt x="64" y="1" on="1"/>
        <pt x="53" y="8" on="0"/>
        <pt x="60" y="18" on="1"/>
        <pt x="432" y="693" on="1"/>
        <pt x="437" y="701" on="0"/>
        <pt x="445" y="699" on="1"/>
        <pt x="455" y="701" on="0"/>
        <pt x="458" y="689" on="1"/>
        <pt x="592" y="15" on="1"/>
        <pt x="594" y="2" on="0"/>
        <pt x="582" y="0" on="1"/>
        <pt x="580" y="0" on="1"/>
        <pt x="569" y="0" on="0"/>
        <pt x="567" y="10" on="1"/>
        <pt x="532" y="188" on="1"/>
        <pt x="182" y="188" on="1"/>
        <pt x="82" y="6" on="1"/>
        <pt x="78" y="0" on="0"/>
        <pt x="66" y="0" on="0"/>
      </contour>
      <contour>
        <pt x="439" y="653" on="1"/>
        <pt x="196" y="213" on="1"/>
        <pt x="527" y="213" on="1"/>
      </contour>
      <contour>
        <pt x="494" y="812" on="1"/>
        <pt x="498" y="806" on="0"/>
        <pt x="498" y="794" on="0"/>
        <pt x="475" y="804" on="0"/>
        <pt x="467" y="813" on="1"/>
        <pt x="396" y="890" on="1"/>
        <pt x="383" y="903" on="0"/>
        <pt x="386" y="908" on="1"/>
        <pt x="386" y="923" on="0"/>
        <pt x="420" y="923" on="0"/>
        <pt x="432" y="905" on="1"/>
      </contour>
    </TTGlyph>
    <TTGlyph name="Aring" xMin="83" yMin="0" xMax="613" yMax="818">
      <contour>
        <pt x="103" y="9" on="1"/>
        <pt x="101" y="0" on="0"/>
        <pt x="87" y="1" on="0"/>
        <pt x="86" y="1" on="1"/>
        <pt x="77" y="7" on="0"/>
        <pt x="83" y="18" on="1"/>
        <pt x="438" y="662" on="1"/>
        <pt x="413" y="669" on="0"/>
        <pt x="388" y="711" on="0"/>
        <pt x="392" y="739" on="1"/>
        <pt x="392" y="740" on="1"/>
        <pt x="399" y="775" on="0"/>
        <pt x="454" y="818" on="0"/>
        <pt x="520" y="818" on="0"/>
        <pt x="560" y="773" on="0"/>
        <pt x="554" y="740" on="1"/>
        <pt x="554" y="739" on="1"/>
        <pt x="549" y="712" on="0"/>
        <pt x="512" y="670" on="0"/>
        <pt x="485" y="663" on="1"/>
        <pt x="613" y="18" on="1"/>
        <pt x="616" y="7" on="0"/>
        <pt x="603" y="1" on="1"/>
        <pt x="602" y="1" on="0"/>
        <pt x="592" y="0" on="0"/>
        <pt x="587" y="9" on="1"/>
        <pt x="552" y="188" on="1"/>
        <pt x="202" y="188" on="1"/>
      </contour>
      <contour>
        <pt x="416" y="738" on="1"/>
        <pt x="413" y="719" on="0"/>
        <pt x="434" y="681" on="0"/>
        <pt x="492" y="681" on="0"/>
        <pt x="527" y="720" on="0"/>
        <pt x="530" y="738" on="1"/>
        <pt x="530" y="739" on="1"/>
        <pt x="534" y="761" on="0"/>
        <pt x="507" y="796" on="0"/>
        <pt x="459" y="796" on="0"/>
        <pt x="420" y="761" on="0"/>
        <pt x="416" y="739" on="1"/>
      </contour>
      <contour>
        <pt x="217" y="214" on="1"/>
        <pt x="547" y="214" on="1"/>
        <pt x="459" y="652" on="1"/>
      </contour>
    </TTGlyph>
    <TTGlyph name="Atilde" xMin="60" yMin="0" xMax="592" yMax="899">
      <contour>
        <pt x="64" y="1" on="1"/>
        <pt x="53" y="8" on="0"/>
        <pt x="60" y="18" on="1"/>
        <pt x="432" y="693" on="1"/>
        <pt x="437" y="701" on="0"/>
        <pt x="445" y="699" on="1"/>
        <pt x="455" y="701" on="0"/>
        <pt x="458" y="689" on="1"/>
        <pt x="592" y="15" on="1"/>
        <pt x="594" y="2" on="0"/>
        <pt x="582" y="0" on="1"/>
        <pt x="580" y="0" on="1"/>
        <pt x="569" y="0" on="0"/>
        <pt x="567" y="10" on="1"/>
        <pt x="532" y="188" on="1"/>
        <pt x="182" y="188" on="1"/>
        <pt x="82" y="6" on="1"/>
        <pt x="78" y="0" on="0"/>
        <pt x="66" y="0" on="0"/>
      </contour>
      <contour>
        <pt x="439" y="653" on="1"/>
        <pt x="196" y="213" on="1"/>
        <pt x="527" y="213" on="1"/>
      </contour>
      <contour>
        <pt x="328" y="802" on="1"/>
        <pt x="322" y="790" on="0"/>
        <pt x="312" y="790" on="1"/>
        <pt x="296" y="790" on="0"/>
        <pt x="296" y="803" on="1"/>
        <pt x="296" y="805" on="0"/>
        <pt x="307" y="840" on="0"/>
        <pt x="355" y="877" on="0"/>
        <pt x="396" y="877" on="0"/>
        <pt x="488" y="839" on="0"/>
        <pt x="504" y="839" on="1"/>
        <pt x="535" y="839" on="0"/>
        <pt x="554" y="882" on="1"/>
        <pt x="554" y="890" on="0"/>
        <pt x="563" y="899" on="0"/>
        <pt x="567" y="899" on="1"/>
        <pt x="585" y="899" on="0"/>
        <pt x="585" y="882" on="1"/>
        <pt x="585" y="876" on="0"/>
        <pt x="583" y="870" on="1"/>
        <pt x="561" y="802" on="0"/>
        <pt x="504" y="802" on="1"/>
        <pt x="486" y="802" on="0"/>
        <pt x="394" y="841" on="0"/>
        <pt x="376" y="841" on="1"/>
        <pt x="345" y="841" on="0"/>
      </contour>
    </TTGlyph>
    <TTGlyph name="B" xMin="105" yMin="-2" xMax="553" yMax="698">
      <contour>
        <pt x="115" y="-2" on="1"/>
        <pt x="103" y="0" on="0"/>
        <pt x="105" y="12" on="1"/>
        <pt x="224" y="687" on="1"/>
        <pt x="226" y="699" on="0"/>
        <pt x="238" y="697" on="1"/>
        <pt x="239" y="698" on="1"/>
        <pt x="397" y="698" on="1"/>
        <pt x="461" y="698" on="0"/>
        <pt x="540" y="617" on="0"/>
        <pt x="540" y="557" on="1"/>
        <pt x="540" y="548" on="0"/>
        <pt x="538" y="528" on="1"/>
        <pt x="529" y="481" on="0"/>
        <pt x="469" y="404" on="0"/>
        <pt x="426" y="383" on="1"/>
        <pt x="473" y="373" on="0"/>
        <pt x="507" y="340" on="1"/>
        <pt x="553" y="294" on="0"/>
        <pt x="553" y="224" on="1"/>
        <pt x="553" y="124" on="0"/>
        <pt x="470" y="54" on="1"/>
        <pt x="404" y="-2" on="0"/>
        <pt x="324" y="-2" on="1"/>
      </contour>
      <contour>
        <pt x="528" y="224" on="1"/>
        <pt x="527" y="284" on="0"/>
        <pt x="450" y="361" on="0"/>
        <pt x="388" y="361" on="1"/>
        <pt x="192" y="361" on="1"/>
        <pt x="132" y="23" on="1"/>
        <pt x="324" y="23" on="1"/>
        <pt x="394" y="23" on="0"/>
        <pt x="454" y="74" on="1"/>
        <pt x="528" y="137" on="0"/>
      </contour>
      <contour>
        <pt x="247" y="672" on="1"/>
        <pt x="197" y="388" on="1"/>
        <pt x="343" y="388" on="1"/>
        <pt x="402" y="387" on="0"/>
        <pt x="502" y="473" on="0"/>
        <pt x="513" y="532" on="1"/>
        <pt x="515" y="550" on="0"/>
        <pt x="515" y="557" on="1"/>
        <pt x="514" y="607" on="0"/>
        <pt x="449" y="672" on="0"/>
        <pt x="397" y="672" on="1"/>
      </contour>
    </TTGlyph>
    <TTGlyph name="C" xMin="73" yMin="-2" xMax="710" yMax="698">
      <contour>
        <pt x="613" y="73" on="1"/>
        <pt x="503" y="-2" on="0"/>
        <pt x="246" y="-2" on="0"/>
        <pt x="158" y="81" on="1"/>
        <pt x="73" y="164" on="0"/>
        <pt x="73" y="290" on="1"/>
        <pt x="73" y="324" on="0"/>
        <pt x="78" y="350" on="1"/>
        <pt x="103" y="494" on="0"/>
        <pt x="348" y="697" on="0"/>
        <pt x="497" y="698" on="1"/>
        <pt x="623" y="698" on="0"/>
        <pt x="708" y="621" on="1"/>
        <pt x="718" y="612" on="0"/>
        <pt x="701" y="593" on="0"/>
        <pt x="691" y="602" on="1"/>
        <pt x="615" y="672" on="0"/>
        <pt x="497" y="672" on="1"/>
        <pt x="358" y="673" on="0"/>
        <pt x="126" y="480" on="0"/>
        <pt x="103" y="345" on="1"/>
        <pt x="98" y="315" on="0"/>
        <pt x="98" y="290" on="1"/>
        <pt x="98" y="175" on="0"/>
        <pt x="255" y="23" on="0"/>
        <pt x="496" y="23" on="0"/>
        <pt x="599" y="94" on="1"/>
        <pt x="609" y="101" on="0"/>
        <pt x="617" y="91" on="1"/>
        <pt x="624" y="80" on="0"/>
      </contour>
    </TTGlyph>
    <TTGlyph name="Ccedilla" xMin="73" yMin="-142" xMax="710" yMax="698">
      <contour>
        <pt x="613" y="73" on="1"/>
        <pt x="503" y="-2" on="0"/>
        <pt x="246" y="-2" on="0"/>
        <pt x="158" y="81" on="1"/>
        <pt x="73" y="164" on="0"/>
        <pt x="73" y="290" on="1"/>
        <pt x="73" y="324" on="0"/>
        <pt x="78" y="350" on="1"/>
        <pt x="103" y="494" on="0"/>
        <pt x="348" y="697" on="0"/>
        <pt x="497" y="698" on="1"/>
        <pt x="623" y="698" on="0"/>
        <pt x="708" y="621" on="1"/>
        <pt x="718" y="612" on="0"/>
        <pt x="701" y="593" on="0"/>
        <pt x="691" y="602" on="1"/>
        <pt x="615" y="672" on="0"/>
        <pt x="497" y="672" on="1"/>
        <pt x="358" y="673" on="0"/>
        <pt x="126" y="480" on="0"/>
        <pt x="103" y="345" on="1"/>
        <pt x="98" y="315" on="0"/>
        <pt x="98" y="290" on="1"/>
        <pt x="98" y="175" on="0"/>
        <pt x="255" y="23" on="0"/>
        <pt x="496" y="23" on="0"/>
        <pt x="599" y="94" on="1"/>
        <pt x="609" y="101" on="0"/>
        <pt x="617" y="91" on="1"/>
        <pt x="624" y="80" on="0"/>
      </contour>
      <contour>
        <pt x="517" y="10" on="1"/>
        <pt x="452" y="-122" on="1"/>
        <pt x="442" y="-142" on="0"/>
        <pt x="414" y="-142" on="0"/>
        <pt x="392" y="-126" on="0"/>
        <pt x="392" y="-112" on="0"/>
        <pt x="397" y="-103" on="1"/>
        <pt x="474" y="10" on="1"/>
      </contour>
    </TTGlyph>
    <TTGlyph name="D" xMin="106" yMin="-2" xMax="668" yMax="698">
      <contour>
        <pt x="116" y="-2" on="1"/>
        <pt x="111" y="-1" on="0"/>
        <pt x="104" y="8" on="0"/>
        <pt x="106" y="12" on="1"/>
        <pt x="224" y="687" on="1"/>
        <pt x="227" y="697" on="0"/>
        <pt x="237" y="697" on="1"/>
        <pt x="237" y="698" on="0"/>
        <pt x="238" y="698" on="1"/>
        <pt x="372" y="698" on="1"/>
        <pt x="499" y="698" on="0"/>
        <pt x="668" y="531" on="0"/>
        <pt x="668" y="407" on="1"/>
        <pt x="668" y="376" on="0"/>
        <pt x="662" y="345" on="1"/>
        <pt x="636" y="201" on="0"/>
        <pt x="398" y="-2" on="0"/>
        <pt x="253" y="-2" on="1"/>
      </contour>
      <contour>
        <pt x="248" y="672" on="1"/>
        <pt x="133" y="23" on="1"/>
        <pt x="253" y="23" on="1"/>
        <pt x="387" y="23" on="0"/>
        <pt x="614" y="215" on="0"/>
        <pt x="637" y="350" on="1"/>
        <pt x="642" y="374" on="0"/>
        <pt x="642" y="407" on="1"/>
        <pt x="642" y="521" on="0"/>
        <pt x="491" y="672" on="0"/>
        <pt x="372" y="672" on="1"/>
      </contour>
    </TTGlyph>
    <TTGlyph name="E" xMin="105" yMin="1" xMax="623" yMax="701">
      <contour>
        <pt x="115" y="1" on="1"/>
        <pt x="103" y="3" on="0"/>
        <pt x="105" y="15" on="1"/>
        <pt x="224" y="690" on="1"/>
        <pt x="226" y="702" on="0"/>
        <pt x="238" y="700" on="1"/>
        <pt x="238" y="701" on="0"/>
        <pt x="239" y="701" on="1"/>
        <pt x="610" y="701" on="1"/>
        <pt x="623" y="701" on="0"/>
        <pt x="623" y="675" on="0"/>
        <pt x="610" y="675" on="1"/>
        <pt x="247" y="675" on="1"/>
        <pt x="192" y="363" on="1"/>
        <pt x="507" y="363" on="1"/>
        <pt x="520" y="363" on="0"/>
        <pt x="520" y="338" on="0"/>
        <pt x="507" y="338" on="1"/>
        <pt x="188" y="338" on="1"/>
        <pt x="133" y="26" on="1"/>
        <pt x="491" y="26" on="1"/>
        <pt x="504" y="26" on="0"/>
        <pt x="504" y="1" on="0"/>
        <pt x="491" y="1" on="1"/>
      </contour>
    </TTGlyph>
    <TTGlyph name="Eacute" xMin="105" yMin="1" xMax="623" yMax="923">
      <contour>
        <pt x="115" y="1" on="1"/>
        <pt x="103" y="3" on="0"/>
        <pt x="105" y="15" on="1"/>
        <pt x="224" y="690" on="1"/>
        <pt x="226" y="702" on="0"/>
        <pt x="238" y="700" on="1"/>
        <pt x="238" y="701" on="0"/>
        <pt x="239" y="701" on="1"/>
        <pt x="610" y="701" on="1"/>
        <pt x="623" y="701" on="0"/>
        <pt x="623" y="675" on="0"/>
        <pt x="610" y="675" on="1"/>
        <pt x="247" y="675" on="1"/>
        <pt x="192" y="363" on="1"/>
        <pt x="507" y="363" on="1"/>
        <pt x="520" y="363" on="0"/>
        <pt x="520" y="338" on="0"/>
        <pt x="507" y="338" on="1"/>
        <pt x="188" y="338" on="1"/>
        <pt x="133" y="26" on="1"/>
        <pt x="491" y="26" on="1"/>
        <pt x="504" y="26" on="0"/>
        <pt x="504" y="1" on="0"/>
        <pt x="491" y="1" on="1"/>
      </contour>
      <contour>
        <pt x="476" y="813" on="1"/>
        <pt x="468" y="804" on="0"/>
        <pt x="445" y="794" on="0"/>
        <pt x="445" y="806" on="0"/>
        <pt x="449" y="812" on="1"/>
        <pt x="511" y="905" on="1"/>
        <pt x="523" y="923" on="0"/>
        <pt x="548" y="923" on="0"/>
        <pt x="557" y="917" on="0"/>
        <pt x="557" y="908" on="1"/>
        <pt x="560" y="903" on="0"/>
        <pt x="547" y="890" on="1"/>
      </contour>
    </TTGlyph>
    <TTGlyph name="Ecircumflex" xMin="105" yMin="1" xMax="623" yMax="920">
      <contour>
        <pt x="115" y="1" on="1"/>
        <pt x="103" y="3" on="0"/>
        <pt x="105" y="15" on="1"/>
        <pt x="224" y="690" on="1"/>
        <pt x="226" y="702" on="0"/>
        <pt x="238" y="700" on="1"/>
        <pt x="238" y="701" on="0"/>
        <pt x="239" y="701" on="1"/>
        <pt x="610" y="701" on="1"/>
        <pt x="623" y="701" on="0"/>
        <pt x="623" y="675" on="0"/>
        <pt x="610" y="675" on="1"/>
        <pt x="247" y="675" on="1"/>
        <pt x="192" y="363" on="1"/>
        <pt x="507" y="363" on="1"/>
        <pt x="520" y="363" on="0"/>
        <pt x="520" y="338" on="0"/>
        <pt x="507" y="338" on="1"/>
        <pt x="188" y="338" on="1"/>
        <pt x="133" y="26" on="1"/>
        <pt x="491" y="26" on="1"/>
        <pt x="504" y="26" on="0"/>
        <pt x="504" y="1" on="0"/>
        <pt x="491" y="1" on="1"/>
      </contour>
      <contour>
        <pt x="458" y="894" on="1"/>
        <pt x="373" y="818" on="1"/>
        <pt x="351" y="800" on="0"/>
        <pt x="344" y="800" on="1"/>
        <pt x="330" y="802" on="0"/>
        <pt x="330" y="802" on="1"/>
        <pt x="331" y="807" on="0"/>
        <pt x="338" y="814" on="1"/>
        <pt x="429" y="902" on="1"/>
        <pt x="449" y="920" on="0"/>
        <pt x="461" y="920" on="1"/>
        <pt x="469" y="920" on="1"/>
        <pt x="483" y="920" on="0"/>
        <pt x="493" y="902" on="1"/>
        <pt x="546" y="814" on="1"/>
        <pt x="550" y="808" on="0"/>
        <pt x="547" y="798" on="0"/>
        <pt x="538" y="800" on="0"/>
        <pt x="531" y="800" on="0"/>
        <pt x="523" y="805" on="0"/>
        <pt x="519" y="809" on="0"/>
        <pt x="513" y="818" on="0"/>
        <pt x="512" y="819" on="1"/>
      </contour>
    </TTGlyph>
    <TTGlyph name="Edieresis" xMin="105" yMin="1" xMax="623" yMax="871">
      <contour>
        <pt x="115" y="1" on="1"/>
        <pt x="103" y="3" on="0"/>
        <pt x="105" y="15" on="1"/>
        <pt x="224" y="690" on="1"/>
        <pt x="226" y="702" on="0"/>
        <pt x="238" y="700" on="1"/>
        <pt x="238" y="701" on="0"/>
        <pt x="239" y="701" on="1"/>
        <pt x="610" y="701" on="1"/>
        <pt x="623" y="701" on="0"/>
        <pt x="623" y="675" on="0"/>
        <pt x="610" y="675" on="1"/>
        <pt x="247" y="675" on="1"/>
        <pt x="192" y="363" on="1"/>
        <pt x="507" y="363" on="1"/>
        <pt x="520" y="363" on="0"/>
        <pt x="520" y="338" on="0"/>
        <pt x="507" y="338" on="1"/>
        <pt x="188" y="338" on="1"/>
        <pt x="133" y="26" on="1"/>
        <pt x="491" y="26" on="1"/>
        <pt x="504" y="26" on="0"/>
        <pt x="504" y="1" on="0"/>
        <pt x="491" y="1" on="1"/>
      </contour>
      <contour>
        <pt x="322" y="823" on="0"/>
        <pt x="326" y="851" on="0"/>
        <pt x="347" y="871" on="0"/>
        <pt x="375" y="871" on="0"/>
        <pt x="393" y="851" on="0"/>
        <pt x="389" y="822" on="0"/>
        <pt x="368" y="803" on="0"/>
        <pt x="340" y="803" on="0"/>
      </contour>
      <contour>
        <pt x="504" y="823" on="0"/>
        <pt x="508" y="851" on="0"/>
        <pt x="529" y="871" on="0"/>
        <pt x="557" y="871" on="0"/>
        <pt x="575" y="851" on="0"/>
        <pt x="572" y="823" on="0"/>
        <pt x="550" y="803" on="0"/>
        <pt x="522" y="803" on="0"/>
      </contour>
    </TTGlyph>
    <TTGlyph name="Egrave" xMin="105" yMin="1" xMax="623" yMax="923">
      <contour>
        <pt x="115" y="1" on="1"/>
        <pt x="103" y="3" on="0"/>
        <pt x="105" y="15" on="1"/>
        <pt x="224" y="690" on="1"/>
        <pt x="226" y="702" on="0"/>
        <pt x="238" y="700" on="1"/>
        <pt x="238" y="701" on="0"/>
        <pt x="239" y="701" on="1"/>
        <pt x="610" y="701" on="1"/>
        <pt x="623" y="701" on="0"/>
        <pt x="623" y="675" on="0"/>
        <pt x="610" y="675" on="1"/>
        <pt x="247" y="675" on="1"/>
        <pt x="192" y="363" on="1"/>
        <pt x="507" y="363" on="1"/>
        <pt x="520" y="363" on="0"/>
        <pt x="520" y="338" on="0"/>
        <pt x="507" y="338" on="1"/>
        <pt x="188" y="338" on="1"/>
        <pt x="133" y="26" on="1"/>
        <pt x="491" y="26" on="1"/>
        <pt x="504" y="26" on="0"/>
        <pt x="504" y="1" on="0"/>
        <pt x="491" y="1" on="1"/>
      </contour>
      <contour>
        <pt x="473" y="812" on="1"/>
        <pt x="477" y="806" on="0"/>
        <pt x="477" y="794" on="0"/>
        <pt x="454" y="804" on="0"/>
        <pt x="446" y="813" on="1"/>
        <pt x="375" y="890" on="1"/>
        <pt x="362" y="903" on="0"/>
        <pt x="365" y="908" on="1"/>
        <pt x="365" y="923" on="0"/>
        <pt x="399" y="923" on="0"/>
        <pt x="411" y="905" on="1"/>
      </contour>
    </TTGlyph>
    <TTGlyph name="F" xMin="105" yMin="-1" xMax="623" yMax="699">
      <contour>
        <pt x="116" y="-1" on="1"/>
        <pt x="103" y="1" on="0"/>
        <pt x="105" y="13" on="1"/>
        <pt x="224" y="688" on="1"/>
        <pt x="227" y="700" on="0"/>
        <pt x="238" y="698" on="1"/>
        <pt x="239" y="699" on="1"/>
        <pt x="610" y="699" on="1"/>
        <pt x="623" y="699" on="0"/>
        <pt x="623" y="673" on="0"/>
        <pt x="610" y="673" on="1"/>
        <pt x="248" y="673" on="1"/>
        <pt x="193" y="361" on="1"/>
        <pt x="508" y="361" on="1"/>
        <pt x="520" y="361" on="0"/>
        <pt x="520" y="336" on="0"/>
        <pt x="508" y="336" on="1"/>
        <pt x="188" y="336" on="1"/>
        <pt x="130" y="9" on="1"/>
        <pt x="128" y="-1" on="0"/>
        <pt x="118" y="-1" on="1"/>
      </contour>
    </TTGlyph>
    <TTGlyph name="G" xMin="73" yMin="0" xMax="710" yMax="700">
      <contour>
        <pt x="614" y="75" on="1"/>
        <pt x="504" y="0" on="0"/>
        <pt x="245" y="0" on="0"/>
        <pt x="73" y="167" on="0"/>
        <pt x="73" y="292" on="1"/>
        <pt x="73" y="320" on="0"/>
        <pt x="79" y="352" on="1"/>
        <pt x="96" y="447" on="0"/>
        <pt x="219" y="607" on="0"/>
        <pt x="399" y="700" on="0"/>
        <pt x="497" y="700" on="1"/>
        <pt x="622" y="700" on="0"/>
        <pt x="709" y="623" on="1"/>
        <pt x="718" y="614" on="0"/>
        <pt x="710" y="605" on="1"/>
        <pt x="700" y="596" on="0"/>
        <pt x="692" y="604" on="1"/>
        <pt x="614" y="674" on="0"/>
        <pt x="497" y="674" on="1"/>
        <pt x="358" y="675" on="0"/>
        <pt x="127" y="482" on="0"/>
        <pt x="104" y="347" on="1"/>
        <pt x="99" y="324" on="0"/>
        <pt x="99" y="292" on="1"/>
        <pt x="99" y="177" on="0"/>
        <pt x="255" y="25" on="0"/>
        <pt x="494" y="25" on="0"/>
        <pt x="596" y="94" on="1"/>
        <pt x="636" y="322" on="1"/>
        <pt x="429" y="322" on="1"/>
        <pt x="417" y="322" on="0"/>
        <pt x="417" y="347" on="0"/>
        <pt x="429" y="347" on="1"/>
        <pt x="653" y="347" on="1"/>
        <pt x="666" y="345" on="0"/>
        <pt x="664" y="332" on="1"/>
        <pt x="620" y="85" on="1"/>
        <pt x="620" y="84" on="0"/>
        <pt x="616" y="76" on="0"/>
      </contour>
    </TTGlyph>
    <TTGlyph name="H" xMin="105" yMin="-1" xMax="672" yMax="699">
      <contour>
        <pt x="115" y="-1" on="1"/>
        <pt x="103" y="2" on="0"/>
        <pt x="105" y="14" on="1"/>
        <pt x="224" y="689" on="1"/>
        <pt x="226" y="701" on="0"/>
        <pt x="251" y="697" on="0"/>
        <pt x="249" y="684" on="1"/>
        <pt x="192" y="362" on="1"/>
        <pt x="587" y="362" on="1"/>
        <pt x="589" y="361" on="1"/>
        <pt x="647" y="689" on="1"/>
        <pt x="649" y="701" on="0"/>
        <pt x="674" y="697" on="0"/>
        <pt x="672" y="684" on="1"/>
        <pt x="553" y="10" on="1"/>
        <pt x="551" y="-1" on="0"/>
        <pt x="540" y="-1" on="1"/>
        <pt x="538" y="-1" on="1"/>
        <pt x="526" y="2" on="0"/>
        <pt x="528" y="14" on="1"/>
        <pt x="585" y="336" on="1"/>
        <pt x="187" y="336" on="1"/>
        <pt x="130" y="10" on="1"/>
        <pt x="128" y="-1" on="0"/>
        <pt x="117" y="-1" on="1"/>
      </contour>
    </TTGlyph>
    <TTGlyph name="I" xMin="112" yMin="-1" xMax="256" yMax="699">
      <contour>
        <pt x="122" y="-1" on="1"/>
        <pt x="110" y="2" on="0"/>
        <pt x="112" y="14" on="1"/>
        <pt x="231" y="689" on="1"/>
        <pt x="233" y="701" on="0"/>
        <pt x="258" y="697" on="0"/>
        <pt x="256" y="684" on="1"/>
        <pt x="137" y="10" on="1"/>
        <pt x="135" y="-1" on="0"/>
        <pt x="124" y="-1" on="1"/>
      </contour>
    </TTGlyph>
    <TTGlyph name="Iacute" xMin="112" yMin="-1" xMax="301" yMax="923">
      <contour>
        <pt x="122" y="-1" on="1"/>
        <pt x="110" y="2" on="0"/>
        <pt x="112" y="14" on="1"/>
        <pt x="231" y="689" on="1"/>
        <pt x="233" y="701" on="0"/>
        <pt x="258" y="697" on="0"/>
        <pt x="256" y="684" on="1"/>
        <pt x="137" y="10" on="1"/>
        <pt x="135" y="-1" on="0"/>
        <pt x="124" y="-1" on="1"/>
      </contour>
      <contour>
        <pt x="220" y="813" on="1"/>
        <pt x="212" y="804" on="0"/>
        <pt x="189" y="794" on="0"/>
        <pt x="189" y="806" on="0"/>
        <pt x="193" y="812" on="1"/>
        <pt x="255" y="905" on="1"/>
        <pt x="267" y="923" on="0"/>
        <pt x="292" y="923" on="0"/>
        <pt x="301" y="917" on="0"/>
        <pt x="301" y="908" on="1"/>
        <pt x="304" y="903" on="0"/>
        <pt x="291" y="890" on="1"/>
      </contour>
    </TTGlyph>
    <TTGlyph name="Icircumflex" xMin="79" yMin="-1" xMax="321" yMax="920">
      <contour>
        <pt x="89" y="-1" on="1"/>
        <pt x="77" y="2" on="0"/>
        <pt x="79" y="14" on="1"/>
        <pt x="198" y="689" on="1"/>
        <pt x="200" y="701" on="0"/>
        <pt x="225" y="697" on="0"/>
        <pt x="223" y="684" on="1"/>
        <pt x="104" y="10" on="1"/>
        <pt x="102" y="-1" on="0"/>
        <pt x="91" y="-1" on="1"/>
      </contour>
      <contour>
        <pt x="230" y="894" on="1"/>
        <pt x="145" y="818" on="1"/>
        <pt x="123" y="800" on="0"/>
        <pt x="116" y="800" on="1"/>
        <pt x="102" y="802" on="0"/>
        <pt x="102" y="802" on="1"/>
        <pt x="103" y="807" on="0"/>
        <pt x="110" y="814" on="1"/>
        <pt x="201" y="902" on="1"/>
        <pt x="221" y="920" on="0"/>
        <pt x="233" y="920" on="1"/>
        <pt x="241" y="920" on="1"/>
        <pt x="255" y="920" on="0"/>
        <pt x="265" y="902" on="1"/>
        <pt x="318" y="814" on="1"/>
        <pt x="322" y="808" on="0"/>
        <pt x="319" y="798" on="0"/>
        <pt x="310" y="800" on="0"/>
        <pt x="303" y="800" on="0"/>
        <pt x="295" y="805" on="0"/>
        <pt x="291" y="809" on="0"/>
        <pt x="285" y="818" on="0"/>
        <pt x="284" y="819" on="1"/>
      </contour>
    </TTGlyph>
    <TTGlyph name="Idieresis" xMin="21" yMin="-1" xMax="275" yMax="871">
      <contour>
        <pt x="31" y="-1" on="1"/>
        <pt x="19" y="2" on="0"/>
        <pt x="21" y="14" on="1"/>
        <pt x="140" y="689" on="1"/>
        <pt x="142" y="701" on="0"/>
        <pt x="167" y="697" on="0"/>
        <pt x="165" y="684" on="1"/>
        <pt x="46" y="10" on="1"/>
        <pt x="44" y="-1" on="0"/>
        <pt x="33" y="-1" on="1"/>
      </contour>
      <contour>
        <pt x="23" y="823" on="0"/>
        <pt x="27" y="851" on="0"/>
        <pt x="48" y="871" on="0"/>
        <pt x="76" y="871" on="0"/>
        <pt x="94" y="851" on="0"/>
        <pt x="90" y="822" on="0"/>
        <pt x="69" y="803" on="0"/>
        <pt x="41" y="803" on="0"/>
      </contour>
      <contour>
        <pt x="205" y="823" on="0"/>
        <pt x="209" y="851" on="0"/>
        <pt x="230" y="871" on="0"/>
        <pt x="258" y="871" on="0"/>
        <pt x="276" y="851" on="0"/>
        <pt x="273" y="823" on="0"/>
        <pt x="251" y="803" on="0"/>
        <pt x="223" y="803" on="0"/>
      </contour>
    </TTGlyph>
    <TTGlyph name="Igrave" xMin="16" yMin="-1" xMax="205" yMax="923">
      <contour>
        <pt x="26" y="-1" on="1"/>
        <pt x="14" y="2" on="0"/>
        <pt x="16" y="14" on="1"/>
        <pt x="135" y="689" on="1"/>
        <pt x="137" y="701" on="0"/>
        <pt x="162" y="697" on="0"/>
        <pt x="160" y="684" on="1"/>
        <pt x="41" y="10" on="1"/>
        <pt x="39" y="-1" on="0"/>
        <pt x="28" y="-1" on="1"/>
      </contour>
      <contour>
        <pt x="201" y="812" on="1"/>
        <pt x="205" y="806" on="0"/>
        <pt x="205" y="794" on="0"/>
        <pt x="182" y="804" on="0"/>
        <pt x="174" y="813" on="1"/>
        <pt x="103" y="890" on="1"/>
        <pt x="90" y="903" on="0"/>
        <pt x="93" y="908" on="1"/>
        <pt x="93" y="923" on="0"/>
        <pt x="127" y="923" on="0"/>
        <pt x="139" y="905" on="1"/>
      </contour>
    </TTGlyph>
    <TTGlyph name="J" xMin="43" yMin="0" xMax="591" yMax="700">
      <contour>
        <pt x="68" y="168" on="1"/>
        <pt x="77" y="105" on="0"/>
        <pt x="170" y="26" on="0"/>
        <pt x="239" y="26" on="1"/>
        <pt x="325" y="25" on="0"/>
        <pt x="471" y="149" on="0"/>
        <pt x="486" y="236" on="1"/>
        <pt x="566" y="690" on="1"/>
        <pt x="568" y="702" on="0"/>
        <pt x="593" y="698" on="0"/>
        <pt x="591" y="685" on="1"/>
        <pt x="511" y="231" on="1"/>
        <pt x="494" y="135" on="0"/>
        <pt x="336" y="1" on="0"/>
        <pt x="239" y="0" on="1"/>
        <pt x="238" y="0" on="1"/>
        <pt x="161" y="0" on="0"/>
        <pt x="53" y="93" on="0"/>
        <pt x="43" y="164" on="1"/>
        <pt x="41" y="177" on="0"/>
        <pt x="66" y="181" on="0"/>
      </contour>
    </TTGlyph>
    <TTGlyph name="K" xMin="105" yMin="1" xMax="731" yMax="702">
      <contour>
        <pt x="224" y="691" on="1"/>
        <pt x="227" y="703" on="0"/>
        <pt x="236" y="702" on="1"/>
        <pt x="252" y="699" on="0"/>
        <pt x="249" y="686" on="1"/>
        <pt x="170" y="237" on="1"/>
        <pt x="712" y="698" on="1"/>
        <pt x="722" y="707" on="0"/>
        <pt x="739" y="687" on="0"/>
        <pt x="729" y="679" on="1"/>
        <pt x="390" y="391" on="1"/>
        <pt x="630" y="21" on="1"/>
        <pt x="636" y="10" on="0"/>
        <pt x="622" y="1" on="0"/>
        <pt x="612" y="1" on="0"/>
        <pt x="608" y="7" on="1"/>
        <pt x="370" y="374" on="1"/>
        <pt x="167" y="202" on="1"/>
        <pt x="164" y="199" on="1"/>
        <pt x="130" y="12" on="1"/>
        <pt x="128" y="1" on="0"/>
        <pt x="118" y="1" on="1"/>
        <pt x="116" y="1" on="1"/>
        <pt x="103" y="5" on="0"/>
        <pt x="105" y="16" on="1"/>
      </contour>
    </TTGlyph>
    <TTGlyph name="L" xMin="105" yMin="2" xMax="504" yMax="702">
      <contour>
        <pt x="224" y="692" on="1"/>
        <pt x="226" y="704" on="0"/>
        <pt x="251" y="700" on="0"/>
        <pt x="249" y="687" on="1"/>
        <pt x="133" y="27" on="1"/>
        <pt x="491" y="27" on="1"/>
        <pt x="504" y="27" on="0"/>
        <pt x="504" y="2" on="0"/>
        <pt x="491" y="2" on="1"/>
        <pt x="116" y="2" on="1"/>
        <pt x="103" y="6" on="0"/>
        <pt x="105" y="17" on="1"/>
      </contour>
    </TTGlyph>
    <TTGlyph name="M" xMin="105" yMin="-2" xMax="811" yMax="698">
      <contour>
        <pt x="451" y="288" on="1"/>
        <pt x="448" y="288" on="1"/>
        <pt x="440" y="288" on="0"/>
        <pt x="437" y="294" on="1"/>
        <pt x="244" y="650" on="1"/>
        <pt x="130" y="9" on="1"/>
        <pt x="128" y="-2" on="0"/>
        <pt x="118" y="-2" on="1"/>
        <pt x="116" y="-2" on="1"/>
        <pt x="103" y="2" on="0"/>
        <pt x="105" y="13" on="1"/>
        <pt x="224" y="688" on="1"/>
        <pt x="227" y="698" on="0"/>
        <pt x="237" y="698" on="1"/>
        <pt x="239" y="698" on="1"/>
        <pt x="247" y="698" on="0"/>
        <pt x="250" y="692" on="1"/>
        <pt x="452" y="320" on="1"/>
        <pt x="787" y="694" on="1"/>
        <pt x="791" y="698" on="0"/>
        <pt x="798" y="698" on="1"/>
        <pt x="801" y="698" on="1"/>
        <pt x="813" y="696" on="0"/>
        <pt x="811" y="683" on="1"/>
        <pt x="692" y="9" on="1"/>
        <pt x="690" y="-2" on="0"/>
        <pt x="680" y="-2" on="1"/>
        <pt x="677" y="-2" on="1"/>
        <pt x="665" y="1" on="0"/>
        <pt x="667" y="13" on="1"/>
        <pt x="779" y="647" on="1"/>
        <pt x="461" y="292" on="1"/>
        <pt x="457" y="288" on="0"/>
      </contour>
    </TTGlyph>
    <TTGlyph name="N" xMin="106" yMin="2" xMax="735" yMax="701">
      <contour>
        <pt x="106" y="17" on="1"/>
        <pt x="224" y="688" on="1"/>
        <pt x="224" y="695" on="0"/>
        <pt x="231" y="701" on="1"/>
        <pt x="243" y="707" on="0"/>
        <pt x="248" y="696" on="1"/>
        <pt x="598" y="52" on="1"/>
        <pt x="710" y="688" on="1"/>
        <pt x="713" y="700" on="0"/>
        <pt x="722" y="698" on="1"/>
        <pt x="738" y="696" on="0"/>
        <pt x="735" y="684" on="1"/>
        <pt x="617" y="13" on="1"/>
        <pt x="615" y="2" on="0"/>
        <pt x="605" y="2" on="1"/>
        <pt x="602" y="2" on="1"/>
        <pt x="597" y="3" on="0"/>
        <pt x="592" y="10" on="0"/>
        <pt x="592" y="12" on="0"/>
        <pt x="591" y="12" on="1"/>
        <pt x="243" y="652" on="1"/>
        <pt x="130" y="13" on="1"/>
        <pt x="128" y="2" on="0"/>
        <pt x="118" y="2" on="1"/>
        <pt x="116" y="2" on="1"/>
        <pt x="103" y="6" on="0"/>
      </contour>
    </TTGlyph>
    <TTGlyph name="Ntilde" xMin="106" yMin="2" xMax="735" yMax="899">
      <contour>
        <pt x="106" y="17" on="1"/>
        <pt x="224" y="688" on="1"/>
        <pt x="224" y="695" on="0"/>
        <pt x="231" y="701" on="1"/>
        <pt x="243" y="707" on="0"/>
        <pt x="248" y="696" on="1"/>
        <pt x="598" y="52" on="1"/>
        <pt x="710" y="688" on="1"/>
        <pt x="713" y="700" on="0"/>
        <pt x="722" y="698" on="1"/>
        <pt x="738" y="696" on="0"/>
        <pt x="735" y="684" on="1"/>
        <pt x="617" y="13" on="1"/>
        <pt x="615" y="2" on="0"/>
        <pt x="605" y="2" on="1"/>
        <pt x="602" y="2" on="1"/>
        <pt x="597" y="3" on="0"/>
        <pt x="592" y="10" on="0"/>
        <pt x="592" y="12" on="0"/>
        <pt x="591" y="12" on="1"/>
        <pt x="243" y="652" on="1"/>
        <pt x="130" y="13" on="1"/>
        <pt x="128" y="2" on="0"/>
        <pt x="118" y="2" on="1"/>
        <pt x="116" y="2" on="1"/>
        <pt x="103" y="6" on="0"/>
      </contour>
      <contour>
        <pt x="402" y="802" on="1"/>
        <pt x="396" y="790" on="0"/>
        <pt x="386" y="790" on="1"/>
        <pt x="370" y="790" on="0"/>
        <pt x="370" y="803" on="1"/>
        <pt x="370" y="805" on="0"/>
        <pt x="381" y="840" on="0"/>
        <pt x="429" y="877" on="0"/>
        <pt x="470" y="877" on="0"/>
        <pt x="562" y="839" on="0"/>
        <pt x="578" y="839" on="1"/>
        <pt x="609" y="839" on="0"/>
        <pt x="628" y="882" on="1"/>
        <pt x="628" y="890" on="0"/>
        <pt x="637" y="899" on="0"/>
        <pt x="641" y="899" on="1"/>
        <pt x="659" y="899" on="0"/>
        <pt x="659" y="882" on="1"/>
        <pt x="659" y="876" on="0"/>
        <pt x="657" y="870" on="1"/>
        <pt x="635" y="802" on="0"/>
        <pt x="578" y="802" on="1"/>
        <pt x="560" y="802" on="0"/>
        <pt x="468" y="841" on="0"/>
        <pt x="450" y="841" on="1"/>
        <pt x="419" y="841" on="0"/>
      </contour>
    </TTGlyph>
    <TTGlyph name="O" xMin="73" yMin="-1" xMax="744" yMax="699">
      <contour>
        <pt x="105" y="496" on="0"/>
        <pt x="332" y="699" on="0"/>
        <pt x="590" y="699" on="0"/>
        <pt x="667" y="616" on="1"/>
        <pt x="744" y="536" on="0"/>
        <pt x="744" y="412" on="1"/>
        <pt x="744" y="374" on="0"/>
        <pt x="739" y="347" on="1"/>
        <pt x="713" y="203" on="0"/>
        <pt x="486" y="0" on="0"/>
        <pt x="349" y="-1" on="1"/>
        <pt x="228" y="-1" on="0"/>
        <pt x="73" y="162" on="0"/>
        <pt x="73" y="287" on="1"/>
        <pt x="73" y="318" on="0"/>
        <pt x="79" y="351" on="1"/>
      </contour>
      <contour>
        <pt x="714" y="351" on="1"/>
        <pt x="719" y="386" on="0"/>
        <pt x="719" y="412" on="1"/>
        <pt x="719" y="525" on="0"/>
        <pt x="578" y="673" on="0"/>
        <pt x="468" y="674" on="1"/>
        <pt x="467" y="674" on="1"/>
        <pt x="341" y="674" on="0"/>
        <pt x="127" y="482" on="0"/>
        <pt x="104" y="347" on="1"/>
        <pt x="98" y="316" on="0"/>
        <pt x="98" y="287" on="1"/>
        <pt x="99" y="173" on="0"/>
        <pt x="239" y="25" on="0"/>
        <pt x="349" y="24" on="1"/>
        <pt x="475" y="24" on="0"/>
        <pt x="690" y="216" on="0"/>
      </contour>
    </TTGlyph>
    <TTGlyph name="OE" xMin="65" yMin="1" xMax="1185" yMax="724">
      <contour>
        <pt x="1051" y="14" on="1"/>
        <pt x="678" y="14" on="1"/>
        <pt x="667" y="14" on="0"/>
        <pt x="669" y="27" on="1"/>
        <pt x="707" y="242" on="1"/>
        <pt x="651" y="135" on="0"/>
        <pt x="452" y="1" on="0"/>
        <pt x="342" y="1" on="1"/>
        <pt x="200" y="1" on="0"/>
        <pt x="39" y="212" on="0"/>
        <pt x="92" y="513" on="0"/>
        <pt x="328" y="724" on="0"/>
        <pt x="470" y="724" on="1"/>
        <pt x="580" y="724" on="0"/>
        <pt x="731" y="590" on="0"/>
        <pt x="749" y="483" on="1"/>
        <pt x="788" y="701" on="1"/>
        <pt x="790" y="712" on="0"/>
        <pt x="802" y="714" on="1"/>
        <pt x="1175" y="714" on="1"/>
        <pt x="1187" y="714" on="0"/>
        <pt x="1185" y="701" on="1"/>
        <pt x="1182" y="689" on="0"/>
        <pt x="1171" y="689" on="1"/>
        <pt x="811" y="689" on="1"/>
        <pt x="756" y="377" on="1"/>
        <pt x="1073" y="377" on="1"/>
        <pt x="1084" y="377" on="0"/>
        <pt x="1080" y="352" on="0"/>
        <pt x="1068" y="352" on="1"/>
        <pt x="751" y="352" on="1"/>
        <pt x="696" y="39" on="1"/>
        <pt x="1056" y="39" on="1"/>
        <pt x="1068" y="39" on="0"/>
        <pt x="1064" y="14" on="0"/>
      </contour>
      <contour>
        <pt x="336" y="698" on="0"/>
        <pt x="117" y="502" on="0"/>
        <pt x="67" y="225" on="0"/>
        <pt x="217" y="30" on="0"/>
        <pt x="347" y="28" on="1"/>
        <pt x="476" y="30" on="0"/>
        <pt x="695" y="225" on="0"/>
        <pt x="744" y="502" on="0"/>
        <pt x="594" y="698" on="0"/>
      </contour>
    </TTGlyph>
    <TTGlyph name="Oacute" xMin="73" yMin="-1" xMax="744" yMax="923">
      <contour>
        <pt x="105" y="496" on="0"/>
        <pt x="332" y="699" on="0"/>
        <pt x="590" y="699" on="0"/>
        <pt x="667" y="616" on="1"/>
        <pt x="744" y="536" on="0"/>
        <pt x="744" y="412" on="1"/>
        <pt x="744" y="374" on="0"/>
        <pt x="739" y="347" on="1"/>
        <pt x="713" y="203" on="0"/>
        <pt x="486" y="0" on="0"/>
        <pt x="349" y="-1" on="1"/>
        <pt x="228" y="-1" on="0"/>
        <pt x="73" y="162" on="0"/>
        <pt x="73" y="287" on="1"/>
        <pt x="73" y="318" on="0"/>
        <pt x="79" y="351" on="1"/>
      </contour>
      <contour>
        <pt x="714" y="351" on="1"/>
        <pt x="719" y="386" on="0"/>
        <pt x="719" y="412" on="1"/>
        <pt x="719" y="525" on="0"/>
        <pt x="578" y="673" on="0"/>
        <pt x="468" y="674" on="1"/>
        <pt x="467" y="674" on="1"/>
        <pt x="341" y="674" on="0"/>
        <pt x="127" y="482" on="0"/>
        <pt x="104" y="347" on="1"/>
        <pt x="98" y="316" on="0"/>
        <pt x="98" y="287" on="1"/>
        <pt x="99" y="173" on="0"/>
        <pt x="239" y="25" on="0"/>
        <pt x="349" y="24" on="1"/>
        <pt x="475" y="24" on="0"/>
        <pt x="690" y="216" on="0"/>
      </contour>
      <contour>
        <pt x="518" y="813" on="1"/>
        <pt x="510" y="804" on="0"/>
        <pt x="487" y="794" on="0"/>
        <pt x="487" y="806" on="0"/>
        <pt x="491" y="812" on="1"/>
        <pt x="553" y="905" on="1"/>
        <pt x="565" y="923" on="0"/>
        <pt x="590" y="923" on="0"/>
        <pt x="599" y="917" on="0"/>
        <pt x="599" y="908" on="1"/>
        <pt x="602" y="903" on="0"/>
        <pt x="589" y="890" on="1"/>
      </contour>
    </TTGlyph>
    <TTGlyph name="Ocircumflex" xMin="73" yMin="-1" xMax="744" yMax="920">
      <component glyphName="O" x="0" y="0" flags="0x1004"/>
      <component glyphName="circumflex" x="268" y="200" flags="0x1004"/>
    </TTGlyph>
    <TTGlyph name="Odieresis" xMin="73" yMin="-1" xMax="744" yMax="871">
      <component glyphName="O" x="0" y="0" flags="0x1004"/>
      <component glyphName="dieresis" x="258" y="200" flags="0x1004"/>
    </TTGlyph>
    <TTGlyph name="Ograve" xMin="73" yMin="-1" xMax="744" yMax="923">
      <component glyphName="O" x="0" y="0" flags="0x1004"/>
      <component glyphName="grave" x="367" y="200" flags="0x1004"/>
    </TTGlyph>
    <TTGlyph name="Otilde" xMin="73" yMin="-1" xMax="744" yMax="899">
      <contour>
        <pt x="105" y="496" on="0"/>
        <pt x="332" y="699" on="0"/>
        <pt x="590" y="699" on="0"/>
        <pt x="667" y="616" on="1"/>
        <pt x="744" y="536" on="0"/>
        <pt x="744" y="412" on="1"/>
        <pt x="744" y="374" on="0"/>
        <pt x="739" y="347" on="1"/>
        <pt x="713" y="203" on="0"/>
        <pt x="486" y="0" on="0"/>
        <pt x="349" y="-1" on="1"/>
        <pt x="228" y="-1" on="0"/>
        <pt x="73" y="162" on="0"/>
        <pt x="73" y="287" on="1"/>
        <pt x="73" y="318" on="0"/>
        <pt x="79" y="351" on="1"/>
      </contour>
      <contour>
        <pt x="714" y="351" on="1"/>
        <pt x="719" y="386" on="0"/>
        <pt x="719" y="412" on="1"/>
        <pt x="719" y="525" on="0"/>
        <pt x="578" y="673" on="0"/>
        <pt x="468" y="674" on="1"/>
        <pt x="467" y="674" on="1"/>
        <pt x="341" y="674" on="0"/>
        <pt x="127" y="482" on="0"/>
        <pt x="104" y="347" on="1"/>
        <pt x="98" y="316" on="0"/>
        <pt x="98" y="287" on="1"/>
        <pt x="99" y="173" on="0"/>
        <pt x="239" y="25" on="0"/>
        <pt x="349" y="24" on="1"/>
        <pt x="475" y="24" on="0"/>
        <pt x="690" y="216" on="0"/>
      </contour>
      <contour>
        <pt x="403" y="802" on="1"/>
        <pt x="397" y="790" on="0"/>
        <pt x="387" y="790" on="1"/>
        <pt x="371" y="790" on="0"/>
        <pt x="371" y="803" on="1"/>
        <pt x="371" y="805" on="0"/>
        <pt x="382" y="840" on="0"/>
        <pt x="430" y="877" on="0"/>
        <pt x="470" y="877" on="0"/>
        <pt x="562" y="839" on="0"/>
        <pt x="579" y="839" on="1"/>
        <pt x="610" y="839" on="0"/>
        <pt x="629" y="882" on="1"/>
        <pt x="629" y="890" on="0"/>
        <pt x="638" y="899" on="0"/>
        <pt x="642" y="899" on="1"/>
        <pt x="660" y="899" on="0"/>
        <pt x="660" y="882" on="1"/>
        <pt x="660" y="876" on="0"/>
        <pt x="658" y="870" on="1"/>
        <pt x="636" y="802" on="0"/>
        <pt x="579" y="802" on="1"/>
        <pt x="561" y="802" on="0"/>
        <pt x="469" y="841" on="0"/>
        <pt x="451" y="841" on="1"/>
        <pt x="420" y="841" on="0"/>
      </contour>
    </TTGlyph>
    <TTGlyph name="P" xMin="106" yMin="2" xMax="607" yMax="702">
      <contour>
        <pt x="116" y="2" on="1"/>
        <pt x="111" y="3" on="0"/>
        <pt x="105" y="12" on="0"/>
        <pt x="106" y="17" on="1"/>
        <pt x="225" y="691" on="1"/>
        <pt x="227" y="703" on="0"/>
        <pt x="237" y="701" on="1"/>
        <pt x="238" y="702" on="1"/>
        <pt x="442" y="702" on="1"/>
        <pt x="512" y="702" on="0"/>
        <pt x="607" y="609" on="0"/>
        <pt x="607" y="539" on="1"/>
        <pt x="607" y="439" on="0"/>
        <pt x="524" y="369" on="1"/>
        <pt x="458" y="313" on="0"/>
        <pt x="378" y="313" on="1"/>
        <pt x="183" y="313" on="1"/>
        <pt x="131" y="12" on="1"/>
        <pt x="128" y="2" on="0"/>
        <pt x="118" y="2" on="1"/>
      </contour>
      <contour>
        <pt x="248" y="676" on="1"/>
        <pt x="188" y="338" on="1"/>
        <pt x="378" y="338" on="1"/>
        <pt x="448" y="338" on="0"/>
        <pt x="508" y="388" on="1"/>
        <pt x="582" y="452" on="0"/>
        <pt x="582" y="539" on="1"/>
        <pt x="581" y="599" on="0"/>
        <pt x="504" y="676" on="0"/>
        <pt x="442" y="676" on="1"/>
      </contour>
    </TTGlyph>
    <TTGlyph name="Q" xMin="100" yMin="-149" xMax="770" yMax="710">
      <contour>
        <pt x="770" y="353" on="1"/>
        <pt x="751" y="245" on="0"/>
        <pt x="604" y="68" on="0"/>
        <pt x="505" y="26" on="1"/>
        <pt x="347" y="-41" on="1"/>
        <pt x="405" y="-41" on="0"/>
        <pt x="446" y="-68" on="1"/>
        <pt x="529" y="-124" on="0"/>
        <pt x="672" y="-124" on="0"/>
        <pt x="748" y="-68" on="1"/>
        <pt x="760" y="-62" on="0"/>
        <pt x="767" y="-71" on="1"/>
        <pt x="770" y="-82" on="0"/>
        <pt x="761" y="-90" on="1"/>
        <pt x="675" y="-149" on="0"/>
        <pt x="517" y="-149" on="0"/>
        <pt x="429" y="-91" on="1"/>
        <pt x="392" y="-66" on="0"/>
        <pt x="290" y="-66" on="0"/>
        <pt x="243" y="-88" on="1"/>
        <pt x="233" y="-91" on="1"/>
        <pt x="225" y="-96" on="0"/>
        <pt x="220" y="-90" on="1"/>
        <pt x="217" y="-89" on="0"/>
        <pt x="215" y="-84" on="1"/>
        <pt x="213" y="-69" on="0"/>
        <pt x="224" y="-66" on="1"/>
        <pt x="380" y="0" on="1"/>
        <pt x="372" y="0" on="1"/>
        <pt x="233" y="0" on="0"/>
        <pt x="74" y="207" on="0"/>
        <pt x="126" y="501" on="0"/>
        <pt x="359" y="710" on="0"/>
        <pt x="636" y="710" on="0"/>
        <pt x="795" y="501" on="0"/>
      </contour>
      <contour>
        <pt x="365" y="683" on="0"/>
        <pt x="150" y="491" on="0"/>
        <pt x="102" y="217" on="0"/>
        <pt x="249" y="25" on="0"/>
        <pt x="504" y="25" on="0"/>
        <pt x="719" y="217" on="0"/>
        <pt x="745" y="353" on="1"/>
        <pt x="768" y="491" on="0"/>
        <pt x="621" y="683" on="0"/>
      </contour>
    </TTGlyph>
    <TTGlyph name="R" xMin="91" yMin="1" xMax="593" yMax="701">
      <contour>
        <pt x="518" y="180" on="1"/>
        <pt x="518" y="166" on="0"/>
        <pt x="508" y="110" on="0"/>
        <pt x="508" y="37" on="0"/>
        <pt x="523" y="37" on="1"/>
        <pt x="525" y="37" on="1"/>
        <pt x="536" y="41" on="0"/>
        <pt x="540" y="28" on="1"/>
        <pt x="545" y="11" on="0"/>
        <pt x="523" y="11" on="1"/>
        <pt x="507" y="11" on="0"/>
        <pt x="483" y="43" on="0"/>
        <pt x="483" y="112" on="0"/>
        <pt x="492" y="163" on="0"/>
        <pt x="492" y="180" on="1"/>
        <pt x="492" y="233" on="0"/>
        <pt x="419" y="298" on="0"/>
        <pt x="373" y="309" on="1"/>
        <pt x="369" y="310" on="0"/>
        <pt x="363" y="312" on="0"/>
        <pt x="362" y="312" on="1"/>
        <pt x="169" y="312" on="1"/>
        <pt x="116" y="11" on="1"/>
        <pt x="114" y="1" on="0"/>
        <pt x="104" y="1" on="1"/>
        <pt x="101" y="1" on="1"/>
        <pt x="89" y="3" on="0"/>
        <pt x="91" y="16" on="1"/>
        <pt x="210" y="690" on="1"/>
        <pt x="212" y="701" on="0"/>
        <pt x="223" y="701" on="1"/>
        <pt x="427" y="701" on="1"/>
        <pt x="499" y="701" on="0"/>
        <pt x="546" y="654" on="1"/>
        <pt x="593" y="609" on="0"/>
        <pt x="593" y="455" on="0"/>
        <pt x="530" y="388" on="1"/>
        <pt x="482" y="336" on="0"/>
        <pt x="418" y="319" on="1"/>
        <pt x="425" y="316" on="0"/>
        <pt x="441" y="308" on="1"/>
        <pt x="518" y="260" on="0"/>
      </contour>
      <contour>
        <pt x="363" y="337" on="1"/>
        <pt x="434" y="337" on="0"/>
        <pt x="494" y="388" on="1"/>
        <pt x="567" y="450" on="0"/>
        <pt x="567" y="538" on="1"/>
        <pt x="567" y="598" on="0"/>
        <pt x="489" y="675" on="0"/>
        <pt x="427" y="675" on="1"/>
        <pt x="233" y="675" on="1"/>
        <pt x="173" y="337" on="1"/>
      </contour>
    </TTGlyph>
    <TTGlyph name="S" xMin="69" yMin="-1" xMax="627" yMax="699">
      <contour>
        <pt x="69" y="99" on="1"/>
        <pt x="62" y="106" on="0"/>
        <pt x="78" y="123" on="0"/>
        <pt x="86" y="117" on="1"/>
        <pt x="126" y="78" on="0"/>
        <pt x="243" y="22" on="0"/>
        <pt x="309" y="22" on="1"/>
        <pt x="406" y="22" on="0"/>
        <pt x="556" y="119" on="0"/>
        <pt x="578" y="249" on="0"/>
        <pt x="523" y="292" on="1"/>
        <pt x="469" y="332" on="0"/>
        <pt x="365" y="351" on="1"/>
        <pt x="363" y="352" on="1"/>
        <pt x="259" y="372" on="0"/>
        <pt x="210" y="410" on="1"/>
        <pt x="149" y="456" on="0"/>
        <pt x="175" y="598" on="0"/>
        <pt x="330" y="699" on="0"/>
        <pt x="426" y="699" on="1"/>
        <pt x="468" y="699" on="0"/>
        <pt x="549" y="671" on="0"/>
        <pt x="594" y="642" on="0"/>
        <pt x="626" y="618" on="1"/>
        <pt x="635" y="613" on="0"/>
        <pt x="627" y="603" on="1"/>
        <pt x="618" y="594" on="0"/>
        <pt x="610" y="599" on="1"/>
        <pt x="578" y="623" on="0"/>
        <pt x="536" y="650" on="0"/>
        <pt x="461" y="677" on="0"/>
        <pt x="422" y="677" on="1"/>
        <pt x="335" y="677" on="0"/>
        <pt x="195" y="586" on="0"/>
        <pt x="175" y="467" on="0"/>
        <pt x="272" y="393" on="0"/>
        <pt x="371" y="374" on="1"/>
        <pt x="373" y="373" on="1"/>
        <pt x="483" y="352" on="0"/>
        <pt x="539" y="310" on="1"/>
        <pt x="604" y="263" on="0"/>
        <pt x="575" y="107" on="0"/>
        <pt x="409" y="-1" on="0"/>
        <pt x="305" y="-1" on="1"/>
        <pt x="176" y="-1" on="0"/>
      </contour>
    </TTGlyph>
    <TTGlyph name="Scaron" xMin="69" yMin="-1" xMax="627" yMax="883">
      <contour>
        <pt x="473" y="788" on="1"/>
        <pt x="558" y="864" on="1"/>
        <pt x="580" y="882" on="0"/>
        <pt x="587" y="882" on="1"/>
        <pt x="601" y="880" on="0"/>
        <pt x="601" y="880" on="1"/>
        <pt x="600" y="875" on="0"/>
        <pt x="593" y="868" on="1"/>
        <pt x="502" y="780" on="1"/>
        <pt x="482" y="762" on="0"/>
        <pt x="470" y="762" on="1"/>
        <pt x="462" y="762" on="1"/>
        <pt x="448" y="762" on="0"/>
        <pt x="438" y="780" on="1"/>
        <pt x="385" y="868" on="1"/>
        <pt x="381" y="874" on="0"/>
        <pt x="384" y="884" on="0"/>
        <pt x="393" y="882" on="0"/>
        <pt x="400" y="882" on="0"/>
        <pt x="408" y="877" on="0"/>
        <pt x="412" y="873" on="0"/>
        <pt x="418" y="864" on="0"/>
        <pt x="419" y="863" on="1"/>
      </contour>
      <contour>
        <pt x="69" y="99" on="1"/>
        <pt x="176" y="-1" on="0"/>
        <pt x="305" y="-1" on="1"/>
        <pt x="409" y="-1" on="0"/>
        <pt x="575" y="107" on="0"/>
        <pt x="604" y="263" on="0"/>
        <pt x="539" y="310" on="1"/>
        <pt x="483" y="352" on="0"/>
        <pt x="373" y="373" on="1"/>
        <pt x="371" y="374" on="1"/>
        <pt x="272" y="393" on="0"/>
        <pt x="175" y="467" on="0"/>
        <pt x="195" y="586" on="0"/>
        <pt x="335" y="677" on="0"/>
        <pt x="422" y="677" on="1"/>
        <pt x="461" y="677" on="0"/>
        <pt x="536" y="650" on="0"/>
        <pt x="578" y="623" on="0"/>
        <pt x="610" y="599" on="1"/>
        <pt x="618" y="594" on="0"/>
        <pt x="627" y="603" on="1"/>
        <pt x="635" y="613" on="0"/>
        <pt x="626" y="618" on="1"/>
        <pt x="594" y="642" on="0"/>
        <pt x="549" y="671" on="0"/>
        <pt x="468" y="699" on="0"/>
        <pt x="426" y="699" on="1"/>
        <pt x="330" y="699" on="0"/>
        <pt x="175" y="598" on="0"/>
        <pt x="149" y="456" on="0"/>
        <pt x="210" y="410" on="1"/>
        <pt x="259" y="372" on="0"/>
        <pt x="363" y="352" on="1"/>
        <pt x="365" y="351" on="1"/>
        <pt x="469" y="332" on="0"/>
        <pt x="523" y="292" on="1"/>
        <pt x="578" y="249" on="0"/>
        <pt x="556" y="119" on="0"/>
        <pt x="406" y="22" on="0"/>
        <pt x="309" y="22" on="1"/>
        <pt x="243" y="22" on="0"/>
        <pt x="126" y="78" on="0"/>
        <pt x="86" y="117" on="1"/>
        <pt x="78" y="123" on="0"/>
        <pt x="62" y="106" on="0"/>
      </contour>
    </TTGlyph>
    <TTGlyph name="T" xMin="50" yMin="-3" xMax="562" yMax="697">
      <contour>
        <pt x="185" y="-3" on="1"/>
        <pt x="180" y="-2" on="0"/>
        <pt x="174" y="7" on="0"/>
        <pt x="175" y="12" on="1"/>
        <pt x="291" y="671" on="1"/>
        <pt x="62" y="671" on="1"/>
        <pt x="50" y="671" on="0"/>
        <pt x="50" y="697" on="0"/>
        <pt x="62" y="697" on="1"/>
        <pt x="550" y="697" on="1"/>
        <pt x="562" y="697" on="0"/>
        <pt x="562" y="671" on="0"/>
        <pt x="550" y="671" on="1"/>
        <pt x="317" y="671" on="1"/>
        <pt x="200" y="7" on="1"/>
        <pt x="197" y="-3" on="0"/>
        <pt x="187" y="-3" on="1"/>
      </contour>
    </TTGlyph>
    <TTGlyph name="U" xMin="105" yMin="-2" xMax="741" yMax="698">
      <contour>
        <pt x="206" y="683" on="1"/>
        <pt x="134" y="276" on="1"/>
        <pt x="130" y="256" on="0"/>
        <pt x="130" y="231" on="1"/>
        <pt x="131" y="141" on="0"/>
        <pt x="249" y="24" on="0"/>
        <pt x="448" y="23" on="0"/>
        <pt x="626" y="174" on="0"/>
        <pt x="644" y="280" on="1"/>
        <pt x="716" y="687" on="1"/>
        <pt x="718" y="700" on="0"/>
        <pt x="731" y="698" on="1"/>
        <pt x="743" y="695" on="0"/>
        <pt x="741" y="683" on="1"/>
        <pt x="669" y="276" on="1"/>
        <pt x="649" y="160" on="0"/>
        <pt x="458" y="-2" on="0"/>
        <pt x="238" y="-2" on="0"/>
        <pt x="105" y="131" on="0"/>
        <pt x="105" y="231" on="1"/>
        <pt x="105" y="259" on="0"/>
        <pt x="109" y="280" on="1"/>
        <pt x="181" y="687" on="1"/>
        <pt x="183" y="700" on="0"/>
        <pt x="196" y="698" on="1"/>
        <pt x="208" y="694" on="0"/>
      </contour>
    </TTGlyph>
    <TTGlyph name="Uacute" xMin="93" yMin="-2" xMax="729" yMax="923">
      <contour>
        <pt x="194" y="683" on="1"/>
        <pt x="122" y="276" on="1"/>
        <pt x="118" y="256" on="0"/>
        <pt x="118" y="231" on="1"/>
        <pt x="119" y="141" on="0"/>
        <pt x="237" y="24" on="0"/>
        <pt x="436" y="23" on="0"/>
        <pt x="614" y="174" on="0"/>
        <pt x="632" y="280" on="1"/>
        <pt x="704" y="687" on="1"/>
        <pt x="706" y="700" on="0"/>
        <pt x="719" y="698" on="1"/>
        <pt x="731" y="695" on="0"/>
        <pt x="729" y="683" on="1"/>
        <pt x="657" y="276" on="1"/>
        <pt x="637" y="160" on="0"/>
        <pt x="446" y="-2" on="0"/>
        <pt x="226" y="-2" on="0"/>
        <pt x="93" y="131" on="0"/>
        <pt x="93" y="231" on="1"/>
        <pt x="93" y="259" on="0"/>
        <pt x="97" y="280" on="1"/>
        <pt x="169" y="687" on="1"/>
        <pt x="171" y="700" on="0"/>
        <pt x="184" y="698" on="1"/>
        <pt x="196" y="694" on="0"/>
      </contour>
      <contour>
        <pt x="420" y="813" on="1"/>
        <pt x="412" y="804" on="0"/>
        <pt x="389" y="794" on="0"/>
        <pt x="389" y="806" on="0"/>
        <pt x="393" y="812" on="1"/>
        <pt x="455" y="905" on="1"/>
        <pt x="467" y="923" on="0"/>
        <pt x="492" y="923" on="0"/>
        <pt x="501" y="917" on="0"/>
        <pt x="501" y="908" on="1"/>
        <pt x="504" y="903" on="0"/>
        <pt x="491" y="890" on="1"/>
      </contour>
    </TTGlyph>
    <TTGlyph name="Ucircumflex" xMin="93" yMin="-2" xMax="729" yMax="920">
      <contour>
        <pt x="194" y="683" on="1"/>
        <pt x="122" y="276" on="1"/>
        <pt x="118" y="256" on="0"/>
        <pt x="118" y="231" on="1"/>
        <pt x="119" y="141" on="0"/>
        <pt x="237" y="24" on="0"/>
        <pt x="436" y="23" on="0"/>
        <pt x="614" y="174" on="0"/>
        <pt x="632" y="280" on="1"/>
        <pt x="704" y="687" on="1"/>
        <pt x="706" y="700" on="0"/>
        <pt x="719" y="698" on="1"/>
        <pt x="731" y="695" on="0"/>
        <pt x="729" y="683" on="1"/>
        <pt x="657" y="276" on="1"/>
        <pt x="637" y="160" on="0"/>
        <pt x="446" y="-2" on="0"/>
        <pt x="226" y="-2" on="0"/>
        <pt x="93" y="131" on="0"/>
        <pt x="93" y="231" on="1"/>
        <pt x="93" y="259" on="0"/>
        <pt x="97" y="280" on="1"/>
        <pt x="169" y="687" on="1"/>
        <pt x="171" y="700" on="0"/>
        <pt x="184" y="698" on="1"/>
        <pt x="196" y="694" on="0"/>
      </contour>
      <contour>
        <pt x="500" y="894" on="1"/>
        <pt x="415" y="818" on="1"/>
        <pt x="393" y="800" on="0"/>
        <pt x="386" y="800" on="1"/>
        <pt x="372" y="802" on="0"/>
        <pt x="372" y="802" on="1"/>
        <pt x="373" y="807" on="0"/>
        <pt x="380" y="814" on="1"/>
        <pt x="471" y="902" on="1"/>
        <pt x="491" y="920" on="0"/>
        <pt x="503" y="920" on="1"/>
        <pt x="511" y="920" on="1"/>
        <pt x="525" y="920" on="0"/>
        <pt x="535" y="902" on="1"/>
        <pt x="588" y="814" on="1"/>
        <pt x="592" y="808" on="0"/>
        <pt x="589" y="798" on="0"/>
        <pt x="580" y="800" on="0"/>
        <pt x="573" y="800" on="0"/>
        <pt x="565" y="805" on="0"/>
        <pt x="561" y="809" on="0"/>
        <pt x="555" y="818" on="0"/>
        <pt x="554" y="819" on="1"/>
      </contour>
    </TTGlyph>
    <TTGlyph name="Udieresis" xMin="93" yMin="-2" xMax="729" yMax="871">
      <contour>
        <pt x="194" y="683" on="1"/>
        <pt x="122" y="276" on="1"/>
        <pt x="118" y="256" on="0"/>
        <pt x="118" y="231" on="1"/>
        <pt x="119" y="141" on="0"/>
        <pt x="237" y="24" on="0"/>
        <pt x="436" y="23" on="0"/>
        <pt x="614" y="174" on="0"/>
        <pt x="632" y="280" on="1"/>
        <pt x="704" y="687" on="1"/>
        <pt x="706" y="700" on="0"/>
        <pt x="719" y="698" on="1"/>
        <pt x="731" y="695" on="0"/>
        <pt x="729" y="683" on="1"/>
        <pt x="657" y="276" on="1"/>
        <pt x="637" y="160" on="0"/>
        <pt x="446" y="-2" on="0"/>
        <pt x="226" y="-2" on="0"/>
        <pt x="93" y="131" on="0"/>
        <pt x="93" y="231" on="1"/>
        <pt x="93" y="259" on="0"/>
        <pt x="97" y="280" on="1"/>
        <pt x="169" y="687" on="1"/>
        <pt x="171" y="700" on="0"/>
        <pt x="184" y="698" on="1"/>
        <pt x="196" y="694" on="0"/>
      </contour>
      <contour>
        <pt x="351" y="823" on="0"/>
        <pt x="355" y="851" on="0"/>
        <pt x="376" y="871" on="0"/>
        <pt x="404" y="871" on="0"/>
        <pt x="422" y="851" on="0"/>
        <pt x="418" y="822" on="0"/>
        <pt x="397" y="803" on="0"/>
        <pt x="369" y="803" on="0"/>
      </contour>
      <contour>
        <pt x="533" y="823" on="0"/>
        <pt x="537" y="851" on="0"/>
        <pt x="558" y="871" on="0"/>
        <pt x="586" y="871" on="0"/>
        <pt x="604" y="851" on="0"/>
        <pt x="601" y="823" on="0"/>
        <pt x="579" y="803" on="0"/>
        <pt x="551" y="803" on="0"/>
      </contour>
    </TTGlyph>
    <TTGlyph name="Ugrave" xMin="93" yMin="-2" xMax="729" yMax="923">
      <contour>
        <pt x="194" y="683" on="1"/>
        <pt x="122" y="276" on="1"/>
        <pt x="118" y="256" on="0"/>
        <pt x="118" y="231" on="1"/>
        <pt x="119" y="141" on="0"/>
        <pt x="237" y="24" on="0"/>
        <pt x="436" y="23" on="0"/>
        <pt x="614" y="174" on="0"/>
        <pt x="632" y="280" on="1"/>
        <pt x="704" y="687" on="1"/>
        <pt x="706" y="700" on="0"/>
        <pt x="719" y="698" on="1"/>
        <pt x="731" y="695" on="0"/>
        <pt x="729" y="683" on="1"/>
        <pt x="657" y="276" on="1"/>
        <pt x="637" y="160" on="0"/>
        <pt x="446" y="-2" on="0"/>
        <pt x="226" y="-2" on="0"/>
        <pt x="93" y="131" on="0"/>
        <pt x="93" y="231" on="1"/>
        <pt x="93" y="259" on="0"/>
        <pt x="97" y="280" on="1"/>
        <pt x="169" y="687" on="1"/>
        <pt x="171" y="700" on="0"/>
        <pt x="184" y="698" on="1"/>
        <pt x="196" y="694" on="0"/>
      </contour>
      <contour>
        <pt x="526" y="812" on="1"/>
        <pt x="530" y="806" on="0"/>
        <pt x="530" y="794" on="0"/>
        <pt x="507" y="804" on="0"/>
        <pt x="499" y="813" on="1"/>
        <pt x="428" y="890" on="1"/>
        <pt x="415" y="903" on="0"/>
        <pt x="418" y="908" on="1"/>
        <pt x="418" y="923" on="0"/>
        <pt x="452" y="923" on="0"/>
        <pt x="464" y="905" on="1"/>
      </contour>
    </TTGlyph>
    <TTGlyph name="V" xMin="57" yMin="1" xMax="649" yMax="700">
      <contour>
        <pt x="228" y="3" on="1"/>
        <pt x="223" y="8" on="0"/>
        <pt x="223" y="10" on="1"/>
        <pt x="57" y="685" on="1"/>
        <pt x="55" y="698" on="0"/>
        <pt x="67" y="700" on="1"/>
        <pt x="78" y="703" on="0"/>
        <pt x="82" y="691" on="1"/>
        <pt x="240" y="46" on="1"/>
        <pt x="627" y="695" on="1"/>
        <pt x="634" y="706" on="0"/>
        <pt x="656" y="692" on="0"/>
        <pt x="649" y="682" on="1"/>
        <pt x="246" y="7" on="1"/>
        <pt x="242" y="3" on="1"/>
        <pt x="238" y="1" on="1"/>
        <pt x="231" y="1" on="1"/>
        <pt x="230" y="2" on="1"/>
        <pt x="229" y="2" on="0"/>
        <pt x="229" y="3" on="1"/>
      </contour>
    </TTGlyph>
    <TTGlyph name="W" xMin="61" yMin="0" xMax="1072" yMax="699">
      <contour>
        <pt x="234" y="1" on="1"/>
        <pt x="233" y="1" on="0"/>
        <pt x="229" y="5" on="1"/>
        <pt x="228" y="5" on="1"/>
        <pt x="228" y="7" on="0"/>
        <pt x="226" y="9" on="1"/>
        <pt x="61" y="684" on="1"/>
        <pt x="59" y="697" on="0"/>
        <pt x="70" y="699" on="1"/>
        <pt x="82" y="703" on="0"/>
        <pt x="86" y="690" on="1"/>
        <pt x="244" y="45" on="1"/>
        <pt x="523" y="513" on="1"/>
        <pt x="528" y="521" on="0"/>
        <pt x="536" y="519" on="1"/>
        <pt x="546" y="521" on="0"/>
        <pt x="550" y="510" on="1"/>
        <pt x="663" y="45" on="1"/>
        <pt x="1051" y="694" on="1"/>
        <pt x="1057" y="706" on="0"/>
        <pt x="1079" y="691" on="0"/>
        <pt x="1072" y="681" on="1"/>
        <pt x="669" y="6" on="1"/>
        <pt x="666" y="3" on="1"/>
        <pt x="666" y="2" on="1"/>
        <pt x="661" y="0" on="1"/>
        <pt x="655" y="0" on="1"/>
        <pt x="654" y="1" on="0"/>
        <pt x="652" y="1" on="0"/>
        <pt x="652" y="2" on="1"/>
        <pt x="651" y="2" on="1"/>
        <pt x="649" y="4" on="0"/>
        <pt x="649" y="5" on="1"/>
        <pt x="648" y="5" on="1"/>
        <pt x="646" y="7" on="0"/>
        <pt x="646" y="9" on="1"/>
        <pt x="531" y="477" on="1"/>
        <pt x="250" y="6" on="1"/>
        <pt x="246" y="2" on="1"/>
        <pt x="242" y="0" on="1"/>
        <pt x="235" y="0" on="1"/>
      </contour>
    </TTGlyph>
    <TTGlyph name="X" xMin="78" yMin="-2" xMax="708" yMax="697">
      <contour>
        <pt x="408" y="346" on="1"/>
        <pt x="591" y="17" on="1"/>
        <pt x="598" y="7" on="0"/>
        <pt x="586" y="-1" on="1"/>
        <pt x="584" y="-2" on="0"/>
        <pt x="572" y="-2" on="0"/>
        <pt x="569" y="4" on="1"/>
        <pt x="390" y="326" on="1"/>
        <pt x="96" y="2" on="1"/>
        <pt x="93" y="-2" on="0"/>
        <pt x="82" y="-2" on="0"/>
        <pt x="78" y="1" on="1"/>
        <pt x="69" y="10" on="0"/>
        <pt x="78" y="19" on="1"/>
        <pt x="377" y="350" on="1"/>
        <pt x="195" y="679" on="1"/>
        <pt x="188" y="690" on="0"/>
        <pt x="211" y="703" on="0"/>
        <pt x="217" y="691" on="1"/>
        <pt x="395" y="369" on="1"/>
        <pt x="690" y="694" on="1"/>
        <pt x="697" y="702" on="0"/>
        <pt x="708" y="695" on="1"/>
        <pt x="717" y="686" on="0"/>
        <pt x="708" y="677" on="1"/>
      </contour>
    </TTGlyph>
    <TTGlyph name="Y" xMin="58" yMin="-2" xMax="576" yMax="696">
      <contour>
        <pt x="196" y="-2" on="1"/>
        <pt x="184" y="0" on="0"/>
        <pt x="186" y="13" on="1"/>
        <pt x="244" y="343" on="1"/>
        <pt x="58" y="679" on="1"/>
        <pt x="51" y="690" on="0"/>
        <pt x="63" y="696" on="1"/>
        <pt x="75" y="704" on="0"/>
        <pt x="80" y="691" on="1"/>
        <pt x="260" y="367" on="1"/>
        <pt x="557" y="694" on="1"/>
        <pt x="566" y="703" on="0"/>
        <pt x="584" y="686" on="0"/>
        <pt x="576" y="677" on="1"/>
        <pt x="270" y="339" on="1"/>
        <pt x="269" y="339" on="1"/>
        <pt x="211" y="8" on="1"/>
        <pt x="209" y="-2" on="0"/>
        <pt x="199" y="-2" on="1"/>
      </contour>
    </TTGlyph>
    <TTGlyph name="Yacute" xMin="58" yMin="-2" xMax="576" yMax="923">
      <contour>
        <pt x="196" y="-2" on="1"/>
        <pt x="184" y="0" on="0"/>
        <pt x="186" y="13" on="1"/>
        <pt x="244" y="343" on="1"/>
        <pt x="58" y="679" on="1"/>
        <pt x="51" y="690" on="0"/>
        <pt x="63" y="696" on="1"/>
        <pt x="75" y="704" on="0"/>
        <pt x="80" y="691" on="1"/>
        <pt x="260" y="367" on="1"/>
        <pt x="557" y="694" on="1"/>
        <pt x="566" y="703" on="0"/>
        <pt x="584" y="686" on="0"/>
        <pt x="576" y="677" on="1"/>
        <pt x="270" y="339" on="1"/>
        <pt x="269" y="339" on="1"/>
        <pt x="211" y="8" on="1"/>
        <pt x="209" y="-2" on="0"/>
        <pt x="199" y="-2" on="1"/>
      </contour>
      <contour>
        <pt x="350" y="813" on="1"/>
        <pt x="342" y="804" on="0"/>
        <pt x="319" y="794" on="0"/>
        <pt x="319" y="806" on="0"/>
        <pt x="323" y="812" on="1"/>
        <pt x="385" y="905" on="1"/>
        <pt x="397" y="923" on="0"/>
        <pt x="422" y="923" on="0"/>
        <pt x="431" y="917" on="0"/>
        <pt x="431" y="908" on="1"/>
        <pt x="434" y="903" on="0"/>
        <pt x="421" y="890" on="1"/>
      </contour>
    </TTGlyph>
    <TTGlyph name="Ydieresis" xMin="58" yMin="-2" xMax="576" yMax="871">
      <contour>
        <pt x="196" y="-2" on="1"/>
        <pt x="184" y="0" on="0"/>
        <pt x="186" y="13" on="1"/>
        <pt x="244" y="343" on="1"/>
        <pt x="58" y="679" on="1"/>
        <pt x="51" y="690" on="0"/>
        <pt x="63" y="696" on="1"/>
        <pt x="75" y="704" on="0"/>
        <pt x="80" y="691" on="1"/>
        <pt x="260" y="367" on="1"/>
        <pt x="557" y="694" on="1"/>
        <pt x="566" y="703" on="0"/>
        <pt x="584" y="686" on="0"/>
        <pt x="576" y="677" on="1"/>
        <pt x="270" y="339" on="1"/>
        <pt x="269" y="339" on="1"/>
        <pt x="211" y="8" on="1"/>
        <pt x="209" y="-2" on="0"/>
        <pt x="199" y="-2" on="1"/>
      </contour>
      <contour>
        <pt x="238" y="823" on="0"/>
        <pt x="242" y="851" on="0"/>
        <pt x="263" y="871" on="0"/>
        <pt x="291" y="871" on="0"/>
        <pt x="309" y="851" on="0"/>
        <pt x="305" y="822" on="0"/>
        <pt x="284" y="803" on="0"/>
        <pt x="256" y="803" on="0"/>
      </contour>
      <contour>
        <pt x="420" y="823" on="0"/>
        <pt x="424" y="851" on="0"/>
        <pt x="445" y="871" on="0"/>
        <pt x="473" y="871" on="0"/>
        <pt x="491" y="851" on="0"/>
        <pt x="488" y="823" on="0"/>
        <pt x="466" y="803" on="0"/>
        <pt x="438" y="803" on="0"/>
      </contour>
    </TTGlyph>
    <TTGlyph name="Z" xMin="71" yMin="0" xMax="708" yMax="700">
      <contour>
        <pt x="704" y="696" on="1"/>
        <pt x="707" y="692" on="1"/>
        <pt x="707" y="690" on="1"/>
        <pt x="708" y="689" on="0"/>
        <pt x="708" y="687" on="1"/>
        <pt x="708" y="685" on="1"/>
        <pt x="708" y="683" on="0"/>
        <pt x="707" y="683" on="1"/>
        <pt x="707" y="682" on="0"/>
        <pt x="706" y="680" on="1"/>
        <pt x="112" y="25" on="1"/>
        <pt x="577" y="25" on="1"/>
        <pt x="589" y="25" on="0"/>
        <pt x="589" y="0" on="0"/>
        <pt x="577" y="0" on="1"/>
        <pt x="83" y="0" on="1"/>
        <pt x="76" y="0" on="0"/>
        <pt x="76" y="3" on="0"/>
        <pt x="75" y="3" on="1"/>
        <pt x="72" y="7" on="1"/>
        <pt x="72" y="9" on="0"/>
        <pt x="71" y="9" on="1"/>
        <pt x="71" y="14" on="1"/>
        <pt x="71" y="16" on="0"/>
        <pt x="72" y="17" on="1"/>
        <pt x="74" y="21" on="1"/>
        <pt x="667" y="674" on="1"/>
        <pt x="202" y="674" on="1"/>
        <pt x="190" y="674" on="0"/>
        <pt x="190" y="700" on="0"/>
        <pt x="202" y="700" on="1"/>
        <pt x="695" y="700" on="1"/>
        <pt x="697" y="700" on="0"/>
        <pt x="697" y="699" on="1"/>
        <pt x="700" y="699" on="1"/>
        <pt x="704" y="697" on="1"/>
      </contour>
    </TTGlyph>
    <TTGlyph name="a" xMin="40" yMin="2" xMax="543" yMax="488">
      <contour>
        <pt x="232" y="2" on="1"/>
        <pt x="147" y="2" on="0"/>
        <pt x="94" y="61" on="1"/>
        <pt x="40" y="117" on="0"/>
        <pt x="40" y="202" on="1"/>
        <pt x="40" y="227" on="0"/>
        <pt x="44" y="248" on="1"/>
        <pt x="62" y="348" on="0"/>
        <pt x="219" y="488" on="0"/>
        <pt x="314" y="488" on="1"/>
        <pt x="398" y="490" on="0"/>
        <pt x="453" y="430" on="1"/>
        <pt x="483" y="399" on="0"/>
        <pt x="496" y="354" on="1"/>
        <pt x="519" y="478" on="1"/>
        <pt x="521" y="491" on="0"/>
        <pt x="533" y="488" on="1"/>
        <pt x="545" y="486" on="0"/>
        <pt x="543" y="474" on="1"/>
        <pt x="462" y="13" on="1"/>
        <pt x="460" y="3" on="0"/>
        <pt x="450" y="3" on="1"/>
        <pt x="448" y="3" on="1"/>
        <pt x="435" y="5" on="0"/>
        <pt x="438" y="17" on="1"/>
        <pt x="458" y="133" on="1"/>
        <pt x="419" y="74" on="0"/>
        <pt x="298" y="3" on="0"/>
      </contour>
      <contour>
        <pt x="69" y="243" on="1"/>
        <pt x="65" y="224" on="0"/>
        <pt x="65" y="202" on="1"/>
        <pt x="66" y="126" on="0"/>
        <pt x="158" y="28" on="0"/>
        <pt x="317" y="27" on="0"/>
        <pt x="390" y="92" on="1"/>
        <pt x="481" y="174" on="0"/>
        <pt x="481" y="289" on="1"/>
        <pt x="481" y="365" on="0"/>
        <pt x="388" y="463" on="0"/>
        <pt x="314" y="463" on="1"/>
        <pt x="313" y="463" on="1"/>
        <pt x="229" y="463" on="0"/>
        <pt x="85" y="334" on="0"/>
      </contour>
    </TTGlyph>
    <TTGlyph name="aacute" xMin="63" yMin="2" xMax="566" yMax="723">
      <contour>
        <pt x="255" y="2" on="1"/>
        <pt x="170" y="2" on="0"/>
        <pt x="117" y="61" on="1"/>
        <pt x="63" y="117" on="0"/>
        <pt x="63" y="202" on="1"/>
        <pt x="63" y="227" on="0"/>
        <pt x="67" y="248" on="1"/>
        <pt x="85" y="348" on="0"/>
        <pt x="242" y="488" on="0"/>
        <pt x="337" y="488" on="1"/>
        <pt x="421" y="490" on="0"/>
        <pt x="476" y="430" on="1"/>
        <pt x="506" y="399" on="0"/>
        <pt x="519" y="354" on="1"/>
        <pt x="542" y="478" on="1"/>
        <pt x="544" y="491" on="0"/>
        <pt x="556" y="488" on="1"/>
        <pt x="568" y="486" on="0"/>
        <pt x="566" y="474" on="1"/>
        <pt x="485" y="13" on="1"/>
        <pt x="483" y="3" on="0"/>
        <pt x="473" y="3" on="1"/>
        <pt x="471" y="3" on="1"/>
        <pt x="458" y="5" on="0"/>
        <pt x="461" y="17" on="1"/>
        <pt x="481" y="133" on="1"/>
        <pt x="442" y="74" on="0"/>
        <pt x="321" y="3" on="0"/>
      </contour>
      <contour>
        <pt x="92" y="243" on="1"/>
        <pt x="88" y="224" on="0"/>
        <pt x="88" y="202" on="1"/>
        <pt x="89" y="126" on="0"/>
        <pt x="181" y="28" on="0"/>
        <pt x="340" y="27" on="0"/>
        <pt x="412" y="92" on="1"/>
        <pt x="504" y="174" on="0"/>
        <pt x="504" y="289" on="1"/>
        <pt x="504" y="365" on="0"/>
        <pt x="411" y="463" on="0"/>
        <pt x="337" y="463" on="1"/>
        <pt x="336" y="463" on="1"/>
        <pt x="252" y="463" on="0"/>
        <pt x="108" y="334" on="0"/>
      </contour>
      <contour>
        <pt x="314" y="613" on="1"/>
        <pt x="306" y="604" on="0"/>
        <pt x="283" y="594" on="0"/>
        <pt x="283" y="606" on="0"/>
        <pt x="287" y="612" on="1"/>
        <pt x="349" y="705" on="1"/>
        <pt x="361" y="723" on="0"/>
        <pt x="386" y="723" on="0"/>
        <pt x="395" y="717" on="0"/>
        <pt x="395" y="708" on="1"/>
        <pt x="398" y="703" on="0"/>
        <pt x="385" y="690" on="1"/>
      </contour>
    </TTGlyph>
    <TTGlyph name="acircumflex" xMin="63" yMin="2" xMax="566" yMax="720">
      <contour>
        <pt x="255" y="2" on="1"/>
        <pt x="170" y="2" on="0"/>
        <pt x="117" y="61" on="1"/>
        <pt x="63" y="117" on="0"/>
        <pt x="63" y="202" on="1"/>
        <pt x="63" y="227" on="0"/>
        <pt x="67" y="248" on="1"/>
        <pt x="85" y="348" on="0"/>
        <pt x="242" y="488" on="0"/>
        <pt x="337" y="488" on="1"/>
        <pt x="421" y="490" on="0"/>
        <pt x="476" y="430" on="1"/>
        <pt x="506" y="399" on="0"/>
        <pt x="519" y="354" on="1"/>
        <pt x="542" y="478" on="1"/>
        <pt x="544" y="491" on="0"/>
        <pt x="556" y="488" on="1"/>
        <pt x="568" y="486" on="0"/>
        <pt x="566" y="474" on="1"/>
        <pt x="485" y="13" on="1"/>
        <pt x="483" y="3" on="0"/>
        <pt x="473" y="3" on="1"/>
        <pt x="471" y="3" on="1"/>
        <pt x="458" y="5" on="0"/>
        <pt x="461" y="17" on="1"/>
        <pt x="481" y="133" on="1"/>
        <pt x="442" y="74" on="0"/>
        <pt x="321" y="3" on="0"/>
      </contour>
      <contour>
        <pt x="92" y="243" on="1"/>
        <pt x="88" y="224" on="0"/>
        <pt x="88" y="202" on="1"/>
        <pt x="89" y="126" on="0"/>
        <pt x="181" y="28" on="0"/>
        <pt x="340" y="27" on="0"/>
        <pt x="412" y="92" on="1"/>
        <pt x="504" y="174" on="0"/>
        <pt x="504" y="289" on="1"/>
        <pt x="504" y="365" on="0"/>
        <pt x="411" y="463" on="0"/>
        <pt x="337" y="463" on="1"/>
        <pt x="336" y="463" on="1"/>
        <pt x="252" y="463" on="0"/>
        <pt x="108" y="334" on="0"/>
      </contour>
      <contour>
        <pt x="410" y="694" on="1"/>
        <pt x="325" y="618" on="1"/>
        <pt x="303" y="600" on="0"/>
        <pt x="296" y="600" on="1"/>
        <pt x="282" y="602" on="0"/>
        <pt x="282" y="602" on="1"/>
        <pt x="283" y="607" on="0"/>
        <pt x="290" y="614" on="1"/>
        <pt x="381" y="702" on="1"/>
        <pt x="401" y="720" on="0"/>
        <pt x="413" y="720" on="1"/>
        <pt x="421" y="720" on="1"/>
        <pt x="435" y="720" on="0"/>
        <pt x="445" y="702" on="1"/>
        <pt x="498" y="614" on="1"/>
        <pt x="502" y="608" on="0"/>
        <pt x="499" y="598" on="0"/>
        <pt x="490" y="600" on="0"/>
        <pt x="483" y="600" on="0"/>
        <pt x="475" y="605" on="0"/>
        <pt x="471" y="609" on="0"/>
        <pt x="465" y="618" on="0"/>
        <pt x="464" y="619" on="1"/>
      </contour>
    </TTGlyph>
    <TTGlyph name="acute" xMin="201" yMin="599" xMax="313" yMax="723">
      <contour>
        <pt x="232" y="613" on="1"/>
        <pt x="224" y="604" on="0"/>
        <pt x="201" y="594" on="0"/>
        <pt x="201" y="606" on="0"/>
        <pt x="205" y="612" on="1"/>
        <pt x="267" y="705" on="1"/>
        <pt x="279" y="723" on="0"/>
        <pt x="304" y="723" on="0"/>
        <pt x="313" y="717" on="0"/>
        <pt x="313" y="708" on="1"/>
        <pt x="316" y="703" on="0"/>
        <pt x="303" y="690" on="1"/>
      </contour>
    </TTGlyph>
    <TTGlyph name="adieresis" xMin="63" yMin="2" xMax="566" yMax="671">
      <contour>
        <pt x="255" y="2" on="1"/>
        <pt x="170" y="2" on="0"/>
        <pt x="117" y="61" on="1"/>
        <pt x="63" y="117" on="0"/>
        <pt x="63" y="202" on="1"/>
        <pt x="63" y="227" on="0"/>
        <pt x="67" y="248" on="1"/>
        <pt x="85" y="348" on="0"/>
        <pt x="242" y="488" on="0"/>
        <pt x="337" y="488" on="1"/>
        <pt x="421" y="490" on="0"/>
        <pt x="476" y="430" on="1"/>
        <pt x="506" y="399" on="0"/>
        <pt x="519" y="354" on="1"/>
        <pt x="542" y="478" on="1"/>
        <pt x="544" y="491" on="0"/>
        <pt x="556" y="488" on="1"/>
        <pt x="568" y="486" on="0"/>
        <pt x="566" y="474" on="1"/>
        <pt x="485" y="13" on="1"/>
        <pt x="483" y="3" on="0"/>
        <pt x="473" y="3" on="1"/>
        <pt x="471" y="3" on="1"/>
        <pt x="458" y="5" on="0"/>
        <pt x="461" y="17" on="1"/>
        <pt x="481" y="133" on="1"/>
        <pt x="442" y="74" on="0"/>
        <pt x="321" y="3" on="0"/>
      </contour>
      <contour>
        <pt x="92" y="243" on="1"/>
        <pt x="88" y="224" on="0"/>
        <pt x="88" y="202" on="1"/>
        <pt x="89" y="126" on="0"/>
        <pt x="181" y="28" on="0"/>
        <pt x="340" y="27" on="0"/>
        <pt x="412" y="92" on="1"/>
        <pt x="504" y="174" on="0"/>
        <pt x="504" y="289" on="1"/>
        <pt x="504" y="365" on="0"/>
        <pt x="411" y="463" on="0"/>
        <pt x="337" y="463" on="1"/>
        <pt x="336" y="463" on="1"/>
        <pt x="252" y="463" on="0"/>
        <pt x="108" y="334" on="0"/>
      </contour>
      <contour>
        <pt x="269" y="623" on="0"/>
        <pt x="273" y="651" on="0"/>
        <pt x="294" y="671" on="0"/>
        <pt x="322" y="671" on="0"/>
        <pt x="340" y="651" on="0"/>
        <pt x="336" y="622" on="0"/>
        <pt x="315" y="603" on="0"/>
        <pt x="287" y="603" on="0"/>
      </contour>
      <contour>
        <pt x="451" y="623" on="0"/>
        <pt x="455" y="651" on="0"/>
        <pt x="476" y="671" on="0"/>
        <pt x="504" y="671" on="0"/>
        <pt x="522" y="651" on="0"/>
        <pt x="519" y="623" on="0"/>
        <pt x="497" y="603" on="0"/>
        <pt x="469" y="603" on="0"/>
      </contour>
    </TTGlyph>
    <TTGlyph name="ae" xMin="51" yMin="0" xMax="975" yMax="493">
      <contour>
        <pt x="975" y="288" on="1"/>
        <pt x="975" y="265" on="0"/>
        <pt x="973" y="257" on="1"/>
        <pt x="969" y="248" on="0"/>
        <pt x="961" y="248" on="1"/>
        <pt x="524" y="248" on="1"/>
        <pt x="519" y="238" on="0"/>
        <pt x="519" y="203" on="1"/>
        <pt x="519" y="126" on="0"/>
        <pt x="617" y="26" on="0"/>
        <pt x="694" y="26" on="1"/>
        <pt x="749" y="26" on="0"/>
        <pt x="853" y="80" on="0"/>
        <pt x="890" y="126" on="1"/>
        <pt x="897" y="135" on="0"/>
        <pt x="908" y="128" on="1"/>
        <pt x="917" y="119" on="0"/>
        <pt x="910" y="110" on="1"/>
        <pt x="821" y="2" on="0"/>
        <pt x="694" y="0" on="1"/>
        <pt x="606" y="0" on="0"/>
        <pt x="550" y="59" on="1"/>
        <pt x="512" y="97" on="0"/>
        <pt x="500" y="149" on="1"/>
        <pt x="476" y="13" on="1"/>
        <pt x="474" y="3" on="0"/>
        <pt x="464" y="3" on="1"/>
        <pt x="462" y="3" on="1"/>
        <pt x="449" y="5" on="0"/>
        <pt x="452" y="17" on="1"/>
        <pt x="472" y="134" on="1"/>
        <pt x="433" y="75" on="0"/>
        <pt x="312" y="3" on="0"/>
        <pt x="245" y="2" on="1"/>
        <pt x="159" y="2" on="0"/>
        <pt x="51" y="118" on="0"/>
        <pt x="51" y="204" on="1"/>
        <pt x="51" y="229" on="0"/>
        <pt x="55" y="250" on="1"/>
        <pt x="73" y="351" on="0"/>
        <pt x="231" y="492" on="0"/>
        <pt x="412" y="493" on="0"/>
        <pt x="467" y="434" on="1"/>
        <pt x="498" y="402" on="0"/>
        <pt x="511" y="357" on="1"/>
        <pt x="534" y="482" on="1"/>
        <pt x="536" y="495" on="0"/>
        <pt x="548" y="492" on="1"/>
        <pt x="560" y="490" on="0"/>
        <pt x="558" y="478" on="1"/>
        <pt x="534" y="345" on="1"/>
        <pt x="573" y="410" on="0"/>
        <pt x="704" y="490" on="0"/>
        <pt x="776" y="490" on="1"/>
        <pt x="863" y="491" on="0"/>
        <pt x="919" y="432" on="1"/>
        <pt x="975" y="376" on="0"/>
      </contour>
      <contour>
        <pt x="80" y="245" on="1"/>
        <pt x="76" y="226" on="0"/>
        <pt x="76" y="204" on="1"/>
        <pt x="77" y="127" on="0"/>
        <pt x="171" y="28" on="0"/>
        <pt x="331" y="27" on="0"/>
        <pt x="404" y="92" on="1"/>
        <pt x="496" y="175" on="0"/>
        <pt x="496" y="291" on="1"/>
        <pt x="496" y="368" on="0"/>
        <pt x="402" y="467" on="0"/>
        <pt x="327" y="467" on="1"/>
        <pt x="326" y="467" on="1"/>
        <pt x="241" y="467" on="0"/>
        <pt x="96" y="336" on="0"/>
      </contour>
      <contour>
        <pt x="950" y="365" on="0"/>
        <pt x="853" y="465" on="0"/>
        <pt x="696" y="466" on="0"/>
        <pt x="555" y="355" on="0"/>
        <pt x="530" y="273" on="1"/>
        <pt x="949" y="273" on="1"/>
        <pt x="950" y="278" on="0"/>
        <pt x="950" y="288" on="1"/>
      </contour>
    </TTGlyph>
    <TTGlyph name="agrave" xMin="63" yMin="2" xMax="566" yMax="723">
      <contour>
        <pt x="255" y="2" on="1"/>
        <pt x="170" y="2" on="0"/>
        <pt x="117" y="61" on="1"/>
        <pt x="63" y="117" on="0"/>
        <pt x="63" y="202" on="1"/>
        <pt x="63" y="227" on="0"/>
        <pt x="67" y="248" on="1"/>
        <pt x="85" y="348" on="0"/>
        <pt x="242" y="488" on="0"/>
        <pt x="337" y="488" on="1"/>
        <pt x="421" y="490" on="0"/>
        <pt x="476" y="430" on="1"/>
        <pt x="506" y="399" on="0"/>
        <pt x="519" y="354" on="1"/>
        <pt x="542" y="478" on="1"/>
        <pt x="544" y="491" on="0"/>
        <pt x="556" y="488" on="1"/>
        <pt x="568" y="486" on="0"/>
        <pt x="566" y="474" on="1"/>
        <pt x="485" y="13" on="1"/>
        <pt x="483" y="3" on="0"/>
        <pt x="473" y="3" on="1"/>
        <pt x="471" y="3" on="1"/>
        <pt x="458" y="5" on="0"/>
        <pt x="461" y="17" on="1"/>
        <pt x="481" y="133" on="1"/>
        <pt x="442" y="74" on="0"/>
        <pt x="321" y="3" on="0"/>
      </contour>
      <contour>
        <pt x="92" y="243" on="1"/>
        <pt x="88" y="224" on="0"/>
        <pt x="88" y="202" on="1"/>
        <pt x="89" y="126" on="0"/>
        <pt x="181" y="28" on="0"/>
        <pt x="340" y="27" on="0"/>
        <pt x="412" y="92" on="1"/>
        <pt x="504" y="174" on="0"/>
        <pt x="504" y="289" on="1"/>
        <pt x="504" y="365" on="0"/>
        <pt x="411" y="463" on="0"/>
        <pt x="337" y="463" on="1"/>
        <pt x="336" y="463" on="1"/>
        <pt x="252" y="463" on="0"/>
        <pt x="108" y="334" on="0"/>
      </contour>
      <contour>
        <pt x="441" y="612" on="1"/>
        <pt x="445" y="606" on="0"/>
        <pt x="445" y="594" on="0"/>
        <pt x="422" y="604" on="0"/>
        <pt x="414" y="613" on="1"/>
        <pt x="343" y="690" on="1"/>
        <pt x="330" y="703" on="0"/>
        <pt x="333" y="708" on="1"/>
        <pt x="333" y="723" on="0"/>
        <pt x="367" y="723" on="0"/>
        <pt x="379" y="705" on="1"/>
      </contour>
    </TTGlyph>
    <TTGlyph name="ampersand" xMin="49" yMin="2" xMax="589" yMax="702">
      <contour>
        <pt x="256" y="144" on="1"/>
        <pt x="243" y="144" on="0"/>
        <pt x="243" y="166" on="1"/>
        <pt x="243" y="214" on="0"/>
        <pt x="274" y="251" on="1"/>
        <pt x="326" y="310" on="0"/>
        <pt x="440" y="310" on="1"/>
        <pt x="451" y="310" on="0"/>
        <pt x="475" y="308" on="1"/>
        <pt x="481" y="308" on="1"/>
        <pt x="516" y="309" on="0"/>
        <pt x="563" y="348" on="0"/>
        <pt x="564" y="393" on="1"/>
        <pt x="564" y="401" on="1"/>
        <pt x="564" y="413" on="0"/>
        <pt x="572" y="414" on="1"/>
        <pt x="589" y="416" on="0"/>
        <pt x="589" y="403" on="1"/>
        <pt x="589" y="393" on="1"/>
        <pt x="590" y="338" on="0"/>
        <pt x="554" y="307" on="1"/>
        <pt x="533" y="290" on="0"/>
        <pt x="503" y="285" on="1"/>
        <pt x="505" y="271" on="0"/>
        <pt x="505" y="251" on="0"/>
        <pt x="501" y="225" on="1"/>
        <pt x="485" y="132" on="0"/>
        <pt x="332" y="3" on="0"/>
        <pt x="158" y="2" on="0"/>
        <pt x="102" y="56" on="1"/>
        <pt x="49" y="111" on="0"/>
        <pt x="49" y="272" on="0"/>
        <pt x="102" y="341" on="1"/>
        <pt x="141" y="392" on="0"/>
        <pt x="198" y="422" on="1"/>
        <pt x="163" y="460" on="0"/>
        <pt x="163" y="514" on="1"/>
        <pt x="163" y="524" on="0"/>
        <pt x="165" y="542" on="1"/>
        <pt x="178" y="609" on="0"/>
        <pt x="287" y="702" on="0"/>
        <pt x="414" y="702" on="0"/>
        <pt x="453" y="663" on="1"/>
        <pt x="492" y="626" on="0"/>
        <pt x="492" y="566" on="1"/>
        <pt x="492" y="553" on="0"/>
        <pt x="487" y="526" on="0"/>
        <pt x="462" y="530" on="0"/>
        <pt x="466" y="551" on="0"/>
        <pt x="466" y="566" on="1"/>
        <pt x="466" y="614" on="0"/>
        <pt x="404" y="677" on="0"/>
        <pt x="297" y="677" on="0"/>
        <pt x="248" y="636" on="1"/>
        <pt x="188" y="585" on="0"/>
        <pt x="188" y="514" on="1"/>
        <pt x="188" y="461" on="0"/>
        <pt x="227" y="428" on="1"/>
        <pt x="238" y="421" on="0"/>
        <pt x="229" y="410" on="1"/>
        <pt x="228" y="410" on="1"/>
        <pt x="224" y="406" on="1"/>
        <pt x="168" y="382" on="0"/>
        <pt x="128" y="333" on="1"/>
        <pt x="74" y="268" on="0"/>
        <pt x="75" y="119" on="0"/>
        <pt x="166" y="28" on="0"/>
        <pt x="322" y="27" on="0"/>
        <pt x="392" y="86" on="1"/>
        <pt x="479" y="160" on="0"/>
        <pt x="479" y="264" on="1"/>
        <pt x="479" y="277" on="0"/>
        <pt x="478" y="283" on="1"/>
        <pt x="473" y="283" on="1"/>
        <pt x="462" y="284" on="0"/>
        <pt x="440" y="284" on="1"/>
        <pt x="335" y="284" on="0"/>
        <pt x="294" y="235" on="1"/>
        <pt x="269" y="205" on="0"/>
        <pt x="269" y="166" on="1"/>
        <pt x="269" y="158" on="1"/>
        <pt x="271" y="146" on="0"/>
        <pt x="258" y="144" on="1"/>
      </contour>
    </TTGlyph>
    <TTGlyph name="aring" xMin="51" yMin="2" xMax="554" yMax="711">
      <contour>
        <pt x="397" y="711" on="0"/>
        <pt x="463" y="711" on="0"/>
        <pt x="503" y="666" on="0"/>
        <pt x="497" y="633" on="1"/>
        <pt x="497" y="632" on="1"/>
        <pt x="492" y="599" on="0"/>
        <pt x="437" y="552" on="0"/>
        <pt x="368" y="552" on="0"/>
        <pt x="330" y="599" on="0"/>
        <pt x="335" y="632" on="1"/>
        <pt x="335" y="633" on="1"/>
        <pt x="342" y="668" on="0"/>
      </contour>
      <contour>
        <pt x="473" y="632" on="1"/>
        <pt x="477" y="654" on="0"/>
        <pt x="450" y="689" on="0"/>
        <pt x="402" y="689" on="0"/>
        <pt x="363" y="654" on="0"/>
        <pt x="359" y="632" on="1"/>
        <pt x="359" y="631" on="1"/>
        <pt x="355" y="609" on="0"/>
        <pt x="382" y="574" on="0"/>
        <pt x="430" y="574" on="0"/>
        <pt x="469" y="609" on="0"/>
        <pt x="473" y="631" on="1"/>
      </contour>
      <contour>
        <pt x="243" y="2" on="1"/>
        <pt x="158" y="2" on="0"/>
        <pt x="105" y="61" on="1"/>
        <pt x="51" y="117" on="0"/>
        <pt x="51" y="202" on="1"/>
        <pt x="51" y="227" on="0"/>
        <pt x="55" y="248" on="1"/>
        <pt x="73" y="348" on="0"/>
        <pt x="230" y="488" on="0"/>
        <pt x="325" y="488" on="1"/>
        <pt x="409" y="490" on="0"/>
        <pt x="464" y="430" on="1"/>
        <pt x="494" y="399" on="0"/>
        <pt x="507" y="354" on="1"/>
        <pt x="530" y="478" on="1"/>
        <pt x="532" y="491" on="0"/>
        <pt x="544" y="488" on="1"/>
        <pt x="556" y="486" on="0"/>
        <pt x="554" y="474" on="1"/>
        <pt x="473" y="13" on="1"/>
        <pt x="471" y="3" on="0"/>
        <pt x="461" y="3" on="1"/>
        <pt x="459" y="3" on="1"/>
        <pt x="446" y="5" on="0"/>
        <pt x="449" y="17" on="1"/>
        <pt x="469" y="133" on="1"/>
        <pt x="430" y="74" on="0"/>
        <pt x="309" y="3" on="0"/>
      </contour>
      <contour>
        <pt x="80" y="243" on="1"/>
        <pt x="76" y="224" on="0"/>
        <pt x="76" y="202" on="1"/>
        <pt x="77" y="126" on="0"/>
        <pt x="169" y="28" on="0"/>
        <pt x="328" y="27" on="0"/>
        <pt x="400" y="92" on="1"/>
        <pt x="492" y="174" on="0"/>
        <pt x="492" y="289" on="1"/>
        <pt x="492" y="365" on="0"/>
        <pt x="399" y="463" on="0"/>
        <pt x="325" y="463" on="1"/>
        <pt x="324" y="463" on="1"/>
        <pt x="240" y="463" on="0"/>
        <pt x="96" y="334" on="0"/>
      </contour>
    </TTGlyph>
    <TTGlyph name="asciitilde" xMin="85" yMin="241" xMax="374" yMax="350">
      <contour>
        <pt x="117" y="253" on="1"/>
        <pt x="111" y="241" on="0"/>
        <pt x="101" y="241" on="1"/>
        <pt x="85" y="241" on="0"/>
        <pt x="85" y="254" on="1"/>
        <pt x="85" y="256" on="0"/>
        <pt x="96" y="291" on="0"/>
        <pt x="144" y="328" on="0"/>
        <pt x="184" y="328" on="0"/>
        <pt x="276" y="290" on="0"/>
        <pt x="293" y="290" on="1"/>
        <pt x="324" y="290" on="0"/>
        <pt x="343" y="333" on="1"/>
        <pt x="343" y="341" on="0"/>
        <pt x="352" y="350" on="0"/>
        <pt x="356" y="350" on="1"/>
        <pt x="374" y="350" on="0"/>
        <pt x="374" y="333" on="1"/>
        <pt x="374" y="327" on="0"/>
        <pt x="372" y="321" on="1"/>
        <pt x="350" y="253" on="0"/>
        <pt x="293" y="253" on="1"/>
        <pt x="275" y="253" on="0"/>
        <pt x="183" y="292" on="0"/>
        <pt x="165" y="292" on="1"/>
        <pt x="134" y="292" on="0"/>
      </contour>
    </TTGlyph>
    <TTGlyph name="asterisk" xMin="79" yMin="30" xMax="399" yMax="350">
      <contour>
        <pt x="315" y="79" on="1"/>
        <pt x="247" y="157" on="1"/>
        <pt x="229" y="45" on="1"/>
        <pt x="227" y="30" on="0"/>
        <pt x="198" y="30" on="0"/>
        <pt x="200" y="45" on="1"/>
        <pt x="218" y="158" on="1"/>
        <pt x="127" y="79" on="1"/>
        <pt x="119" y="74" on="0"/>
        <pt x="108" y="74" on="0"/>
        <pt x="108" y="79" on="1"/>
        <pt x="97" y="87" on="0"/>
        <pt x="110" y="98" on="1"/>
        <pt x="200" y="176" on="1"/>
        <pt x="90" y="176" on="1"/>
        <pt x="83" y="176" on="0"/>
        <pt x="77" y="185" on="0"/>
        <pt x="79" y="191" on="1"/>
        <pt x="79" y="205" on="0"/>
        <pt x="95" y="205" on="1"/>
        <pt x="207" y="205" on="1"/>
        <pt x="140" y="284" on="1"/>
        <pt x="130" y="294" on="0"/>
        <pt x="144" y="304" on="1"/>
        <pt x="154" y="313" on="0"/>
        <pt x="163" y="304" on="1"/>
        <pt x="229" y="225" on="1"/>
        <pt x="247" y="336" on="1"/>
        <pt x="249" y="350" on="0"/>
        <pt x="278" y="350" on="0"/>
        <pt x="276" y="336" on="1"/>
        <pt x="258" y="225" on="1"/>
        <pt x="351" y="304" on="1"/>
        <pt x="361" y="312" on="0"/>
        <pt x="371" y="304" on="1"/>
        <pt x="375" y="293" on="0"/>
        <pt x="367" y="284" on="1"/>
        <pt x="274" y="205" on="1"/>
        <pt x="386" y="205" on="1"/>
        <pt x="399" y="205" on="0"/>
        <pt x="399" y="191" on="1"/>
        <pt x="393" y="176" on="0"/>
        <pt x="381" y="176" on="1"/>
        <pt x="270" y="176" on="1"/>
        <pt x="337" y="98" on="1"/>
        <pt x="345" y="87" on="0"/>
        <pt x="335" y="79" on="1"/>
        <pt x="327" y="74" on="0"/>
        <pt x="315" y="74" on="0"/>
      </contour>
    </TTGlyph>
    <TTGlyph name="at" xMin="87" yMin="0" xMax="787" yMax="700">
      <contour>
        <pt x="499" y="700" on="1"/>
        <pt x="644" y="700" on="0"/>
        <pt x="813" y="495" on="0"/>
        <pt x="787" y="350" on="1"/>
        <pt x="771" y="258" on="0"/>
        <pt x="718" y="188" on="1"/>
        <pt x="698" y="160" on="0"/>
        <pt x="682" y="150" on="1"/>
        <pt x="633" y="117" on="0"/>
        <pt x="573" y="117" on="0"/>
        <pt x="551" y="159" on="0"/>
        <pt x="554" y="181" on="1"/>
        <pt x="554" y="182" on="1"/>
        <pt x="567" y="256" on="1"/>
        <pt x="537" y="216" on="0"/>
        <pt x="451" y="169" on="0"/>
        <pt x="405" y="169" on="1"/>
        <pt x="334" y="169" on="0"/>
        <pt x="253" y="275" on="0"/>
        <pt x="266" y="350" on="1"/>
        <pt x="280" y="425" on="0"/>
        <pt x="398" y="531" on="0"/>
        <pt x="541" y="531" on="0"/>
        <pt x="622" y="425" on="0"/>
        <pt x="609" y="350" on="1"/>
        <pt x="607" y="344" on="0"/>
        <pt x="607" y="340" on="1"/>
        <pt x="607" y="338" on="1"/>
        <pt x="579" y="184" on="1"/>
        <pt x="580" y="184" on="1"/>
        <pt x="576" y="168" on="0"/>
        <pt x="592" y="143" on="0"/>
        <pt x="604" y="143" on="1"/>
        <pt x="652" y="143" on="0"/>
        <pt x="694" y="195" on="1"/>
        <pt x="700" y="202" on="1"/>
        <pt x="749" y="271" on="0"/>
        <pt x="762" y="350" on="1"/>
        <pt x="785" y="484" on="0"/>
        <pt x="629" y="674" on="0"/>
        <pt x="495" y="675" on="1"/>
        <pt x="360" y="674" on="0"/>
        <pt x="137" y="484" on="0"/>
        <pt x="89" y="216" on="0"/>
        <pt x="246" y="26" on="0"/>
        <pt x="380" y="25" on="1"/>
        <pt x="417" y="25" on="0"/>
        <pt x="462" y="35" on="1"/>
        <pt x="474" y="38" on="0"/>
        <pt x="476" y="26" on="1"/>
        <pt x="476" y="14" on="0"/>
        <pt x="464" y="11" on="1"/>
        <pt x="418" y="0" on="0"/>
        <pt x="376" y="0" on="1"/>
        <pt x="231" y="0" on="0"/>
        <pt x="61" y="205" on="0"/>
        <pt x="87" y="350" on="1"/>
        <pt x="104" y="445" on="0"/>
        <pt x="226" y="606" on="0"/>
        <pt x="404" y="700" on="0"/>
      </contour>
      <contour>
        <pt x="350" y="194" on="0"/>
        <pt x="470" y="194" on="0"/>
        <pt x="572" y="285" on="0"/>
        <pt x="583" y="350" on="1"/>
        <pt x="595" y="415" on="0"/>
        <pt x="525" y="506" on="0"/>
        <pt x="405" y="506" on="0"/>
        <pt x="303" y="415" on="0"/>
        <pt x="280" y="285" on="0"/>
      </contour>
    </TTGlyph>
    <TTGlyph name="atilde" xMin="63" yMin="2" xMax="566" yMax="699">
      <contour>
        <pt x="255" y="2" on="1"/>
        <pt x="170" y="2" on="0"/>
        <pt x="117" y="61" on="1"/>
        <pt x="63" y="117" on="0"/>
        <pt x="63" y="202" on="1"/>
        <pt x="63" y="227" on="0"/>
        <pt x="67" y="248" on="1"/>
        <pt x="85" y="348" on="0"/>
        <pt x="242" y="488" on="0"/>
        <pt x="337" y="488" on="1"/>
        <pt x="421" y="490" on="0"/>
        <pt x="476" y="430" on="1"/>
        <pt x="506" y="399" on="0"/>
        <pt x="519" y="354" on="1"/>
        <pt x="542" y="478" on="1"/>
        <pt x="544" y="491" on="0"/>
        <pt x="556" y="488" on="1"/>
        <pt x="568" y="486" on="0"/>
        <pt x="566" y="474" on="1"/>
        <pt x="485" y="13" on="1"/>
        <pt x="483" y="3" on="0"/>
        <pt x="473" y="3" on="1"/>
        <pt x="471" y="3" on="1"/>
        <pt x="458" y="5" on="0"/>
        <pt x="461" y="17" on="1"/>
        <pt x="481" y="133" on="1"/>
        <pt x="442" y="74" on="0"/>
        <pt x="321" y="3" on="0"/>
      </contour>
      <contour>
        <pt x="92" y="243" on="1"/>
        <pt x="88" y="224" on="0"/>
        <pt x="88" y="202" on="1"/>
        <pt x="89" y="126" on="0"/>
        <pt x="181" y="28" on="0"/>
        <pt x="340" y="27" on="0"/>
        <pt x="412" y="92" on="1"/>
        <pt x="504" y="174" on="0"/>
        <pt x="504" y="289" on="1"/>
        <pt x="504" y="365" on="0"/>
        <pt x="411" y="463" on="0"/>
        <pt x="337" y="463" on="1"/>
        <pt x="336" y="463" on="1"/>
        <pt x="252" y="463" on="0"/>
        <pt x="108" y="334" on="0"/>
      </contour>
      <contour>
        <pt x="283" y="602" on="1"/>
        <pt x="277" y="590" on="0"/>
        <pt x="267" y="590" on="1"/>
        <pt x="251" y="590" on="0"/>
        <pt x="251" y="603" on="1"/>
        <pt x="251" y="605" on="0"/>
        <pt x="262" y="640" on="0"/>
        <pt x="310" y="677" on="0"/>
        <pt x="350" y="677" on="0"/>
        <pt x="442" y="639" on="0"/>
        <pt x="459" y="639" on="1"/>
        <pt x="490" y="639" on="0"/>
        <pt x="509" y="682" on="1"/>
        <pt x="509" y="690" on="0"/>
        <pt x="518" y="699" on="0"/>
        <pt x="522" y="699" on="1"/>
        <pt x="540" y="699" on="0"/>
        <pt x="540" y="682" on="1"/>
        <pt x="540" y="676" on="0"/>
        <pt x="538" y="670" on="1"/>
        <pt x="516" y="602" on="0"/>
        <pt x="459" y="602" on="1"/>
        <pt x="441" y="602" on="0"/>
        <pt x="349" y="641" on="0"/>
        <pt x="331" y="641" on="1"/>
        <pt x="300" y="641" on="0"/>
      </contour>
    </TTGlyph>
    <TTGlyph name="b" xMin="95" yMin="-1" xMax="613" yMax="700">
      <contour>
        <pt x="105" y="0" on="1"/>
        <pt x="92" y="2" on="0"/>
        <pt x="95" y="14" on="1"/>
        <pt x="135" y="246" on="1"/>
        <pt x="215" y="690" on="1"/>
        <pt x="218" y="702" on="0"/>
        <pt x="243" y="698" on="0"/>
        <pt x="240" y="686" on="1"/>
        <pt x="181" y="357" on="1"/>
        <pt x="222" y="417" on="0"/>
        <pt x="345" y="489" on="0"/>
        <pt x="413" y="490" on="1"/>
        <pt x="500" y="490" on="0"/>
        <pt x="557" y="430" on="1"/>
        <pt x="613" y="374" on="0"/>
        <pt x="613" y="287" on="1"/>
        <pt x="613" y="271" on="0"/>
        <pt x="609" y="241" on="1"/>
        <pt x="596" y="244" on="1"/>
        <pt x="609" y="241" on="1"/>
        <pt x="591" y="141" on="0"/>
        <pt x="430" y="0" on="0"/>
        <pt x="244" y="-1" on="0"/>
        <pt x="188" y="58" on="1"/>
        <pt x="157" y="89" on="0"/>
        <pt x="141" y="135" on="1"/>
        <pt x="119" y="10" on="1"/>
        <pt x="117" y="0" on="0"/>
        <pt x="107" y="0" on="1"/>
      </contour>
      <contour>
        <pt x="412" y="463" on="1"/>
        <pt x="325" y="463" on="0"/>
        <pt x="177" y="333" on="0"/>
        <pt x="161" y="241" on="1"/>
        <pt x="157" y="224" on="0"/>
        <pt x="157" y="202" on="1"/>
        <pt x="158" y="125" on="0"/>
        <pt x="255" y="25" on="0"/>
        <pt x="418" y="24" on="0"/>
        <pt x="493" y="90" on="1"/>
        <pt x="587" y="172" on="0"/>
        <pt x="587" y="287" on="1"/>
        <pt x="587" y="363" on="0"/>
        <pt x="490" y="463" on="0"/>
        <pt x="413" y="463" on="1"/>
      </contour>
    </TTGlyph>
    <TTGlyph name="backslash" xMin="11" yMin="1" xMax="318" yMax="698">
      <contour>
        <pt x="312" y="2" on="1"/>
        <pt x="311" y="1" on="0"/>
        <pt x="298" y="1" on="0"/>
        <pt x="296" y="9" on="1"/>
        <pt x="11" y="682" on="1"/>
        <pt x="7" y="694" on="0"/>
        <pt x="19" y="698" on="1"/>
        <pt x="23" y="700" on="0"/>
        <pt x="33" y="696" on="0"/>
        <pt x="35" y="691" on="1"/>
        <pt x="318" y="19" on="1"/>
        <pt x="323" y="7" on="0"/>
      </contour>
    </TTGlyph>
    <TTGlyph name="bar" xMin="123" yMin="-134" xMax="309" yMax="800">
      <contour>
        <pt x="123" y="-112" on="1"/>
        <pt x="280" y="778" on="1"/>
        <pt x="284" y="793" on="0"/>
        <pt x="291" y="800" on="0"/>
        <pt x="297" y="800" on="1"/>
        <pt x="314" y="800" on="0"/>
        <pt x="309" y="778" on="1"/>
        <pt x="152" y="-112" on="1"/>
        <pt x="148" y="-134" on="0"/>
        <pt x="119" y="-134" on="0"/>
      </contour>
    </TTGlyph>
    <TTGlyph name="braceleft" xMin="57" yMin="-154" xMax="503" yMax="699">
      <contour>
        <pt x="333" y="-154" on="1"/>
        <pt x="218" y="-130" on="0"/>
        <pt x="152" y="-37" on="0"/>
        <pt x="167" y="47" on="1"/>
        <pt x="181" y="126" on="1"/>
        <pt x="192" y="190" on="0"/>
        <pt x="151" y="253" on="0"/>
        <pt x="78" y="253" on="1"/>
        <pt x="54" y="253" on="0"/>
        <pt x="60" y="291" on="0"/>
        <pt x="84" y="291" on="1"/>
        <pt x="157" y="291" on="0"/>
        <pt x="222" y="354" on="0"/>
        <pt x="233" y="418" on="1"/>
        <pt x="247" y="497" on="1"/>
        <pt x="257" y="553" on="0"/>
        <pt x="278" y="588" on="1"/>
        <pt x="323" y="668" on="0"/>
        <pt x="483" y="698" on="1"/>
        <pt x="490" y="699" on="0"/>
        <pt x="494" y="699" on="1"/>
        <pt x="505" y="699" on="0"/>
        <pt x="503" y="689" on="1"/>
        <pt x="501" y="680" on="0"/>
        <pt x="488" y="676" on="1"/>
        <pt x="378" y="648" on="0"/>
        <pt x="288" y="567" on="0"/>
        <pt x="275" y="491" on="1"/>
        <pt x="261" y="416" on="1"/>
        <pt x="250" y="353" on="0"/>
        <pt x="186" y="288" on="0"/>
        <pt x="132" y="272" on="1"/>
        <pt x="183" y="254" on="0"/>
        <pt x="222" y="191" on="0"/>
        <pt x="211" y="128" on="1"/>
        <pt x="197" y="53" on="1"/>
        <pt x="184" y="-24" on="0"/>
        <pt x="245" y="-104" on="0"/>
        <pt x="346" y="-132" on="1"/>
        <pt x="357" y="-137" on="0"/>
        <pt x="355" y="-146" on="1"/>
        <pt x="353" y="-158" on="0"/>
      </contour>
    </TTGlyph>
    <TTGlyph name="braceright" xMin="55" yMin="-156" xMax="501" yMax="697">
      <contour>
        <pt x="225" y="697" on="1"/>
        <pt x="340" y="673" on="0"/>
        <pt x="406" y="580" on="0"/>
        <pt x="391" y="496" on="1"/>
        <pt x="377" y="417" on="1"/>
        <pt x="366" y="353" on="0"/>
        <pt x="407" y="290" on="0"/>
        <pt x="480" y="290" on="1"/>
        <pt x="504" y="290" on="0"/>
        <pt x="498" y="252" on="0"/>
        <pt x="474" y="252" on="1"/>
        <pt x="401" y="252" on="0"/>
        <pt x="336" y="189" on="0"/>
        <pt x="325" y="125" on="1"/>
        <pt x="311" y="46" on="1"/>
        <pt x="301" y="-10" on="0"/>
        <pt x="280" y="-46" on="1"/>
        <pt x="235" y="-125" on="0"/>
        <pt x="75" y="-155" on="1"/>
        <pt x="68" y="-156" on="0"/>
        <pt x="64" y="-156" on="1"/>
        <pt x="53" y="-156" on="0"/>
        <pt x="55" y="-146" on="1"/>
        <pt x="57" y="-137" on="0"/>
        <pt x="70" y="-133" on="1"/>
        <pt x="180" y="-105" on="0"/>
        <pt x="270" y="-24" on="0"/>
        <pt x="283" y="52" on="1"/>
        <pt x="297" y="127" on="1"/>
        <pt x="308" y="190" on="0"/>
        <pt x="372" y="255" on="0"/>
        <pt x="426" y="271" on="1"/>
        <pt x="375" y="289" on="0"/>
        <pt x="336" y="352" on="0"/>
        <pt x="347" y="415" on="1"/>
        <pt x="361" y="490" on="1"/>
        <pt x="374" y="567" on="0"/>
        <pt x="313" y="647" on="0"/>
        <pt x="212" y="675" on="1"/>
        <pt x="201" y="680" on="0"/>
        <pt x="203" y="689" on="1"/>
        <pt x="205" y="701" on="0"/>
      </contour>
    </TTGlyph>
    <TTGlyph name="bracketleft" xMin="100" yMin="-130" xMax="516" yMax="700">
      <contour>
        <pt x="100" y="-104" on="1"/>
        <pt x="238" y="674" on="1"/>
        <pt x="239" y="684" on="0"/>
        <pt x="257" y="700" on="0"/>
        <pt x="268" y="700" on="1"/>
        <pt x="500" y="700" on="1"/>
        <pt x="518" y="700" on="0"/>
        <pt x="516" y="686" on="1"/>
        <pt x="514" y="676" on="0"/>
        <pt x="496" y="676" on="1"/>
        <pt x="263" y="676" on="1"/>
        <pt x="125" y="-106" on="1"/>
        <pt x="358" y="-106" on="1"/>
        <pt x="366" y="-106" on="0"/>
        <pt x="375" y="-112" on="0"/>
        <pt x="372" y="-130" on="0"/>
        <pt x="354" y="-130" on="1"/>
        <pt x="122" y="-130" on="1"/>
        <pt x="112" y="-130" on="0"/>
        <pt x="98" y="-115" on="0"/>
      </contour>
    </TTGlyph>
    <TTGlyph name="bracketright" xMin="56" yMin="-130" xMax="472" yMax="700">
      <contour>
        <pt x="472" y="674" on="1"/>
        <pt x="334" y="-104" on="1"/>
        <pt x="333" y="-114" on="0"/>
        <pt x="315" y="-130" on="0"/>
        <pt x="304" y="-130" on="1"/>
        <pt x="72" y="-130" on="1"/>
        <pt x="54" y="-130" on="0"/>
        <pt x="56" y="-116" on="1"/>
        <pt x="58" y="-106" on="0"/>
        <pt x="76" y="-106" on="1"/>
        <pt x="309" y="-106" on="1"/>
        <pt x="447" y="676" on="1"/>
        <pt x="214" y="676" on="1"/>
        <pt x="206" y="676" on="0"/>
        <pt x="197" y="682" on="0"/>
        <pt x="200" y="700" on="0"/>
        <pt x="218" y="700" on="1"/>
        <pt x="450" y="700" on="1"/>
        <pt x="460" y="700" on="0"/>
        <pt x="474" y="685" on="0"/>
      </contour>
    </TTGlyph>
    <TTGlyph name="c" xMin="58" yMin="-2" xMax="503" yMax="488">
      <contour>
        <pt x="58" y="204" on="1"/>
        <pt x="58" y="223" on="0"/>
        <pt x="61" y="246" on="1"/>
        <pt x="80" y="347" on="0"/>
        <pt x="250" y="488" on="0"/>
        <pt x="354" y="488" on="1"/>
        <pt x="440" y="489" on="0"/>
        <pt x="502" y="434" on="1"/>
        <pt x="512" y="426" on="0"/>
        <pt x="494" y="408" on="0"/>
        <pt x="485" y="416" on="1"/>
        <pt x="432" y="463" on="0"/>
        <pt x="354" y="463" on="1"/>
        <pt x="260" y="464" on="0"/>
        <pt x="181" y="398" on="1"/>
        <pt x="83" y="317" on="0"/>
        <pt x="83" y="204" on="1"/>
        <pt x="83" y="126" on="0"/>
        <pt x="189" y="24" on="0"/>
        <pt x="352" y="24" on="0"/>
        <pt x="422" y="72" on="1"/>
        <pt x="432" y="79" on="0"/>
        <pt x="440" y="69" on="1"/>
        <pt x="447" y="58" on="0"/>
        <pt x="436" y="51" on="1"/>
        <pt x="359" y="-2" on="0"/>
        <pt x="179" y="-2" on="0"/>
        <pt x="58" y="115" on="0"/>
      </contour>
    </TTGlyph>
    <TTGlyph name="ccedilla" xMin="58" yMin="-142" xMax="503" yMax="488">
      <contour>
        <pt x="58" y="204" on="1"/>
        <pt x="58" y="223" on="0"/>
        <pt x="61" y="246" on="1"/>
        <pt x="80" y="347" on="0"/>
        <pt x="250" y="488" on="0"/>
        <pt x="354" y="488" on="1"/>
        <pt x="440" y="489" on="0"/>
        <pt x="502" y="434" on="1"/>
        <pt x="512" y="426" on="0"/>
        <pt x="494" y="408" on="0"/>
        <pt x="485" y="416" on="1"/>
        <pt x="432" y="463" on="0"/>
        <pt x="354" y="463" on="1"/>
        <pt x="260" y="464" on="0"/>
        <pt x="181" y="398" on="1"/>
        <pt x="83" y="317" on="0"/>
        <pt x="83" y="204" on="1"/>
        <pt x="83" y="126" on="0"/>
        <pt x="189" y="24" on="0"/>
        <pt x="352" y="24" on="0"/>
        <pt x="422" y="72" on="1"/>
        <pt x="432" y="79" on="0"/>
        <pt x="440" y="69" on="1"/>
        <pt x="447" y="58" on="0"/>
        <pt x="436" y="51" on="1"/>
        <pt x="359" y="-2" on="0"/>
        <pt x="179" y="-2" on="0"/>
        <pt x="58" y="115" on="0"/>
      </contour>
      <contour>
        <pt x="424" y="10" on="1"/>
        <pt x="359" y="-122" on="1"/>
        <pt x="349" y="-142" on="0"/>
        <pt x="321" y="-142" on="0"/>
        <pt x="299" y="-126" on="0"/>
        <pt x="299" y="-112" on="0"/>
        <pt x="304" y="-103" on="1"/>
        <pt x="381" y="10" on="1"/>
      </contour>
    </TTGlyph>
    <TTGlyph name="cedilla" xMin="170" yMin="-142" xMax="295" yMax="10">
      <contour>
        <pt x="295" y="10" on="1"/>
        <pt x="230" y="-122" on="1"/>
        <pt x="220" y="-142" on="0"/>
        <pt x="192" y="-142" on="0"/>
        <pt x="170" y="-126" on="0"/>
        <pt x="170" y="-112" on="0"/>
        <pt x="175" y="-103" on="1"/>
        <pt x="252" y="10" on="1"/>
      </contour>
    </TTGlyph>
    <TTGlyph name="cent" xMin="62" yMin="0" xMax="507" yMax="654">
      <contour>
        <pt x="194" y="22" on="1"/>
        <pt x="209" y="91" on="1"/>
        <pt x="159" y="104" on="0"/>
        <pt x="122" y="141" on="1"/>
        <pt x="62" y="199" on="0"/>
        <pt x="62" y="288" on="1"/>
        <pt x="62" y="402" on="0"/>
        <pt x="152" y="488" on="1"/>
        <pt x="224" y="555" on="0"/>
        <pt x="317" y="569" on="1"/>
        <pt x="331" y="632" on="1"/>
        <pt x="336" y="654" on="0"/>
        <pt x="348" y="654" on="1"/>
        <pt x="366" y="654" on="0"/>
        <pt x="360" y="632" on="1"/>
        <pt x="346" y="572" on="1"/>
        <pt x="358" y="572" on="1"/>
        <pt x="444" y="573" on="0"/>
        <pt x="506" y="518" on="1"/>
        <pt x="516" y="510" on="0"/>
        <pt x="498" y="492" on="0"/>
        <pt x="489" y="500" on="1"/>
        <pt x="436" y="547" on="0"/>
        <pt x="358" y="547" on="1"/>
        <pt x="346" y="547" on="0"/>
        <pt x="341" y="546" on="1"/>
        <pt x="243" y="110" on="1"/>
        <pt x="263" y="108" on="0"/>
        <pt x="276" y="108" on="1"/>
        <pt x="356" y="108" on="0"/>
        <pt x="426" y="156" on="1"/>
        <pt x="436" y="163" on="0"/>
        <pt x="444" y="153" on="1"/>
        <pt x="451" y="142" on="0"/>
        <pt x="440" y="135" on="1"/>
        <pt x="363" y="82" on="0"/>
        <pt x="276" y="82" on="1"/>
        <pt x="255" y="82" on="0"/>
        <pt x="237" y="85" on="1"/>
        <pt x="223" y="22" on="1"/>
        <pt x="219" y="0" on="0"/>
        <pt x="190" y="0" on="0"/>
      </contour>
      <contour>
        <pt x="87" y="288" on="1"/>
        <pt x="87" y="226" on="0"/>
        <pt x="156" y="133" on="0"/>
        <pt x="215" y="116" on="1"/>
        <pt x="311" y="543" on="1"/>
        <pt x="229" y="527" on="0"/>
        <pt x="166" y="466" on="1"/>
        <pt x="87" y="388" on="0"/>
      </contour>
    </TTGlyph>
    <TTGlyph name="circumflex" xMin="142" yMin="599" xMax="361" yMax="720">
      <contour>
        <pt x="270" y="694" on="1"/>
        <pt x="185" y="618" on="1"/>
        <pt x="163" y="600" on="0"/>
        <pt x="156" y="600" on="1"/>
        <pt x="142" y="602" on="0"/>
        <pt x="142" y="602" on="1"/>
        <pt x="143" y="607" on="0"/>
        <pt x="150" y="614" on="1"/>
        <pt x="241" y="702" on="1"/>
        <pt x="261" y="720" on="0"/>
        <pt x="273" y="720" on="1"/>
        <pt x="281" y="720" on="1"/>
        <pt x="295" y="720" on="0"/>
        <pt x="305" y="702" on="1"/>
        <pt x="358" y="614" on="1"/>
        <pt x="362" y="608" on="0"/>
        <pt x="359" y="598" on="0"/>
        <pt x="350" y="600" on="0"/>
        <pt x="343" y="600" on="0"/>
        <pt x="335" y="605" on="0"/>
        <pt x="331" y="609" on="0"/>
        <pt x="325" y="618" on="0"/>
        <pt x="324" y="619" on="1"/>
      </contour>
    </TTGlyph>
    <TTGlyph name="colon" xMin="90" yMin="-1" xMax="256" yMax="599">
      <contour>
        <pt x="253" y="549" on="0"/>
        <pt x="228" y="528" on="0"/>
        <pt x="199" y="528" on="0"/>
        <pt x="182" y="549" on="0"/>
        <pt x="187" y="578" on="0"/>
        <pt x="211" y="599" on="0"/>
        <pt x="241" y="599" on="0"/>
        <pt x="258" y="578" on="0"/>
      </contour>
      <contour>
        <pt x="93" y="49" on="0"/>
        <pt x="118" y="70" on="0"/>
        <pt x="147" y="70" on="0"/>
        <pt x="165" y="49" on="0"/>
        <pt x="160" y="20" on="0"/>
        <pt x="135" y="-1" on="0"/>
        <pt x="106" y="-1" on="0"/>
        <pt x="88" y="20" on="0"/>
      </contour>
    </TTGlyph>
    <TTGlyph name="comma" xMin="54" yMin="-31" xMax="104" yMax="54">
      <contour>
        <pt x="57" y="-25" on="1"/>
        <pt x="54" y="-20" on="0"/>
        <pt x="62" y="-16" on="1"/>
        <pt x="80" y="-11" on="0"/>
        <pt x="85" y="4" on="1"/>
        <pt x="80" y="4" on="1"/>
        <pt x="69" y="4" on="0"/>
        <pt x="54" y="18" on="0"/>
        <pt x="54" y="38" on="0"/>
        <pt x="70" y="54" on="0"/>
        <pt x="98" y="54" on="0"/>
        <pt x="103" y="36" on="1"/>
        <pt x="103" y="34" on="0"/>
        <pt x="104" y="34" on="1"/>
        <pt x="104" y="24" on="1"/>
        <pt x="104" y="-21" on="0"/>
        <pt x="66" y="-31" on="1"/>
        <pt x="63" y="-31" on="1"/>
        <pt x="57" y="-31" on="0"/>
      </contour>
    </TTGlyph>
    <TTGlyph name="copyright" xMin="53" yMin="-12" xMax="777" yMax="712">
      <contour>
        <pt x="565" y="-12" on="0"/>
        <pt x="263" y="-12" on="0"/>
        <pt x="53" y="199" on="0"/>
        <pt x="53" y="348" on="1"/>
        <pt x="53" y="350" on="1"/>
        <pt x="53" y="499" on="0"/>
        <pt x="265" y="712" on="0"/>
        <pt x="567" y="712" on="0"/>
        <pt x="777" y="501" on="0"/>
        <pt x="777" y="352" on="1"/>
        <pt x="777" y="350" on="1"/>
        <pt x="777" y="201" on="0"/>
      </contour>
      <contour>
        <pt x="273" y="16" on="0"/>
        <pt x="555" y="16" on="0"/>
        <pt x="747" y="211" on="0"/>
        <pt x="747" y="350" on="1"/>
        <pt x="747" y="352" on="1"/>
        <pt x="747" y="490" on="0"/>
        <pt x="557" y="684" on="0"/>
        <pt x="275" y="684" on="0"/>
        <pt x="83" y="489" on="0"/>
        <pt x="83" y="350" on="1"/>
        <pt x="83" y="348" on="1"/>
        <pt x="83" y="210" on="0"/>
      </contour>
      <contour>
        <pt x="553" y="220" on="1"/>
        <pt x="491" y="166" on="0"/>
        <pt x="342" y="166" on="0"/>
        <pt x="237" y="276" on="0"/>
        <pt x="237" y="354" on="1"/>
        <pt x="237" y="356" on="1"/>
        <pt x="237" y="433" on="0"/>
        <pt x="343" y="545" on="0"/>
        <pt x="492" y="545" on="0"/>
        <pt x="549" y="495" on="1"/>
        <pt x="558" y="488" on="0"/>
        <pt x="558" y="468" on="0"/>
        <pt x="545" y="456" on="0"/>
        <pt x="529" y="456" on="0"/>
        <pt x="520" y="463" on="1"/>
        <pt x="471" y="505" on="0"/>
        <pt x="360" y="505" on="0"/>
        <pt x="281" y="418" on="0"/>
        <pt x="281" y="357" on="1"/>
        <pt x="281" y="355" on="1"/>
        <pt x="281" y="294" on="0"/>
        <pt x="362" y="206" on="0"/>
        <pt x="477" y="206" on="0"/>
        <pt x="526" y="250" on="1"/>
        <pt x="534" y="255" on="0"/>
        <pt x="548" y="255" on="0"/>
        <pt x="560" y="243" on="0"/>
        <pt x="560" y="225" on="0"/>
      </contour>
    </TTGlyph>
    <TTGlyph name="d" xMin="60" yMin="-3" xMax="620" yMax="700">
      <contour>
        <pt x="261" y="-3" on="1"/>
        <pt x="173" y="-3" on="0"/>
        <pt x="60" y="114" on="0"/>
        <pt x="60" y="201" on="1"/>
        <pt x="60" y="216" on="0"/>
        <pt x="64" y="246" on="1"/>
        <pt x="82" y="347" on="0"/>
        <pt x="245" y="489" on="0"/>
        <pt x="430" y="490" on="0"/>
        <pt x="487" y="430" on="1"/>
        <pt x="519" y="399" on="0"/>
        <pt x="533" y="353" on="1"/>
        <pt x="595" y="690" on="1"/>
        <pt x="597" y="702" on="0"/>
        <pt x="622" y="698" on="0"/>
        <pt x="620" y="686" on="1"/>
        <pt x="498" y="8" on="1"/>
        <pt x="496" y="-2" on="0"/>
        <pt x="486" y="-2" on="1"/>
        <pt x="483" y="-2" on="1"/>
        <pt x="471" y="0" on="0"/>
        <pt x="473" y="12" on="1"/>
        <pt x="493" y="130" on="1"/>
        <pt x="454" y="70" on="0"/>
        <pt x="329" y="-2" on="0"/>
      </contour>
      <contour>
        <pt x="180" y="398" on="1"/>
        <pt x="86" y="316" on="0"/>
        <pt x="86" y="201" on="1"/>
        <pt x="86" y="124" on="0"/>
        <pt x="184" y="23" on="0"/>
        <pt x="348" y="22" on="0"/>
        <pt x="497" y="154" on="0"/>
        <pt x="514" y="246" on="1"/>
        <pt x="518" y="263" on="0"/>
        <pt x="518" y="286" on="1"/>
        <pt x="517" y="363" on="0"/>
        <pt x="421" y="463" on="0"/>
        <pt x="255" y="464" on="0"/>
      </contour>
    </TTGlyph>
    <TTGlyph name="dieresis" xMin="133" yMin="603" xMax="383" yMax="671">
      <contour>
        <pt x="131" y="623" on="0"/>
        <pt x="135" y="651" on="0"/>
        <pt x="156" y="671" on="0"/>
        <pt x="184" y="671" on="0"/>
        <pt x="202" y="651" on="0"/>
        <pt x="198" y="622" on="0"/>
        <pt x="177" y="603" on="0"/>
        <pt x="149" y="603" on="0"/>
      </contour>
      <contour>
        <pt x="313" y="623" on="0"/>
        <pt x="317" y="651" on="0"/>
        <pt x="338" y="671" on="0"/>
        <pt x="366" y="671" on="0"/>
        <pt x="384" y="651" on="0"/>
        <pt x="381" y="623" on="0"/>
        <pt x="359" y="603" on="0"/>
        <pt x="331" y="603" on="0"/>
      </contour>
    </TTGlyph>
    <TTGlyph name="divide" xMin="68" yMin="111" xMax="560" yMax="593">
      <contour>
        <pt x="84" y="328" on="1"/>
        <pt x="528" y="328" on="1"/>
        <pt x="538" y="328" on="0"/>
        <pt x="557" y="342" on="0"/>
        <pt x="560" y="352" on="1"/>
        <pt x="564" y="362" on="0"/>
        <pt x="554" y="376" on="0"/>
        <pt x="544" y="376" on="1"/>
        <pt x="100" y="376" on="1"/>
        <pt x="90" y="376" on="0"/>
        <pt x="72" y="362" on="0"/>
        <pt x="65" y="342" on="0"/>
        <pt x="74" y="328" on="0"/>
      </contour>
      <contour>
        <pt x="347" y="569" on="0"/>
        <pt x="378" y="593" on="0"/>
        <pt x="411" y="593" on="0"/>
        <pt x="427" y="570" on="0"/>
        <pt x="422" y="553" on="1"/>
        <pt x="416" y="536" on="1"/>
        <pt x="411" y="520" on="0"/>
        <pt x="380" y="496" on="0"/>
        <pt x="347" y="496" on="0"/>
        <pt x="331" y="519" on="0"/>
        <pt x="336" y="536" on="1"/>
        <pt x="342" y="553" on="1"/>
      </contour>
      <contour>
        <pt x="218" y="184" on="0"/>
        <pt x="249" y="208" on="0"/>
        <pt x="282" y="208" on="0"/>
        <pt x="298" y="185" on="0"/>
        <pt x="293" y="168" on="1"/>
        <pt x="287" y="151" on="1"/>
        <pt x="281" y="134" on="0"/>
        <pt x="249" y="111" on="0"/>
        <pt x="216" y="111" on="0"/>
        <pt x="201" y="135" on="0"/>
        <pt x="207" y="151" on="1"/>
        <pt x="213" y="168" on="1"/>
      </contour>
    </TTGlyph>
    <TTGlyph name="e" xMin="58" yMin="0" xMax="538" yMax="490">
      <contour>
        <pt x="58" y="203" on="1"/>
        <pt x="58" y="228" on="0"/>
        <pt x="62" y="247" on="1"/>
        <pt x="80" y="348" on="0"/>
        <pt x="242" y="489" on="0"/>
        <pt x="426" y="490" on="0"/>
        <pt x="482" y="431" on="1"/>
        <pt x="538" y="375" on="0"/>
        <pt x="538" y="287" on="1"/>
        <pt x="538" y="264" on="0"/>
        <pt x="536" y="256" on="1"/>
        <pt x="532" y="247" on="0"/>
        <pt x="524" y="247" on="1"/>
        <pt x="88" y="247" on="1"/>
        <pt x="83" y="237" on="0"/>
        <pt x="83" y="203" on="1"/>
        <pt x="83" y="126" on="0"/>
        <pt x="181" y="26" on="0"/>
        <pt x="258" y="26" on="1"/>
        <pt x="312" y="26" on="0"/>
        <pt x="416" y="80" on="0"/>
        <pt x="453" y="126" on="1"/>
        <pt x="460" y="135" on="0"/>
        <pt x="471" y="128" on="1"/>
        <pt x="480" y="119" on="0"/>
        <pt x="473" y="110" on="1"/>
        <pt x="384" y="2" on="0"/>
        <pt x="258" y="0" on="1"/>
        <pt x="170" y="0" on="0"/>
        <pt x="114" y="59" on="1"/>
        <pt x="58" y="115" on="0"/>
      </contour>
      <contour>
        <pt x="513" y="364" on="0"/>
        <pt x="416" y="464" on="0"/>
        <pt x="259" y="465" on="0"/>
        <pt x="119" y="354" on="0"/>
        <pt x="94" y="272" on="1"/>
        <pt x="512" y="272" on="1"/>
        <pt x="513" y="277" on="0"/>
        <pt x="513" y="287" on="1"/>
      </contour>
    </TTGlyph>
    <TTGlyph name="eacute" xMin="61" yMin="0" xMax="541" yMax="723">
      <contour>
        <pt x="61" y="203" on="1"/>
        <pt x="61" y="228" on="0"/>
        <pt x="65" y="247" on="1"/>
        <pt x="83" y="348" on="0"/>
        <pt x="245" y="489" on="0"/>
        <pt x="429" y="490" on="0"/>
        <pt x="485" y="431" on="1"/>
        <pt x="541" y="375" on="0"/>
        <pt x="541" y="287" on="1"/>
        <pt x="541" y="264" on="0"/>
        <pt x="539" y="256" on="1"/>
        <pt x="535" y="247" on="0"/>
        <pt x="527" y="247" on="1"/>
        <pt x="91" y="247" on="1"/>
        <pt x="86" y="237" on="0"/>
        <pt x="86" y="203" on="1"/>
        <pt x="86" y="126" on="0"/>
        <pt x="184" y="26" on="0"/>
        <pt x="261" y="26" on="1"/>
        <pt x="315" y="26" on="0"/>
        <pt x="419" y="80" on="0"/>
        <pt x="456" y="126" on="1"/>
        <pt x="463" y="135" on="0"/>
        <pt x="474" y="128" on="1"/>
        <pt x="483" y="119" on="0"/>
        <pt x="476" y="110" on="1"/>
        <pt x="387" y="2" on="0"/>
        <pt x="261" y="0" on="1"/>
        <pt x="173" y="0" on="0"/>
        <pt x="117" y="59" on="1"/>
        <pt x="61" y="115" on="0"/>
      </contour>
      <contour>
        <pt x="516" y="364" on="0"/>
        <pt x="419" y="464" on="0"/>
        <pt x="262" y="465" on="0"/>
        <pt x="122" y="354" on="0"/>
        <pt x="97" y="272" on="1"/>
        <pt x="515" y="272" on="1"/>
        <pt x="516" y="277" on="0"/>
        <pt x="516" y="287" on="1"/>
      </contour>
      <contour>
        <pt x="311" y="613" on="1"/>
        <pt x="303" y="604" on="0"/>
        <pt x="280" y="594" on="0"/>
        <pt x="280" y="606" on="0"/>
        <pt x="284" y="612" on="1"/>
        <pt x="346" y="705" on="1"/>
        <pt x="358" y="723" on="0"/>
        <pt x="383" y="723" on="0"/>
        <pt x="392" y="717" on="0"/>
        <pt x="392" y="708" on="1"/>
        <pt x="395" y="703" on="0"/>
        <pt x="382" y="690" on="1"/>
      </contour>
    </TTGlyph>
    <TTGlyph name="ecircumflex" xMin="61" yMin="0" xMax="541" yMax="720">
      <contour>
        <pt x="61" y="203" on="1"/>
        <pt x="61" y="228" on="0"/>
        <pt x="65" y="247" on="1"/>
        <pt x="83" y="348" on="0"/>
        <pt x="245" y="489" on="0"/>
        <pt x="429" y="490" on="0"/>
        <pt x="485" y="431" on="1"/>
        <pt x="541" y="375" on="0"/>
        <pt x="541" y="287" on="1"/>
        <pt x="541" y="264" on="0"/>
        <pt x="539" y="256" on="1"/>
        <pt x="535" y="247" on="0"/>
        <pt x="527" y="247" on="1"/>
        <pt x="91" y="247" on="1"/>
        <pt x="86" y="237" on="0"/>
        <pt x="86" y="203" on="1"/>
        <pt x="86" y="126" on="0"/>
        <pt x="184" y="26" on="0"/>
        <pt x="261" y="26" on="1"/>
        <pt x="315" y="26" on="0"/>
        <pt x="419" y="80" on="0"/>
        <pt x="456" y="126" on="1"/>
        <pt x="463" y="135" on="0"/>
        <pt x="474" y="128" on="1"/>
        <pt x="483" y="119" on="0"/>
        <pt x="476" y="110" on="1"/>
        <pt x="387" y="2" on="0"/>
        <pt x="261" y="0" on="1"/>
        <pt x="173" y="0" on="0"/>
        <pt x="117" y="59" on="1"/>
        <pt x="61" y="115" on="0"/>
      </contour>
      <contour>
        <pt x="516" y="364" on="0"/>
        <pt x="419" y="464" on="0"/>
        <pt x="262" y="465" on="0"/>
        <pt x="122" y="354" on="0"/>
        <pt x="97" y="272" on="1"/>
        <pt x="515" y="272" on="1"/>
        <pt x="516" y="277" on="0"/>
        <pt x="516" y="287" on="1"/>
      </contour>
      <contour>
        <pt x="387" y="694" on="1"/>
        <pt x="302" y="618" on="1"/>
        <pt x="280" y="600" on="0"/>
        <pt x="273" y="600" on="1"/>
        <pt x="259" y="602" on="0"/>
        <pt x="259" y="602" on="1"/>
        <pt x="260" y="607" on="0"/>
        <pt x="267" y="614" on="1"/>
        <pt x="358" y="702" on="1"/>
        <pt x="378" y="720" on="0"/>
        <pt x="390" y="720" on="1"/>
        <pt x="398" y="720" on="1"/>
        <pt x="412" y="720" on="0"/>
        <pt x="422" y="702" on="1"/>
        <pt x="475" y="614" on="1"/>
        <pt x="479" y="608" on="0"/>
        <pt x="476" y="598" on="0"/>
        <pt x="467" y="600" on="0"/>
        <pt x="460" y="600" on="0"/>
        <pt x="452" y="605" on="0"/>
        <pt x="448" y="609" on="0"/>
        <pt x="442" y="618" on="0"/>
        <pt x="441" y="619" on="1"/>
      </contour>
    </TTGlyph>
    <TTGlyph name="edieresis" xMin="61" yMin="0" xMax="541" yMax="671">
      <contour>
        <pt x="61" y="203" on="1"/>
        <pt x="61" y="228" on="0"/>
        <pt x="65" y="247" on="1"/>
        <pt x="83" y="348" on="0"/>
        <pt x="245" y="489" on="0"/>
        <pt x="429" y="490" on="0"/>
        <pt x="485" y="431" on="1"/>
        <pt x="541" y="375" on="0"/>
        <pt x="541" y="287" on="1"/>
        <pt x="541" y="264" on="0"/>
        <pt x="539" y="256" on="1"/>
        <pt x="535" y="247" on="0"/>
        <pt x="527" y="247" on="1"/>
        <pt x="91" y="247" on="1"/>
        <pt x="86" y="237" on="0"/>
        <pt x="86" y="203" on="1"/>
        <pt x="86" y="126" on="0"/>
        <pt x="184" y="26" on="0"/>
        <pt x="261" y="26" on="1"/>
        <pt x="315" y="26" on="0"/>
        <pt x="419" y="80" on="0"/>
        <pt x="456" y="126" on="1"/>
        <pt x="463" y="135" on="0"/>
        <pt x="474" y="128" on="1"/>
        <pt x="483" y="119" on="0"/>
        <pt x="476" y="110" on="1"/>
        <pt x="387" y="2" on="0"/>
        <pt x="261" y="0" on="1"/>
        <pt x="173" y="0" on="0"/>
        <pt x="117" y="59" on="1"/>
        <pt x="61" y="115" on="0"/>
      </contour>
      <contour>
        <pt x="516" y="364" on="0"/>
        <pt x="419" y="464" on="0"/>
        <pt x="262" y="465" on="0"/>
        <pt x="122" y="354" on="0"/>
        <pt x="97" y="272" on="1"/>
        <pt x="515" y="272" on="1"/>
        <pt x="516" y="277" on="0"/>
        <pt x="516" y="287" on="1"/>
      </contour>
      <contour>
        <pt x="252" y="623" on="0"/>
        <pt x="256" y="651" on="0"/>
        <pt x="277" y="671" on="0"/>
        <pt x="305" y="671" on="0"/>
        <pt x="323" y="651" on="0"/>
        <pt x="319" y="622" on="0"/>
        <pt x="298" y="603" on="0"/>
        <pt x="270" y="603" on="0"/>
      </contour>
      <contour>
        <pt x="434" y="623" on="0"/>
        <pt x="438" y="651" on="0"/>
        <pt x="459" y="671" on="0"/>
        <pt x="487" y="671" on="0"/>
        <pt x="505" y="651" on="0"/>
        <pt x="502" y="623" on="0"/>
        <pt x="480" y="603" on="0"/>
        <pt x="452" y="603" on="0"/>
      </contour>
    </TTGlyph>
    <TTGlyph name="egrave" xMin="61" yMin="0" xMax="541" yMax="723">
      <contour>
        <pt x="61" y="203" on="1"/>
        <pt x="61" y="228" on="0"/>
        <pt x="65" y="247" on="1"/>
        <pt x="83" y="348" on="0"/>
        <pt x="245" y="489" on="0"/>
        <pt x="429" y="490" on="0"/>
        <pt x="485" y="431" on="1"/>
        <pt x="541" y="375" on="0"/>
        <pt x="541" y="287" on="1"/>
        <pt x="541" y="264" on="0"/>
        <pt x="539" y="256" on="1"/>
        <pt x="535" y="247" on="0"/>
        <pt x="527" y="247" on="1"/>
        <pt x="91" y="247" on="1"/>
        <pt x="86" y="237" on="0"/>
        <pt x="86" y="203" on="1"/>
        <pt x="86" y="126" on="0"/>
        <pt x="184" y="26" on="0"/>
        <pt x="261" y="26" on="1"/>
        <pt x="315" y="26" on="0"/>
        <pt x="419" y="80" on="0"/>
        <pt x="456" y="126" on="1"/>
        <pt x="463" y="135" on="0"/>
        <pt x="474" y="128" on="1"/>
        <pt x="483" y="119" on="0"/>
        <pt x="476" y="110" on="1"/>
        <pt x="387" y="2" on="0"/>
        <pt x="261" y="0" on="1"/>
        <pt x="173" y="0" on="0"/>
        <pt x="117" y="59" on="1"/>
        <pt x="61" y="115" on="0"/>
      </contour>
      <contour>
        <pt x="516" y="364" on="0"/>
        <pt x="419" y="464" on="0"/>
        <pt x="262" y="465" on="0"/>
        <pt x="122" y="354" on="0"/>
        <pt x="97" y="272" on="1"/>
        <pt x="515" y="272" on="1"/>
        <pt x="516" y="277" on="0"/>
        <pt x="516" y="287" on="1"/>
      </contour>
      <contour>
        <pt x="436" y="612" on="1"/>
        <pt x="440" y="606" on="0"/>
        <pt x="440" y="594" on="0"/>
        <pt x="417" y="604" on="0"/>
        <pt x="409" y="613" on="1"/>
        <pt x="338" y="690" on="1"/>
        <pt x="325" y="703" on="0"/>
        <pt x="328" y="708" on="1"/>
        <pt x="328" y="723" on="0"/>
        <pt x="362" y="723" on="0"/>
        <pt x="374" y="705" on="1"/>
      </contour>
    </TTGlyph>
    <TTGlyph name="eight" xMin="55" yMin="-1" xMax="507" yMax="699">
      <contour>
        <pt x="378" y="434" on="1"/>
        <pt x="419" y="423" on="0"/>
        <pt x="454" y="390" on="1"/>
        <pt x="507" y="339" on="0"/>
        <pt x="507" y="258" on="1"/>
        <pt x="507" y="144" on="0"/>
        <pt x="412" y="63" on="1"/>
        <pt x="336" y="-1" on="0"/>
        <pt x="163" y="-1" on="0"/>
        <pt x="55" y="103" on="0"/>
        <pt x="55" y="184" on="1"/>
        <pt x="55" y="281" on="0"/>
        <pt x="128" y="358" on="1"/>
        <pt x="185" y="417" on="0"/>
        <pt x="260" y="436" on="1"/>
        <pt x="244" y="444" on="0"/>
        <pt x="233" y="455" on="1"/>
        <pt x="200" y="488" on="0"/>
        <pt x="200" y="538" on="1"/>
        <pt x="200" y="609" on="0"/>
        <pt x="259" y="658" on="1"/>
        <pt x="306" y="698" on="0"/>
        <pt x="414" y="699" on="0"/>
        <pt x="482" y="631" on="0"/>
        <pt x="481" y="528" on="0"/>
        <pt x="417" y="451" on="0"/>
      </contour>
      <contour>
        <pt x="225" y="538" on="1"/>
        <pt x="225" y="499" on="0"/>
        <pt x="277" y="447" on="0"/>
        <pt x="366" y="446" on="0"/>
        <pt x="457" y="524" on="0"/>
        <pt x="457" y="582" on="1"/>
        <pt x="456" y="622" on="0"/>
        <pt x="405" y="673" on="0"/>
        <pt x="316" y="674" on="0"/>
        <pt x="234" y="605" on="0"/>
        <pt x="227" y="558" on="1"/>
        <pt x="214" y="560" on="1"/>
        <pt x="227" y="558" on="1"/>
        <pt x="225" y="551" on="0"/>
      </contour>
      <contour>
        <pt x="396" y="82" on="1"/>
        <pt x="482" y="155" on="0"/>
        <pt x="482" y="258" on="1"/>
        <pt x="482" y="327" on="0"/>
        <pt x="390" y="418" on="0"/>
        <pt x="236" y="419" on="0"/>
        <pt x="97" y="301" on="0"/>
        <pt x="83" y="219" on="1"/>
        <pt x="71" y="221" on="1"/>
        <pt x="83" y="219" on="1"/>
        <pt x="80" y="201" on="0"/>
        <pt x="80" y="184" on="1"/>
        <pt x="80" y="115" on="0"/>
        <pt x="172" y="24" on="0"/>
        <pt x="326" y="23" on="0"/>
      </contour>
    </TTGlyph>
    <TTGlyph name="ellipsis" xMin="82" yMin="3" xMax="444" yMax="53">
      <contour>
        <pt x="132" y="38" on="0"/>
        <pt x="132" y="18" on="0"/>
        <pt x="118" y="3" on="0"/>
        <pt x="98" y="3" on="0"/>
        <pt x="82" y="18" on="0"/>
        <pt x="82" y="38" on="0"/>
        <pt x="97" y="53" on="0"/>
        <pt x="118" y="53" on="0"/>
      </contour>
      <contour>
        <pt x="288" y="38" on="0"/>
        <pt x="288" y="18" on="0"/>
        <pt x="274" y="3" on="0"/>
        <pt x="254" y="3" on="0"/>
        <pt x="238" y="18" on="0"/>
        <pt x="238" y="38" on="0"/>
        <pt x="253" y="53" on="0"/>
        <pt x="274" y="53" on="0"/>
      </contour>
      <contour>
        <pt x="444" y="38" on="0"/>
        <pt x="444" y="18" on="0"/>
        <pt x="430" y="3" on="0"/>
        <pt x="410" y="3" on="0"/>
        <pt x="394" y="18" on="0"/>
        <pt x="394" y="38" on="0"/>
        <pt x="409" y="53" on="0"/>
        <pt x="430" y="53" on="0"/>
      </contour>
    </TTGlyph>
    <TTGlyph name="equal" xMin="79" yMin="178" xMax="492" yMax="414">
      <contour>
        <pt x="441" y="204" on="1"/>
        <pt x="455" y="204" on="0"/>
        <pt x="455" y="192" on="1"/>
        <pt x="455" y="186" on="0"/>
        <pt x="446" y="178" on="0"/>
        <pt x="441" y="178" on="1"/>
        <pt x="93" y="178" on="1"/>
        <pt x="79" y="178" on="0"/>
        <pt x="79" y="192" on="1"/>
        <pt x="79" y="204" on="0"/>
        <pt x="93" y="204" on="1"/>
      </contour>
      <contour>
        <pt x="477" y="414" on="1"/>
        <pt x="492" y="414" on="0"/>
        <pt x="492" y="389" on="0"/>
        <pt x="477" y="389" on="1"/>
        <pt x="130" y="389" on="1"/>
        <pt x="116" y="389" on="0"/>
        <pt x="116" y="414" on="0"/>
        <pt x="130" y="414" on="1"/>
      </contour>
    </TTGlyph>
    <TTGlyph name="exclam" xMin="94" yMin="2" xMax="238" yMax="703">
      <contour>
        <pt x="213" y="692" on="1"/>
        <pt x="216" y="704" on="0"/>
        <pt x="224" y="702" on="1"/>
        <pt x="241" y="700" on="0"/>
        <pt x="238" y="688" on="1"/>
        <pt x="147" y="167" on="1"/>
        <pt x="145" y="157" on="0"/>
        <pt x="134" y="157" on="1"/>
        <pt x="132" y="157" on="1"/>
        <pt x="127" y="158" on="0"/>
        <pt x="121" y="167" on="0"/>
        <pt x="122" y="172" on="1"/>
      </contour>
      <contour>
        <pt x="113" y="52" on="1"/>
        <pt x="126" y="48" on="0"/>
        <pt x="124" y="37" on="1"/>
        <pt x="119" y="13" on="1"/>
        <pt x="117" y="2" on="0"/>
        <pt x="107" y="2" on="1"/>
        <pt x="105" y="2" on="0"/>
        <pt x="105" y="3" on="1"/>
        <pt x="92" y="5" on="0"/>
        <pt x="94" y="17" on="1"/>
        <pt x="99" y="41" on="1"/>
        <pt x="101" y="54" on="0"/>
      </contour>
    </TTGlyph>
    <TTGlyph name="exclamdown" xMin="95" yMin="2" xMax="239" yMax="703">
      <contour>
        <pt x="120" y="13" on="1"/>
        <pt x="117" y="1" on="0"/>
        <pt x="100" y="4" on="0"/>
        <pt x="93" y="13" on="0"/>
        <pt x="95" y="17" on="1"/>
        <pt x="186" y="538" on="1"/>
        <pt x="188" y="548" on="0"/>
        <pt x="199" y="548" on="1"/>
        <pt x="201" y="548" on="1"/>
        <pt x="206" y="547" on="0"/>
        <pt x="212" y="538" on="0"/>
        <pt x="211" y="533" on="1"/>
      </contour>
      <contour>
        <pt x="220" y="653" on="1"/>
        <pt x="207" y="657" on="0"/>
        <pt x="209" y="668" on="1"/>
        <pt x="214" y="692" on="1"/>
        <pt x="216" y="703" on="0"/>
        <pt x="226" y="703" on="1"/>
        <pt x="228" y="703" on="0"/>
        <pt x="228" y="702" on="1"/>
        <pt x="241" y="700" on="0"/>
        <pt x="239" y="688" on="1"/>
        <pt x="234" y="664" on="1"/>
        <pt x="232" y="651" on="0"/>
      </contour>
    </TTGlyph>
    <TTGlyph name="f" xMin="66" yMin="0" xMax="331" yMax="700">
      <contour>
        <pt x="320" y="700" on="1"/>
        <pt x="333" y="700" on="0"/>
        <pt x="331" y="688" on="1"/>
        <pt x="327" y="675" on="0"/>
        <pt x="316" y="675" on="1"/>
        <pt x="264" y="675" on="0"/>
        <pt x="210" y="625" on="0"/>
        <pt x="199" y="559" on="1"/>
        <pt x="187" y="493" on="1"/>
        <pt x="271" y="493" on="1"/>
        <pt x="276" y="493" on="0"/>
        <pt x="282" y="485" on="0"/>
        <pt x="281" y="480" on="1"/>
        <pt x="279" y="467" on="0"/>
        <pt x="266" y="467" on="1"/>
        <pt x="182" y="467" on="1"/>
        <pt x="102" y="13" on="1"/>
        <pt x="100" y="0" on="0"/>
        <pt x="75" y="0" on="0"/>
        <pt x="77" y="13" on="1"/>
        <pt x="157" y="467" on="1"/>
        <pt x="77" y="467" on="1"/>
        <pt x="64" y="467" on="0"/>
        <pt x="68" y="493" on="0"/>
        <pt x="81" y="493" on="1"/>
        <pt x="161" y="493" on="1"/>
        <pt x="173" y="559" on="1"/>
        <pt x="186" y="634" on="0"/>
        <pt x="257" y="700" on="0"/>
      </contour>
    </TTGlyph>
    <TTGlyph name="five" xMin="65" yMin="1" xMax="571" yMax="701">
      <contour>
        <pt x="558" y="701" on="1"/>
        <pt x="571" y="701" on="0"/>
        <pt x="571" y="675" on="0"/>
        <pt x="558" y="675" on="1"/>
        <pt x="228" y="675" on="1"/>
        <pt x="153" y="422" on="1"/>
        <pt x="222" y="467" on="0"/>
        <pt x="298" y="467" on="1"/>
        <pt x="395" y="467" on="0"/>
        <pt x="452" y="398" on="1"/>
        <pt x="495" y="345" on="0"/>
        <pt x="495" y="281" on="1"/>
        <pt x="495" y="153" on="0"/>
        <pt x="395" y="68" on="1"/>
        <pt x="316" y="1" on="0"/>
        <pt x="219" y="1" on="1"/>
        <pt x="218" y="1" on="1"/>
        <pt x="122" y="1" on="0"/>
        <pt x="65" y="70" on="1"/>
        <pt x="56" y="79" on="0"/>
        <pt x="76" y="97" on="0"/>
        <pt x="85" y="86" on="1"/>
        <pt x="133" y="27" on="0"/>
        <pt x="305" y="27" on="0"/>
        <pt x="378" y="88" on="1"/>
        <pt x="469" y="168" on="0"/>
        <pt x="469" y="280" on="1"/>
        <pt x="469" y="337" on="0"/>
        <pt x="431" y="381" on="1"/>
        <pt x="383" y="441" on="0"/>
        <pt x="210" y="441" on="0"/>
        <pt x="139" y="379" on="1"/>
        <pt x="128" y="372" on="0"/>
        <pt x="120" y="381" on="1"/>
        <pt x="117" y="387" on="1"/>
        <pt x="117" y="394" on="1"/>
        <pt x="205" y="690" on="1"/>
        <pt x="207" y="696" on="0"/>
        <pt x="213" y="698" on="1"/>
        <pt x="216" y="701" on="0"/>
        <pt x="219" y="701" on="1"/>
      </contour>
    </TTGlyph>
    <TTGlyph name="four" xMin="52" yMin="-2" xMax="590" yMax="698">
      <contour>
        <pt x="584" y="695" on="0"/>
        <pt x="588" y="692" on="0"/>
        <pt x="588" y="690" on="0"/>
        <pt x="589" y="690" on="0"/>
        <pt x="589" y="689" on="1"/>
        <pt x="589" y="687" on="1"/>
        <pt x="590" y="686" on="0"/>
        <pt x="589" y="684" on="1"/>
        <pt x="590" y="683" on="1"/>
        <pt x="499" y="172" on="1"/>
        <pt x="559" y="172" on="1"/>
        <pt x="572" y="172" on="0"/>
        <pt x="572" y="147" on="0"/>
        <pt x="559" y="147" on="1"/>
        <pt x="495" y="147" on="1"/>
        <pt x="471" y="8" on="1"/>
        <pt x="468" y="-2" on="0"/>
        <pt x="458" y="-2" on="1"/>
        <pt x="456" y="-2" on="1"/>
        <pt x="451" y="-1" on="0"/>
        <pt x="445" y="8" on="0"/>
        <pt x="446" y="13" on="1"/>
        <pt x="469" y="147" on="1"/>
        <pt x="61" y="147" on="1"/>
        <pt x="56" y="147" on="0"/>
        <pt x="52" y="150" on="1"/>
        <pt x="43" y="159" on="0"/>
        <pt x="52" y="168" on="1"/>
        <pt x="568" y="694" on="1"/>
        <pt x="570" y="694" on="0"/>
        <pt x="570" y="696" on="0"/>
        <pt x="572" y="696" on="0"/>
        <pt x="572" y="697" on="0"/>
        <pt x="575" y="697" on="0"/>
        <pt x="575" y="698" on="1"/>
        <pt x="579" y="698" on="1"/>
        <pt x="580" y="697" on="1"/>
        <pt x="584" y="697" on="0"/>
      </contour>
      <contour>
        <pt x="91" y="172" on="1"/>
        <pt x="474" y="172" on="1"/>
        <pt x="557" y="647" on="1"/>
      </contour>
    </TTGlyph>
    <TTGlyph name="g" xMin="61" yMin="-204" xMax="567" yMax="489">
      <contour>
        <pt x="487" y="25" on="1"/>
        <pt x="470" y="-70" on="0"/>
        <pt x="313" y="-204" on="0"/>
        <pt x="218" y="-204" on="1"/>
        <pt x="164" y="-204" on="0"/>
        <pt x="121" y="-180" on="1"/>
        <pt x="109" y="-174" on="0"/>
        <pt x="116" y="-163" on="1"/>
        <pt x="121" y="-152" on="0"/>
        <pt x="133" y="-158" on="1"/>
        <pt x="173" y="-179" on="0"/>
        <pt x="218" y="-179" on="1"/>
        <pt x="304" y="-179" on="0"/>
        <pt x="447" y="-57" on="0"/>
        <pt x="462" y="29" on="1"/>
        <pt x="480" y="131" on="1"/>
        <pt x="440" y="71" on="0"/>
        <pt x="320" y="0" on="0"/>
        <pt x="254" y="0" on="1"/>
        <pt x="173" y="-1" on="0"/>
        <pt x="115" y="57" on="1"/>
        <pt x="60" y="116" on="0"/>
        <pt x="61" y="200" on="1"/>
        <pt x="61" y="225" on="0"/>
        <pt x="65" y="246" on="1"/>
        <pt x="83" y="346" on="0"/>
        <pt x="240" y="488" on="0"/>
        <pt x="421" y="489" on="0"/>
        <pt x="475" y="430" on="1"/>
        <pt x="506" y="398" on="0"/>
        <pt x="520" y="354" on="1"/>
        <pt x="542" y="478" on="1"/>
        <pt x="543" y="483" on="0"/>
        <pt x="552" y="489" on="0"/>
        <pt x="557" y="488" on="1"/>
        <pt x="569" y="486" on="0"/>
        <pt x="567" y="474" on="1"/>
        <pt x="526" y="242" on="1"/>
        <pt x="526" y="241" on="1"/>
      </contour>
      <contour>
        <pt x="86" y="124" on="0"/>
        <pt x="180" y="25" on="0"/>
        <pt x="339" y="24" on="0"/>
        <pt x="412" y="89" on="1"/>
        <pt x="504" y="172" on="0"/>
        <pt x="504" y="287" on="1"/>
        <pt x="504" y="363" on="0"/>
        <pt x="410" y="463" on="0"/>
        <pt x="336" y="463" on="1"/>
        <pt x="335" y="463" on="1"/>
        <pt x="250" y="463" on="0"/>
        <pt x="106" y="333" on="0"/>
        <pt x="90" y="241" on="1"/>
        <pt x="86" y="222" on="0"/>
        <pt x="86" y="200" on="1"/>
      </contour>
    </TTGlyph>
    <TTGlyph name="germandbls" xMin="96" yMin="-2" xMax="610" yMax="739">
      <contour>
        <pt x="287" y="13" on="0"/>
        <pt x="289" y="31" on="0"/>
        <pt x="304" y="43" on="0"/>
        <pt x="313" y="44" on="1"/>
        <pt x="404" y="49" on="0"/>
        <pt x="525" y="121" on="0"/>
        <pt x="536" y="189" on="1"/>
        <pt x="537" y="191" on="1"/>
        <pt x="548" y="255" on="0"/>
        <pt x="454" y="330" on="0"/>
        <pt x="369" y="341" on="1"/>
        <pt x="345" y="344" on="0"/>
        <pt x="352" y="383" on="0"/>
        <pt x="373" y="390" on="1"/>
        <pt x="536" y="444" on="0"/>
        <pt x="557" y="560" on="1"/>
        <pt x="557" y="562" on="1"/>
        <pt x="567" y="619" on="0"/>
        <pt x="497" y="693" on="0"/>
        <pt x="357" y="693" on="0"/>
        <pt x="245" y="589" on="0"/>
        <pt x="229" y="502" on="1"/>
        <pt x="145" y="22" on="1"/>
        <pt x="140" y="-2" on="0"/>
        <pt x="116" y="-2" on="1"/>
        <pt x="105" y="-2" on="0"/>
        <pt x="94" y="12" on="0"/>
        <pt x="96" y="22" on="1"/>
        <pt x="180" y="502" on="1"/>
        <pt x="199" y="607" on="0"/>
        <pt x="342" y="739" on="0"/>
        <pt x="531" y="739" on="0"/>
        <pt x="624" y="639" on="0"/>
        <pt x="610" y="564" on="1"/>
        <pt x="610" y="562" on="1"/>
        <pt x="598" y="494" on="0"/>
        <pt x="490" y="396" on="0"/>
        <pt x="420" y="372" on="1"/>
        <pt x="505" y="357" on="0"/>
        <pt x="603" y="268" on="0"/>
        <pt x="590" y="193" on="1"/>
        <pt x="590" y="191" on="1"/>
        <pt x="574" y="102" on="0"/>
        <pt x="419" y="4" on="0"/>
        <pt x="305" y="0" on="1"/>
        <pt x="297" y="0" on="0"/>
      </contour>
    </TTGlyph>
    <TTGlyph name="grave" xMin="166" yMin="599" xMax="278" yMax="723">
      <contour>
        <pt x="274" y="612" on="1"/>
        <pt x="278" y="606" on="0"/>
        <pt x="278" y="594" on="0"/>
        <pt x="255" y="604" on="0"/>
        <pt x="247" y="613" on="1"/>
        <pt x="176" y="690" on="1"/>
        <pt x="163" y="703" on="0"/>
        <pt x="166" y="708" on="1"/>
        <pt x="166" y="723" on="0"/>
        <pt x="200" y="723" on="0"/>
        <pt x="212" y="705" on="1"/>
      </contour>
    </TTGlyph>
    <TTGlyph name="greater" xMin="95" yMin="2" xMax="512" yMax="699">
      <contour>
        <pt x="512" y="357" on="1"/>
        <pt x="512" y="349" on="1"/>
        <pt x="511" y="348" on="0"/>
        <pt x="511" y="346" on="1"/>
        <pt x="510" y="344" on="1"/>
        <pt x="116" y="6" on="1"/>
        <pt x="110" y="2" on="0"/>
        <pt x="98" y="2" on="0"/>
        <pt x="95" y="8" on="1"/>
        <pt x="85" y="18" on="0"/>
        <pt x="96" y="29" on="1"/>
        <pt x="477" y="354" on="1"/>
        <pt x="212" y="678" on="1"/>
        <pt x="202" y="690" on="0"/>
        <pt x="215" y="699" on="1"/>
        <pt x="225" y="708" on="0"/>
        <pt x="236" y="697" on="1"/>
        <pt x="509" y="362" on="1"/>
        <pt x="511" y="358" on="1"/>
      </contour>
    </TTGlyph>
    <TTGlyph name="guilsinglleft" xMin="56" yMin="42" xMax="267" yMax="456">
      <contour>
        <pt x="256" y="457" on="0"/>
        <pt x="267" y="452" on="0"/>
        <pt x="266" y="435" on="0"/>
        <pt x="260" y="430" on="1"/>
        <pt x="87" y="250" on="1"/>
        <pt x="197" y="72" on="1"/>
        <pt x="203" y="64" on="0"/>
        <pt x="199" y="42" on="0"/>
        <pt x="173" y="42" on="0"/>
        <pt x="168" y="51" on="1"/>
        <pt x="62" y="229" on="1"/>
        <pt x="55" y="242" on="0"/>
        <pt x="56" y="251" on="1"/>
        <pt x="59" y="260" on="0"/>
        <pt x="70" y="273" on="1"/>
        <pt x="239" y="452" on="1"/>
        <pt x="242" y="455" on="0"/>
      </contour>
    </TTGlyph>
    <TTGlyph name="guilsinglright" xMin="69" yMin="43" xMax="279" yMax="457">
      <contour>
        <pt x="79" y="42" on="0"/>
        <pt x="68" y="47" on="0"/>
        <pt x="70" y="64" on="0"/>
        <pt x="75" y="69" on="1"/>
        <pt x="248" y="249" on="1"/>
        <pt x="138" y="427" on="1"/>
        <pt x="132" y="435" on="0"/>
        <pt x="136" y="457" on="0"/>
        <pt x="162" y="457" on="0"/>
        <pt x="167" y="448" on="1"/>
        <pt x="273" y="270" on="1"/>
        <pt x="280" y="257" on="0"/>
        <pt x="279" y="248" on="1"/>
        <pt x="276" y="239" on="0"/>
        <pt x="265" y="226" on="1"/>
        <pt x="96" y="47" on="1"/>
        <pt x="93" y="44" on="0"/>
      </contour>
    </TTGlyph>
    <TTGlyph name="h" xMin="94" yMin="-2" xMax="544" yMax="698">
      <contour>
        <pt x="108" y="-2" on="1"/>
        <pt x="104" y="-2" on="1"/>
        <pt x="92" y="0" on="0"/>
        <pt x="94" y="13" on="1"/>
        <pt x="213" y="688" on="1"/>
        <pt x="215" y="700" on="0"/>
        <pt x="240" y="696" on="0"/>
        <pt x="238" y="683" on="1"/>
        <pt x="187" y="391" on="1"/>
        <pt x="221" y="436" on="0"/>
        <pt x="321" y="490" on="0"/>
        <pt x="375" y="490" on="1"/>
        <pt x="449" y="490" on="0"/>
        <pt x="497" y="442" on="1"/>
        <pt x="544" y="397" on="0"/>
        <pt x="544" y="324" on="1"/>
        <pt x="544" y="307" on="0"/>
        <pt x="541" y="289" on="1"/>
        <pt x="491" y="9" on="1"/>
        <pt x="489" y="-2" on="0"/>
        <pt x="479" y="-2" on="1"/>
        <pt x="476" y="-2" on="1"/>
        <pt x="464" y="0" on="0"/>
        <pt x="466" y="13" on="1"/>
        <pt x="516" y="294" on="1"/>
        <pt x="519" y="309" on="0"/>
        <pt x="519" y="324" on="1"/>
        <pt x="518" y="385" on="0"/>
        <pt x="438" y="464" on="0"/>
        <pt x="303" y="465" on="0"/>
        <pt x="181" y="361" on="0"/>
        <pt x="169" y="289" on="1"/>
        <pt x="119" y="9" on="1"/>
        <pt x="119" y="7" on="1"/>
        <pt x="118" y="6" on="0"/>
        <pt x="118" y="3" on="0"/>
        <pt x="116" y="3" on="1"/>
        <pt x="116" y="1" on="0"/>
        <pt x="114" y="1" on="1"/>
        <pt x="111" y="-2" on="0"/>
      </contour>
    </TTGlyph>
    <TTGlyph name="hyphen" xMin="66" yMin="340" xMax="313" yMax="360">
      <contour>
        <pt x="76" y="340" on="1"/>
        <pt x="66" y="340" on="0"/>
        <pt x="66" y="360" on="0"/>
        <pt x="76" y="360" on="1"/>
        <pt x="304" y="360" on="1"/>
        <pt x="313" y="360" on="0"/>
        <pt x="313" y="340" on="0"/>
        <pt x="304" y="340" on="1"/>
      </contour>
    </TTGlyph>
    <TTGlyph name="i" xMin="95" yMin="0" xMax="229" yMax="641">
      <contour>
        <pt x="105" y="0" on="1"/>
        <pt x="93" y="4" on="0"/>
        <pt x="95" y="15" on="1"/>
        <pt x="176" y="481" on="1"/>
        <pt x="180" y="494" on="0"/>
        <pt x="191" y="490" on="1"/>
        <pt x="204" y="488" on="0"/>
        <pt x="201" y="476" on="1"/>
        <pt x="120" y="10" on="1"/>
        <pt x="118" y="0" on="0"/>
        <pt x="108" y="0" on="1"/>
      </contour>
      <contour>
        <pt x="212" y="592" on="1"/>
        <pt x="209" y="592" on="1"/>
        <pt x="197" y="594" on="0"/>
        <pt x="199" y="607" on="1"/>
        <pt x="204" y="631" on="1"/>
        <pt x="206" y="643" on="0"/>
        <pt x="231" y="639" on="0"/>
        <pt x="229" y="626" on="1"/>
        <pt x="224" y="602" on="1"/>
        <pt x="222" y="592" on="0"/>
      </contour>
    </TTGlyph>
    <TTGlyph name="iacute" xMin="101" yMin="0" xMax="254" yMax="723">
      <contour>
        <pt x="111" y="0" on="1"/>
        <pt x="99" y="4" on="0"/>
        <pt x="101" y="15" on="1"/>
        <pt x="182" y="479" on="1"/>
        <pt x="186" y="492" on="0"/>
        <pt x="197" y="488" on="1"/>
        <pt x="210" y="486" on="0"/>
        <pt x="207" y="474" on="1"/>
        <pt x="126" y="10" on="1"/>
        <pt x="124" y="0" on="0"/>
        <pt x="114" y="0" on="1"/>
      </contour>
      <contour>
        <pt x="173" y="613" on="1"/>
        <pt x="165" y="604" on="0"/>
        <pt x="142" y="594" on="0"/>
        <pt x="142" y="606" on="0"/>
        <pt x="146" y="612" on="1"/>
        <pt x="208" y="705" on="1"/>
        <pt x="220" y="723" on="0"/>
        <pt x="245" y="723" on="0"/>
        <pt x="254" y="717" on="0"/>
        <pt x="254" y="708" on="1"/>
        <pt x="257" y="703" on="0"/>
        <pt x="244" y="690" on="1"/>
      </contour>
    </TTGlyph>
    <TTGlyph name="icircumflex" xMin="4" yMin="0" xMax="223" yMax="720">
      <contour>
        <pt x="26" y="0" on="1"/>
        <pt x="14" y="4" on="0"/>
        <pt x="16" y="15" on="1"/>
        <pt x="97" y="479" on="1"/>
        <pt x="101" y="492" on="0"/>
        <pt x="112" y="488" on="1"/>
        <pt x="125" y="486" on="0"/>
        <pt x="122" y="474" on="1"/>
        <pt x="41" y="10" on="1"/>
        <pt x="39" y="0" on="0"/>
        <pt x="29" y="0" on="1"/>
      </contour>
      <contour>
        <pt x="132" y="694" on="1"/>
        <pt x="47" y="618" on="1"/>
        <pt x="25" y="600" on="0"/>
        <pt x="18" y="600" on="1"/>
        <pt x="4" y="602" on="0"/>
        <pt x="4" y="602" on="1"/>
        <pt x="5" y="607" on="0"/>
        <pt x="12" y="614" on="1"/>
        <pt x="103" y="702" on="1"/>
        <pt x="123" y="720" on="0"/>
        <pt x="135" y="720" on="1"/>
        <pt x="143" y="720" on="1"/>
        <pt x="157" y="720" on="0"/>
        <pt x="167" y="702" on="1"/>
        <pt x="220" y="614" on="1"/>
        <pt x="224" y="608" on="0"/>
        <pt x="221" y="598" on="0"/>
        <pt x="212" y="600" on="0"/>
        <pt x="205" y="600" on="0"/>
        <pt x="197" y="605" on="0"/>
        <pt x="193" y="609" on="0"/>
        <pt x="187" y="618" on="0"/>
        <pt x="186" y="619" on="1"/>
      </contour>
    </TTGlyph>
    <TTGlyph name="idieresis" xMin="-18" yMin="0" xMax="232" yMax="671">
      <contour>
        <pt x="18" y="0" on="1"/>
        <pt x="6" y="4" on="0"/>
        <pt x="8" y="15" on="1"/>
        <pt x="89" y="479" on="1"/>
        <pt x="93" y="492" on="0"/>
        <pt x="104" y="488" on="1"/>
        <pt x="117" y="486" on="0"/>
        <pt x="114" y="474" on="1"/>
        <pt x="33" y="10" on="1"/>
        <pt x="31" y="0" on="0"/>
        <pt x="21" y="0" on="1"/>
      </contour>
      <contour>
        <pt x="-20" y="623" on="0"/>
        <pt x="-16" y="651" on="0"/>
        <pt x="5" y="671" on="0"/>
        <pt x="33" y="671" on="0"/>
        <pt x="51" y="651" on="0"/>
        <pt x="47" y="622" on="0"/>
        <pt x="26" y="603" on="0"/>
        <pt x="-2" y="603" on="0"/>
      </contour>
      <contour>
        <pt x="162" y="623" on="0"/>
        <pt x="166" y="651" on="0"/>
        <pt x="187" y="671" on="0"/>
        <pt x="215" y="671" on="0"/>
        <pt x="233" y="651" on="0"/>
        <pt x="230" y="623" on="0"/>
        <pt x="208" y="603" on="0"/>
        <pt x="180" y="603" on="0"/>
      </contour>
    </TTGlyph>
    <TTGlyph name="igrave" xMin="3" yMin="0" xMax="148" yMax="723">
      <contour>
        <pt x="13" y="0" on="1"/>
        <pt x="1" y="4" on="0"/>
        <pt x="3" y="15" on="1"/>
        <pt x="84" y="479" on="1"/>
        <pt x="88" y="492" on="0"/>
        <pt x="99" y="488" on="1"/>
        <pt x="112" y="486" on="0"/>
        <pt x="109" y="474" on="1"/>
        <pt x="28" y="10" on="1"/>
        <pt x="26" y="0" on="0"/>
        <pt x="16" y="0" on="1"/>
      </contour>
      <contour>
        <pt x="144" y="612" on="1"/>
        <pt x="148" y="606" on="0"/>
        <pt x="148" y="594" on="0"/>
        <pt x="125" y="604" on="0"/>
        <pt x="117" y="613" on="1"/>
        <pt x="46" y="690" on="1"/>
        <pt x="33" y="703" on="0"/>
        <pt x="36" y="708" on="1"/>
        <pt x="36" y="723" on="0"/>
        <pt x="70" y="723" on="0"/>
        <pt x="82" y="705" on="1"/>
      </contour>
    </TTGlyph>
    <TTGlyph name="j" xMin="-5" yMin="-194" xMax="227" yMax="639">
      <contour>
        <pt x="203" y="628" on="1"/>
        <pt x="203" y="633" on="0"/>
        <pt x="213" y="640" on="0"/>
        <pt x="218" y="639" on="1"/>
        <pt x="229" y="637" on="0"/>
        <pt x="227" y="625" on="1"/>
        <pt x="222" y="601" on="1"/>
        <pt x="222" y="591" on="0"/>
        <pt x="211" y="591" on="1"/>
        <pt x="207" y="591" on="1"/>
        <pt x="196" y="593" on="0"/>
        <pt x="198" y="606" on="1"/>
      </contour>
      <contour>
        <pt x="173" y="480" on="1"/>
        <pt x="176" y="492" on="0"/>
        <pt x="200" y="488" on="0"/>
        <pt x="198" y="475" on="1"/>
        <pt x="91" y="-122" on="1"/>
        <pt x="86" y="-152" on="0"/>
        <pt x="37" y="-194" on="0"/>
        <pt x="8" y="-194" on="1"/>
        <pt x="-5" y="-194" on="0"/>
        <pt x="-5" y="-183" on="1"/>
        <pt x="-5" y="-178" on="0"/>
        <pt x="3" y="-169" on="0"/>
        <pt x="8" y="-169" on="1"/>
        <pt x="28" y="-170" on="0"/>
        <pt x="64" y="-139" on="0"/>
        <pt x="68" y="-119" on="1"/>
      </contour>
    </TTGlyph>
    <TTGlyph name="k" xMin="94" yMin="3" xMax="542" yMax="703">
      <contour>
        <pt x="542" y="493" on="1"/>
        <pt x="551" y="483" on="0"/>
        <pt x="541" y="475" on="1"/>
        <pt x="300" y="270" on="1"/>
        <pt x="460" y="23" on="1"/>
        <pt x="467" y="13" on="0"/>
        <pt x="457" y="5" on="1"/>
        <pt x="451" y="3" on="0"/>
        <pt x="442" y="3" on="0"/>
        <pt x="439" y="9" on="1"/>
        <pt x="280" y="254" on="1"/>
        <pt x="144" y="138" on="1"/>
        <pt x="142" y="136" on="0"/>
        <pt x="140" y="136" on="1"/>
        <pt x="119" y="14" on="1"/>
        <pt x="117" y="3" on="0"/>
        <pt x="106" y="3" on="1"/>
        <pt x="104" y="3" on="1"/>
        <pt x="92" y="5" on="0"/>
        <pt x="94" y="18" on="1"/>
        <pt x="213" y="693" on="1"/>
        <pt x="215" y="705" on="0"/>
        <pt x="240" y="701" on="0"/>
        <pt x="238" y="688" on="1"/>
        <pt x="147" y="173" on="1"/>
        <pt x="524" y="494" on="1"/>
        <pt x="532" y="502" on="0"/>
      </contour>
    </TTGlyph>
    <TTGlyph name="l" xMin="102" yMin="-1" xMax="246" yMax="699">
      <contour>
        <pt x="221" y="689" on="1"/>
        <pt x="223" y="701" on="0"/>
        <pt x="248" y="697" on="0"/>
        <pt x="246" y="684" on="1"/>
        <pt x="127" y="10" on="1"/>
        <pt x="125" y="-1" on="0"/>
        <pt x="114" y="-1" on="1"/>
        <pt x="112" y="-1" on="1"/>
        <pt x="107" y="0" on="0"/>
        <pt x="101" y="9" on="0"/>
        <pt x="102" y="14" on="1"/>
      </contour>
    </TTGlyph>
    <TTGlyph name="less" xMin="60" yMin="0" xMax="478" yMax="697">
      <contour>
        <pt x="60" y="352" on="1"/>
        <pt x="61" y="354" on="0"/>
        <pt x="61" y="358" on="0"/>
        <pt x="63" y="358" on="0"/>
        <pt x="64" y="360" on="0"/>
        <pt x="64" y="362" on="0"/>
        <pt x="65" y="362" on="1"/>
        <pt x="457" y="697" on="1"/>
        <pt x="468" y="707" on="0"/>
        <pt x="488" y="683" on="0"/>
        <pt x="476" y="674" on="1"/>
        <pt x="96" y="349" on="1"/>
        <pt x="360" y="25" on="1"/>
        <pt x="369" y="13" on="0"/>
        <pt x="358" y="4" on="1"/>
        <pt x="354" y="0" on="0"/>
        <pt x="342" y="0" on="0"/>
        <pt x="337" y="6" on="1"/>
        <pt x="63" y="341" on="1"/>
        <pt x="61" y="345" on="1"/>
        <pt x="61" y="346" on="1"/>
        <pt x="60" y="347" on="0"/>
        <pt x="60" y="350" on="1"/>
      </contour>
    </TTGlyph>
    <TTGlyph name="m" xMin="94" yMin="0" xMax="908" yMax="489">
      <contour>
        <pt x="108" y="0" on="1"/>
        <pt x="105" y="0" on="1"/>
        <pt x="92" y="2" on="0"/>
        <pt x="94" y="15" on="1"/>
        <pt x="144" y="295" on="1"/>
        <pt x="144" y="296" on="1"/>
        <pt x="176" y="479" on="1"/>
        <pt x="179" y="491" on="0"/>
        <pt x="203" y="487" on="0"/>
        <pt x="201" y="474" on="1"/>
        <pt x="186" y="392" on="1"/>
        <pt x="220" y="436" on="0"/>
        <pt x="320" y="489" on="0"/>
        <pt x="373" y="489" on="1"/>
        <pt x="445" y="489" on="0"/>
        <pt x="494" y="442" on="1"/>
        <pt x="526" y="407" on="0"/>
        <pt x="536" y="363" on="1"/>
        <pt x="567" y="419" on="0"/>
        <pt x="678" y="489" on="0"/>
        <pt x="812" y="489" on="0"/>
        <pt x="861" y="442" on="1"/>
        <pt x="908" y="395" on="0"/>
        <pt x="908" y="325" on="1"/>
        <pt x="908" y="309" on="0"/>
        <pt x="905" y="291" on="1"/>
        <pt x="856" y="10" on="1"/>
        <pt x="854" y="0" on="0"/>
        <pt x="843" y="0" on="1"/>
        <pt x="841" y="0" on="1"/>
        <pt x="829" y="2" on="0"/>
        <pt x="831" y="15" on="1"/>
        <pt x="880" y="295" on="1"/>
        <pt x="883" y="312" on="0"/>
        <pt x="883" y="325" on="1"/>
        <pt x="883" y="385" on="0"/>
        <pt x="804" y="463" on="0"/>
        <pt x="670" y="464" on="0"/>
        <pt x="550" y="364" on="0"/>
        <pt x="537" y="294" on="1"/>
        <pt x="537" y="292" on="0"/>
        <pt x="536" y="291" on="1"/>
        <pt x="488" y="10" on="1"/>
        <pt x="487" y="3" on="0"/>
        <pt x="479" y="1" on="1"/>
        <pt x="478" y="0" on="0"/>
        <pt x="477" y="0" on="1"/>
        <pt x="473" y="0" on="1"/>
        <pt x="461" y="2" on="0"/>
        <pt x="463" y="15" on="1"/>
        <pt x="511" y="295" on="1"/>
        <pt x="514" y="298" on="0"/>
        <pt x="514" y="325" on="1"/>
        <pt x="514" y="386" on="0"/>
        <pt x="436" y="463" on="0"/>
        <pt x="302" y="464" on="0"/>
        <pt x="182" y="363" on="0"/>
        <pt x="169" y="292" on="1"/>
        <pt x="119" y="10" on="1"/>
        <pt x="119" y="8" on="0"/>
        <pt x="117" y="6" on="1"/>
        <pt x="117" y="5" on="1"/>
        <pt x="112" y="0" on="0"/>
      </contour>
    </TTGlyph>
    <TTGlyph name="multiply" xMin="100" yMin="142" xMax="520" yMax="562">
      <contour>
        <pt x="512" y="520" on="1"/>
        <pt x="343" y="353" on="1"/>
        <pt x="511" y="187" on="1"/>
        <pt x="520" y="178" on="0"/>
        <pt x="520" y="156" on="0"/>
        <pt x="506" y="142" on="0"/>
        <pt x="484" y="142" on="0"/>
        <pt x="475" y="151" on="1"/>
        <pt x="309" y="319" on="1"/>
        <pt x="142" y="150" on="1"/>
        <pt x="134" y="142" on="0"/>
        <pt x="114" y="142" on="0"/>
        <pt x="100" y="156" on="0"/>
        <pt x="100" y="176" on="0"/>
        <pt x="108" y="184" on="1"/>
        <pt x="277" y="351" on="1"/>
        <pt x="109" y="517" on="1"/>
        <pt x="100" y="526" on="0"/>
        <pt x="100" y="548" on="0"/>
        <pt x="114" y="562" on="0"/>
        <pt x="136" y="562" on="0"/>
        <pt x="145" y="553" on="1"/>
        <pt x="311" y="385" on="1"/>
        <pt x="478" y="554" on="1"/>
        <pt x="486" y="562" on="0"/>
        <pt x="506" y="562" on="0"/>
        <pt x="520" y="548" on="0"/>
        <pt x="520" y="528" on="0"/>
      </contour>
    </TTGlyph>
    <TTGlyph name="n" xMin="94" yMin="-2" xMax="541" yMax="489">
      <contour>
        <pt x="108" y="-2" on="1"/>
        <pt x="104" y="-2" on="1"/>
        <pt x="92" y="0" on="0"/>
        <pt x="94" y="13" on="1"/>
        <pt x="144" y="295" on="1"/>
        <pt x="144" y="296" on="1"/>
        <pt x="176" y="479" on="1"/>
        <pt x="178" y="491" on="0"/>
        <pt x="203" y="487" on="0"/>
        <pt x="201" y="474" on="1"/>
        <pt x="186" y="392" on="1"/>
        <pt x="220" y="436" on="0"/>
        <pt x="320" y="489" on="0"/>
        <pt x="445" y="489" on="0"/>
        <pt x="495" y="442" on="1"/>
        <pt x="541" y="396" on="0"/>
        <pt x="541" y="324" on="1"/>
        <pt x="541" y="309" on="0"/>
        <pt x="538" y="291" on="1"/>
        <pt x="490" y="8" on="1"/>
        <pt x="488" y="-2" on="0"/>
        <pt x="476" y="-2" on="1"/>
        <pt x="474" y="-2" on="1"/>
        <pt x="462" y="0" on="0"/>
        <pt x="464" y="13" on="1"/>
        <pt x="514" y="295" on="1"/>
        <pt x="517" y="310" on="0"/>
        <pt x="517" y="324" on="1"/>
        <pt x="517" y="385" on="0"/>
        <pt x="437" y="463" on="0"/>
        <pt x="302" y="464" on="0"/>
        <pt x="181" y="362" on="0"/>
        <pt x="168" y="291" on="1"/>
        <pt x="119" y="8" on="1"/>
        <pt x="119" y="3" on="0"/>
        <pt x="116" y="3" on="1"/>
        <pt x="116" y="1" on="0"/>
        <pt x="114" y="1" on="1"/>
        <pt x="111" y="-2" on="0"/>
      </contour>
    </TTGlyph>
    <TTGlyph name="nine" xMin="66" yMin="2" xMax="527" yMax="702">
      <contour>
        <pt x="86" y="571" on="0"/>
        <pt x="240" y="701" on="0"/>
        <pt x="418" y="702" on="0"/>
        <pt x="527" y="593" on="0"/>
        <pt x="527" y="512" on="1"/>
        <pt x="527" y="494" on="1"/>
        <pt x="513" y="319" on="0"/>
        <pt x="421" y="180" on="1"/>
        <pt x="310" y="9" on="0"/>
        <pt x="134" y="2" on="1"/>
        <pt x="133" y="2" on="1"/>
        <pt x="122" y="2" on="0"/>
        <pt x="120" y="14" on="1"/>
        <pt x="120" y="27" on="0"/>
        <pt x="133" y="27" on="1"/>
        <pt x="295" y="34" on="0"/>
        <pt x="400" y="194" on="1"/>
        <pt x="450" y="271" on="0"/>
        <pt x="477" y="364" on="1"/>
        <pt x="438" y="311" on="0"/>
        <pt x="323" y="249" on="0"/>
        <pt x="177" y="248" on="0"/>
        <pt x="66" y="357" on="0"/>
        <pt x="66" y="438" on="1"/>
        <pt x="66" y="460" on="0"/>
        <pt x="70" y="477" on="1"/>
      </contour>
      <contour>
        <pt x="92" y="367" on="0"/>
        <pt x="185" y="274" on="0"/>
        <pt x="343" y="273" on="0"/>
        <pt x="414" y="333" on="1"/>
        <pt x="502" y="408" on="0"/>
        <pt x="502" y="512" on="1"/>
        <pt x="502" y="583" on="0"/>
        <pt x="409" y="676" on="0"/>
        <pt x="251" y="677" on="0"/>
        <pt x="109" y="557" on="0"/>
        <pt x="95" y="473" on="1"/>
        <pt x="82" y="475" on="1"/>
        <pt x="95" y="473" on="1"/>
        <pt x="92" y="455" on="0"/>
        <pt x="92" y="438" on="1"/>
      </contour>
    </TTGlyph>
    <TTGlyph name="ntilde" xMin="94" yMin="-2" xMax="575" yMax="699">
      <component glyphName="n" x="0" y="0" flags="0x1004"/>
      <component glyphName="tilde" x="181" y="0" flags="0x1004"/>
    </TTGlyph>
    <TTGlyph name="o" xMin="70" yMin="0" xMax="540" yMax="490">
      <contour>
        <pt x="540" y="288" on="1"/>
        <pt x="540" y="263" on="0"/>
        <pt x="536" y="243" on="1"/>
        <pt x="524" y="245" on="1"/>
        <pt x="536" y="243" on="1"/>
        <pt x="518" y="142" on="0"/>
        <pt x="360" y="1" on="0"/>
        <pt x="179" y="0" on="0"/>
        <pt x="124" y="58" on="1"/>
        <pt x="70" y="117" on="0"/>
        <pt x="70" y="202" on="1"/>
        <pt x="70" y="227" on="0"/>
        <pt x="74" y="247" on="1"/>
        <pt x="92" y="348" on="0"/>
        <pt x="250" y="490" on="0"/>
        <pt x="431" y="490" on="0"/>
        <pt x="540" y="375" on="0"/>
      </contour>
      <contour>
        <pt x="511" y="247" on="1"/>
        <pt x="515" y="266" on="0"/>
        <pt x="515" y="288" on="1"/>
        <pt x="514" y="365" on="0"/>
        <pt x="420" y="465" on="0"/>
        <pt x="346" y="465" on="1"/>
        <pt x="345" y="465" on="1"/>
        <pt x="260" y="465" on="0"/>
        <pt x="115" y="334" on="0"/>
        <pt x="99" y="243" on="1"/>
        <pt x="95" y="224" on="0"/>
        <pt x="95" y="202" on="1"/>
        <pt x="95" y="125" on="0"/>
        <pt x="189" y="26" on="0"/>
        <pt x="349" y="25" on="0"/>
        <pt x="495" y="156" on="0"/>
      </contour>
    </TTGlyph>
    <TTGlyph name="oacute" xMin="58" yMin="0" xMax="528" yMax="723">
      <contour>
        <pt x="528" y="288" on="1"/>
        <pt x="528" y="263" on="0"/>
        <pt x="524" y="243" on="1"/>
        <pt x="512" y="245" on="1"/>
        <pt x="524" y="243" on="1"/>
        <pt x="506" y="142" on="0"/>
        <pt x="348" y="1" on="0"/>
        <pt x="167" y="0" on="0"/>
        <pt x="112" y="58" on="1"/>
        <pt x="58" y="117" on="0"/>
        <pt x="58" y="202" on="1"/>
        <pt x="58" y="227" on="0"/>
        <pt x="62" y="247" on="1"/>
        <pt x="80" y="348" on="0"/>
        <pt x="238" y="490" on="0"/>
        <pt x="419" y="490" on="0"/>
        <pt x="528" y="375" on="0"/>
      </contour>
      <contour>
        <pt x="499" y="247" on="1"/>
        <pt x="503" y="266" on="0"/>
        <pt x="503" y="288" on="1"/>
        <pt x="502" y="365" on="0"/>
        <pt x="408" y="465" on="0"/>
        <pt x="334" y="465" on="1"/>
        <pt x="333" y="465" on="1"/>
        <pt x="248" y="465" on="0"/>
        <pt x="103" y="334" on="0"/>
        <pt x="87" y="243" on="1"/>
        <pt x="83" y="224" on="0"/>
        <pt x="83" y="202" on="1"/>
        <pt x="83" y="125" on="0"/>
        <pt x="177" y="26" on="0"/>
        <pt x="337" y="25" on="0"/>
        <pt x="483" y="156" on="0"/>
      </contour>
      <contour>
        <pt x="378" y="613" on="1"/>
        <pt x="370" y="604" on="0"/>
        <pt x="347" y="594" on="0"/>
        <pt x="347" y="606" on="0"/>
        <pt x="351" y="612" on="1"/>
        <pt x="413" y="705" on="1"/>
        <pt x="425" y="723" on="0"/>
        <pt x="450" y="723" on="0"/>
        <pt x="459" y="717" on="0"/>
        <pt x="459" y="708" on="1"/>
        <pt x="462" y="703" on="0"/>
        <pt x="449" y="690" on="1"/>
      </contour>
    </TTGlyph>
    <TTGlyph name="ocircumflex" xMin="58" yMin="0" xMax="531" yMax="720">
      <contour>
        <pt x="528" y="288" on="1"/>
        <pt x="528" y="263" on="0"/>
        <pt x="524" y="243" on="1"/>
        <pt x="512" y="245" on="1"/>
        <pt x="524" y="243" on="1"/>
        <pt x="506" y="142" on="0"/>
        <pt x="348" y="1" on="0"/>
        <pt x="167" y="0" on="0"/>
        <pt x="112" y="58" on="1"/>
        <pt x="58" y="117" on="0"/>
        <pt x="58" y="202" on="1"/>
        <pt x="58" y="227" on="0"/>
        <pt x="62" y="247" on="1"/>
        <pt x="80" y="348" on="0"/>
        <pt x="238" y="490" on="0"/>
        <pt x="419" y="490" on="0"/>
        <pt x="528" y="375" on="0"/>
      </contour>
      <contour>
        <pt x="499" y="247" on="1"/>
        <pt x="503" y="266" on="0"/>
        <pt x="503" y="288" on="1"/>
        <pt x="502" y="365" on="0"/>
        <pt x="408" y="465" on="0"/>
        <pt x="334" y="465" on="1"/>
        <pt x="333" y="465" on="1"/>
        <pt x="248" y="465" on="0"/>
        <pt x="103" y="334" on="0"/>
        <pt x="87" y="243" on="1"/>
        <pt x="83" y="224" on="0"/>
        <pt x="83" y="202" on="1"/>
        <pt x="83" y="125" on="0"/>
        <pt x="177" y="26" on="0"/>
        <pt x="337" y="25" on="0"/>
        <pt x="483" y="156" on="0"/>
      </contour>
      <contour>
        <pt x="440" y="694" on="1"/>
        <pt x="355" y="618" on="1"/>
        <pt x="333" y="600" on="0"/>
        <pt x="326" y="600" on="1"/>
        <pt x="312" y="602" on="0"/>
        <pt x="312" y="602" on="1"/>
        <pt x="313" y="607" on="0"/>
        <pt x="320" y="614" on="1"/>
        <pt x="411" y="702" on="1"/>
        <pt x="431" y="720" on="0"/>
        <pt x="443" y="720" on="1"/>
        <pt x="451" y="720" on="1"/>
        <pt x="465" y="720" on="0"/>
        <pt x="475" y="702" on="1"/>
        <pt x="528" y="614" on="1"/>
        <pt x="532" y="608" on="0"/>
        <pt x="529" y="598" on="0"/>
        <pt x="520" y="600" on="0"/>
        <pt x="513" y="600" on="0"/>
        <pt x="505" y="605" on="0"/>
        <pt x="501" y="609" on="0"/>
        <pt x="495" y="618" on="0"/>
        <pt x="494" y="619" on="1"/>
      </contour>
    </TTGlyph>
    <TTGlyph name="odieresis" xMin="58" yMin="0" xMax="528" yMax="671">
      <contour>
        <pt x="528" y="288" on="1"/>
        <pt x="528" y="263" on="0"/>
        <pt x="524" y="243" on="1"/>
        <pt x="512" y="245" on="1"/>
        <pt x="524" y="243" on="1"/>
        <pt x="506" y="142" on="0"/>
        <pt x="348" y="1" on="0"/>
        <pt x="167" y="0" on="0"/>
        <pt x="112" y="58" on="1"/>
        <pt x="58" y="117" on="0"/>
        <pt x="58" y="202" on="1"/>
        <pt x="58" y="227" on="0"/>
        <pt x="62" y="247" on="1"/>
        <pt x="80" y="348" on="0"/>
        <pt x="238" y="490" on="0"/>
        <pt x="419" y="490" on="0"/>
        <pt x="528" y="375" on="0"/>
      </contour>
      <contour>
        <pt x="499" y="247" on="1"/>
        <pt x="503" y="266" on="0"/>
        <pt x="503" y="288" on="1"/>
        <pt x="502" y="365" on="0"/>
        <pt x="408" y="465" on="0"/>
        <pt x="334" y="465" on="1"/>
        <pt x="333" y="465" on="1"/>
        <pt x="248" y="465" on="0"/>
        <pt x="103" y="334" on="0"/>
        <pt x="87" y="243" on="1"/>
        <pt x="83" y="224" on="0"/>
        <pt x="83" y="202" on="1"/>
        <pt x="83" y="125" on="0"/>
        <pt x="177" y="26" on="0"/>
        <pt x="337" y="25" on="0"/>
        <pt x="483" y="156" on="0"/>
      </contour>
      <contour>
        <pt x="262" y="623" on="0"/>
        <pt x="266" y="651" on="0"/>
        <pt x="287" y="671" on="0"/>
        <pt x="315" y="671" on="0"/>
        <pt x="333" y="651" on="0"/>
        <pt x="329" y="622" on="0"/>
        <pt x="308" y="603" on="0"/>
        <pt x="280" y="603" on="0"/>
      </contour>
      <contour>
        <pt x="444" y="623" on="0"/>
        <pt x="448" y="651" on="0"/>
        <pt x="469" y="671" on="0"/>
        <pt x="497" y="671" on="0"/>
        <pt x="515" y="651" on="0"/>
        <pt x="512" y="623" on="0"/>
        <pt x="490" y="603" on="0"/>
        <pt x="462" y="603" on="0"/>
      </contour>
    </TTGlyph>
    <TTGlyph name="oe" xMin="58" yMin="0" xMax="981" yMax="491">
      <contour>
        <pt x="981" y="288" on="1"/>
        <pt x="981" y="265" on="0"/>
        <pt x="979" y="257" on="1"/>
        <pt x="975" y="248" on="0"/>
        <pt x="967" y="248" on="1"/>
        <pt x="530" y="248" on="1"/>
        <pt x="525" y="238" on="0"/>
        <pt x="525" y="203" on="1"/>
        <pt x="525" y="126" on="0"/>
        <pt x="623" y="26" on="0"/>
        <pt x="700" y="26" on="1"/>
        <pt x="755" y="26" on="0"/>
        <pt x="859" y="80" on="0"/>
        <pt x="896" y="126" on="1"/>
        <pt x="903" y="135" on="0"/>
        <pt x="914" y="128" on="1"/>
        <pt x="923" y="119" on="0"/>
        <pt x="916" y="110" on="1"/>
        <pt x="827" y="2" on="0"/>
        <pt x="700" y="0" on="1"/>
        <pt x="612" y="0" on="0"/>
        <pt x="556" y="59" on="1"/>
        <pt x="510" y="104" on="0"/>
        <pt x="502" y="173" on="1"/>
        <pt x="467" y="97" on="0"/>
        <pt x="330" y="1" on="0"/>
        <pt x="167" y="0" on="0"/>
        <pt x="112" y="58" on="1"/>
        <pt x="58" y="117" on="0"/>
        <pt x="58" y="202" on="1"/>
        <pt x="58" y="227" on="0"/>
        <pt x="62" y="247" on="1"/>
        <pt x="80" y="348" on="0"/>
        <pt x="238" y="490" on="0"/>
        <pt x="419" y="490" on="0"/>
        <pt x="474" y="432" on="1"/>
        <pt x="517" y="386" on="0"/>
        <pt x="526" y="317" on="1"/>
        <pt x="561" y="393" on="0"/>
        <pt x="702" y="490" on="0"/>
        <pt x="869" y="491" on="0"/>
        <pt x="925" y="432" on="1"/>
        <pt x="981" y="376" on="0"/>
      </contour>
      <contour>
        <pt x="499" y="247" on="1"/>
        <pt x="503" y="266" on="0"/>
        <pt x="503" y="288" on="1"/>
        <pt x="502" y="365" on="0"/>
        <pt x="408" y="465" on="0"/>
        <pt x="334" y="465" on="1"/>
        <pt x="333" y="465" on="1"/>
        <pt x="248" y="465" on="0"/>
        <pt x="103" y="334" on="0"/>
        <pt x="87" y="243" on="1"/>
        <pt x="83" y="224" on="0"/>
        <pt x="83" y="202" on="1"/>
        <pt x="83" y="125" on="0"/>
        <pt x="177" y="26" on="0"/>
        <pt x="337" y="25" on="0"/>
        <pt x="483" y="156" on="0"/>
      </contour>
      <contour>
        <pt x="956" y="365" on="0"/>
        <pt x="859" y="465" on="0"/>
        <pt x="702" y="466" on="0"/>
        <pt x="561" y="355" on="0"/>
        <pt x="536" y="273" on="1"/>
        <pt x="955" y="273" on="1"/>
        <pt x="956" y="278" on="0"/>
        <pt x="956" y="288" on="1"/>
      </contour>
    </TTGlyph>
    <TTGlyph name="ograve" xMin="58" yMin="0" xMax="528" yMax="723">
      <contour>
        <pt x="528" y="288" on="1"/>
        <pt x="528" y="263" on="0"/>
        <pt x="524" y="243" on="1"/>
        <pt x="512" y="245" on="1"/>
        <pt x="524" y="243" on="1"/>
        <pt x="506" y="142" on="0"/>
        <pt x="348" y="1" on="0"/>
        <pt x="167" y="0" on="0"/>
        <pt x="112" y="58" on="1"/>
        <pt x="58" y="117" on="0"/>
        <pt x="58" y="202" on="1"/>
        <pt x="58" y="227" on="0"/>
        <pt x="62" y="247" on="1"/>
        <pt x="80" y="348" on="0"/>
        <pt x="238" y="490" on="0"/>
        <pt x="419" y="490" on="0"/>
        <pt x="528" y="375" on="0"/>
      </contour>
      <contour>
        <pt x="499" y="247" on="1"/>
        <pt x="503" y="266" on="0"/>
        <pt x="503" y="288" on="1"/>
        <pt x="502" y="365" on="0"/>
        <pt x="408" y="465" on="0"/>
        <pt x="334" y="465" on="1"/>
        <pt x="333" y="465" on="1"/>
        <pt x="248" y="465" on="0"/>
        <pt x="103" y="334" on="0"/>
        <pt x="87" y="243" on="1"/>
        <pt x="83" y="224" on="0"/>
        <pt x="83" y="202" on="1"/>
        <pt x="83" y="125" on="0"/>
        <pt x="177" y="26" on="0"/>
        <pt x="337" y="25" on="0"/>
        <pt x="483" y="156" on="0"/>
      </contour>
      <contour>
        <pt x="457" y="612" on="1"/>
        <pt x="461" y="606" on="0"/>
        <pt x="461" y="594" on="0"/>
        <pt x="438" y="604" on="0"/>
        <pt x="430" y="613" on="1"/>
        <pt x="359" y="690" on="1"/>
        <pt x="346" y="703" on="0"/>
        <pt x="349" y="708" on="1"/>
        <pt x="349" y="723" on="0"/>
        <pt x="383" y="723" on="0"/>
        <pt x="395" y="705" on="1"/>
      </contour>
    </TTGlyph>
    <TTGlyph name="one" xMin="32" yMin="1" xMax="213" yMax="701">
      <contour>
        <pt x="203" y="700" on="1"/>
        <pt x="206" y="700" on="0"/>
        <pt x="211" y="695" on="1"/>
        <pt x="211" y="694" on="1"/>
        <pt x="212" y="693" on="1"/>
        <pt x="212" y="691" on="0"/>
        <pt x="213" y="690" on="1"/>
        <pt x="213" y="686" on="1"/>
        <pt x="94" y="11" on="1"/>
        <pt x="92" y="1" on="0"/>
        <pt x="81" y="1" on="1"/>
        <pt x="79" y="1" on="1"/>
        <pt x="74" y="2" on="0"/>
        <pt x="68" y="11" on="0"/>
        <pt x="69" y="16" on="1"/>
        <pt x="183" y="665" on="1"/>
        <pt x="50" y="593" on="1"/>
        <pt x="48" y="592" on="0"/>
        <pt x="36" y="592" on="0"/>
        <pt x="28" y="609" on="0"/>
        <pt x="38" y="616" on="1"/>
        <pt x="194" y="699" on="1"/>
        <pt x="195" y="700" on="0"/>
        <pt x="197" y="700" on="0"/>
        <pt x="198" y="701" on="1"/>
        <pt x="202" y="701" on="1"/>
      </contour>
    </TTGlyph>
    <TTGlyph name="otilde" xMin="58" yMin="0" xMax="553" yMax="699">
      <contour>
        <pt x="528" y="288" on="1"/>
        <pt x="528" y="263" on="0"/>
        <pt x="524" y="243" on="1"/>
        <pt x="512" y="245" on="1"/>
        <pt x="524" y="243" on="1"/>
        <pt x="506" y="142" on="0"/>
        <pt x="348" y="1" on="0"/>
        <pt x="167" y="0" on="0"/>
        <pt x="112" y="58" on="1"/>
        <pt x="58" y="117" on="0"/>
        <pt x="58" y="202" on="1"/>
        <pt x="58" y="227" on="0"/>
        <pt x="62" y="247" on="1"/>
        <pt x="80" y="348" on="0"/>
        <pt x="238" y="490" on="0"/>
        <pt x="419" y="490" on="0"/>
        <pt x="528" y="375" on="0"/>
      </contour>
      <contour>
        <pt x="499" y="247" on="1"/>
        <pt x="503" y="266" on="0"/>
        <pt x="503" y="288" on="1"/>
        <pt x="502" y="365" on="0"/>
        <pt x="408" y="465" on="0"/>
        <pt x="334" y="465" on="1"/>
        <pt x="333" y="465" on="1"/>
        <pt x="248" y="465" on="0"/>
        <pt x="103" y="334" on="0"/>
        <pt x="87" y="243" on="1"/>
        <pt x="83" y="224" on="0"/>
        <pt x="83" y="202" on="1"/>
        <pt x="83" y="125" on="0"/>
        <pt x="177" y="26" on="0"/>
        <pt x="337" y="25" on="0"/>
        <pt x="483" y="156" on="0"/>
      </contour>
      <contour>
        <pt x="296" y="602" on="1"/>
        <pt x="290" y="590" on="0"/>
        <pt x="280" y="590" on="1"/>
        <pt x="264" y="590" on="0"/>
        <pt x="264" y="603" on="1"/>
        <pt x="264" y="605" on="0"/>
        <pt x="275" y="640" on="0"/>
        <pt x="323" y="677" on="0"/>
        <pt x="364" y="677" on="0"/>
        <pt x="456" y="639" on="0"/>
        <pt x="472" y="639" on="1"/>
        <pt x="503" y="639" on="0"/>
        <pt x="522" y="682" on="1"/>
        <pt x="522" y="690" on="0"/>
        <pt x="531" y="699" on="0"/>
        <pt x="535" y="699" on="1"/>
        <pt x="553" y="699" on="0"/>
        <pt x="553" y="682" on="1"/>
        <pt x="553" y="676" on="0"/>
        <pt x="551" y="670" on="1"/>
        <pt x="529" y="602" on="0"/>
        <pt x="472" y="602" on="1"/>
        <pt x="454" y="602" on="0"/>
        <pt x="362" y="641" on="0"/>
        <pt x="344" y="641" on="1"/>
        <pt x="313" y="641" on="0"/>
      </contour>
    </TTGlyph>
    <TTGlyph name="p" xMin="94" yMin="-215" xMax="646" yMax="489">
      <contour>
        <pt x="215" y="491" on="0"/>
        <pt x="241" y="487" on="0"/>
        <pt x="239" y="474" on="1"/>
        <pt x="218" y="359" on="1"/>
        <pt x="258" y="418" on="0"/>
        <pt x="381" y="489" on="0"/>
        <pt x="448" y="489" on="1"/>
        <pt x="535" y="489" on="0"/>
        <pt x="646" y="373" on="0"/>
        <pt x="646" y="289" on="1"/>
        <pt x="646" y="275" on="0"/>
        <pt x="642" y="245" on="1"/>
        <pt x="624" y="145" on="0"/>
        <pt x="463" y="5" on="0"/>
        <pt x="281" y="4" on="0"/>
        <pt x="224" y="63" on="1"/>
        <pt x="193" y="94" on="0"/>
        <pt x="179" y="139" on="1"/>
        <pt x="119" y="-204" on="1"/>
        <pt x="117" y="-215" on="0"/>
        <pt x="106" y="-215" on="1"/>
        <pt x="105" y="-215" on="0"/>
        <pt x="104" y="-214" on="1"/>
        <pt x="92" y="-212" on="0"/>
        <pt x="94" y="-200" on="1"/>
        <pt x="173" y="249" on="1"/>
        <pt x="173" y="250" on="1"/>
        <pt x="213" y="479" on="1"/>
      </contour>
      <contour>
        <pt x="447" y="463" on="1"/>
        <pt x="360" y="463" on="0"/>
        <pt x="213" y="335" on="0"/>
        <pt x="198" y="245" on="1"/>
        <pt x="194" y="228" on="0"/>
        <pt x="194" y="206" on="1"/>
        <pt x="195" y="130" on="0"/>
        <pt x="291" y="30" on="0"/>
        <pt x="453" y="29" on="0"/>
        <pt x="527" y="94" on="1"/>
        <pt x="620" y="175" on="0"/>
        <pt x="620" y="289" on="1"/>
        <pt x="620" y="365" on="0"/>
        <pt x="524" y="463" on="0"/>
        <pt x="448" y="463" on="1"/>
      </contour>
    </TTGlyph>
    <TTGlyph name="parenleft" xMin="71" yMin="2" xMax="344" yMax="702">
      <contour>
        <pt x="96" y="216" on="1"/>
        <pt x="96" y="28" on="0"/>
        <pt x="213" y="28" on="1"/>
        <pt x="226" y="28" on="0"/>
        <pt x="226" y="2" on="0"/>
        <pt x="213" y="2" on="1"/>
        <pt x="212" y="2" on="1"/>
        <pt x="139" y="2" on="0"/>
        <pt x="103" y="65" on="1"/>
        <pt x="71" y="118" on="0"/>
        <pt x="71" y="283" on="0"/>
        <pt x="84" y="355" on="1"/>
        <pt x="112" y="508" on="0"/>
        <pt x="169" y="598" on="1"/>
        <pt x="235" y="702" on="0"/>
        <pt x="332" y="702" on="1"/>
        <pt x="344" y="702" on="0"/>
        <pt x="344" y="677" on="0"/>
        <pt x="332" y="677" on="1"/>
        <pt x="250" y="677" on="0"/>
        <pt x="134" y="495" on="0"/>
        <pt x="109" y="350" on="1"/>
        <pt x="96" y="272" on="0"/>
      </contour>
    </TTGlyph>
    <TTGlyph name="parenright" xMin="60" yMin="2" xMax="334" yMax="702">
      <contour>
        <pt x="302" y="640" on="1"/>
        <pt x="334" y="587" on="0"/>
        <pt x="334" y="489" on="1"/>
        <pt x="334" y="426" on="0"/>
        <pt x="320" y="350" on="1"/>
        <pt x="294" y="199" on="0"/>
        <pt x="236" y="107" on="1"/>
        <pt x="168" y="2" on="0"/>
        <pt x="73" y="2" on="1"/>
        <pt x="60" y="2" on="0"/>
        <pt x="60" y="28" on="0"/>
        <pt x="73" y="28" on="1"/>
        <pt x="154" y="28" on="0"/>
        <pt x="269" y="207" on="0"/>
        <pt x="295" y="355" on="1"/>
        <pt x="309" y="430" on="0"/>
        <pt x="309" y="578" on="0"/>
        <pt x="250" y="677" on="0"/>
        <pt x="192" y="677" on="1"/>
        <pt x="179" y="677" on="0"/>
        <pt x="179" y="702" on="0"/>
        <pt x="192" y="702" on="1"/>
        <pt x="266" y="703" on="0"/>
      </contour>
    </TTGlyph>
    <TTGlyph name="period" xMin="82" yMin="3" xMax="132" yMax="53">
      <contour>
        <pt x="132" y="38" on="0"/>
        <pt x="132" y="18" on="0"/>
        <pt x="118" y="3" on="0"/>
        <pt x="98" y="3" on="0"/>
        <pt x="82" y="18" on="0"/>
        <pt x="82" y="38" on="0"/>
        <pt x="97" y="53" on="0"/>
        <pt x="118" y="53" on="0"/>
      </contour>
    </TTGlyph>
    <TTGlyph name="plus" xMin="66" yMin="98" xMax="559" yMax="591">
      <contour>
        <pt x="250" y="116" on="1"/>
        <pt x="291" y="327" on="1"/>
        <pt x="80" y="327" on="1"/>
        <pt x="62" y="327" on="0"/>
        <pt x="66" y="345" on="1"/>
        <pt x="69" y="362" on="0"/>
        <pt x="87" y="362" on="1"/>
        <pt x="298" y="362" on="1"/>
        <pt x="339" y="574" on="1"/>
        <pt x="342" y="591" on="0"/>
        <pt x="361" y="591" on="1"/>
        <pt x="367" y="591" on="0"/>
        <pt x="375" y="581" on="0"/>
        <pt x="374" y="574" on="1"/>
        <pt x="333" y="362" on="1"/>
        <pt x="545" y="362" on="1"/>
        <pt x="551" y="362" on="0"/>
        <pt x="560" y="352" on="0"/>
        <pt x="558" y="338" on="0"/>
        <pt x="544" y="327" on="0"/>
        <pt x="538" y="327" on="1"/>
        <pt x="326" y="327" on="1"/>
        <pt x="285" y="116" on="1"/>
        <pt x="281" y="98" on="0"/>
        <pt x="265" y="98" on="1"/>
        <pt x="257" y="98" on="0"/>
        <pt x="248" y="108" on="0"/>
      </contour>
    </TTGlyph>
    <TTGlyph name="q" xMin="60" yMin="-216" xMax="573" yMax="488">
      <contour>
        <pt x="438" y="-215" on="1"/>
        <pt x="426" y="-213" on="0"/>
        <pt x="428" y="-201" on="1"/>
        <pt x="486" y="134" on="1"/>
        <pt x="447" y="75" on="0"/>
        <pt x="325" y="3" on="0"/>
        <pt x="257" y="3" on="1"/>
        <pt x="171" y="3" on="0"/>
        <pt x="60" y="119" on="0"/>
        <pt x="60" y="204" on="1"/>
        <pt x="60" y="330" on="0"/>
        <pt x="162" y="418" on="1"/>
        <pt x="242" y="488" on="0"/>
        <pt x="426" y="488" on="0"/>
        <pt x="480" y="431" on="1"/>
        <pt x="511" y="401" on="0"/>
        <pt x="526" y="354" on="1"/>
        <pt x="548" y="478" on="1"/>
        <pt x="550" y="490" on="0"/>
        <pt x="575" y="486" on="0"/>
        <pt x="573" y="474" on="1"/>
        <pt x="533" y="244" on="1"/>
        <pt x="532" y="244" on="1"/>
        <pt x="453" y="-205" on="1"/>
        <pt x="451" y="-216" on="0"/>
        <pt x="440" y="-216" on="1"/>
        <pt x="439" y="-216" on="0"/>
      </contour>
      <contour>
        <pt x="85" y="129" on="0"/>
        <pt x="182" y="29" on="0"/>
        <pt x="344" y="28" on="0"/>
        <pt x="418" y="92" on="1"/>
        <pt x="511" y="175" on="0"/>
        <pt x="511" y="288" on="1"/>
        <pt x="511" y="364" on="0"/>
        <pt x="414" y="463" on="0"/>
        <pt x="252" y="464" on="0"/>
        <pt x="104" y="334" on="0"/>
        <pt x="88" y="244" on="1"/>
        <pt x="76" y="246" on="1"/>
        <pt x="88" y="244" on="1"/>
        <pt x="85" y="224" on="0"/>
        <pt x="85" y="204" on="1"/>
      </contour>
    </TTGlyph>
    <TTGlyph name="question" xMin="41" yMin="0" xMax="419" yMax="700">
      <contour>
        <pt x="127" y="46" on="1"/>
        <pt x="139" y="44" on="0"/>
        <pt x="137" y="33" on="1"/>
        <pt x="133" y="10" on="1"/>
        <pt x="131" y="0" on="0"/>
        <pt x="121" y="0" on="1"/>
        <pt x="119" y="0" on="1"/>
        <pt x="107" y="2" on="0"/>
        <pt x="109" y="14" on="1"/>
        <pt x="113" y="37" on="1"/>
        <pt x="114" y="42" on="0"/>
        <pt x="123" y="47" on="0"/>
      </contour>
      <contour>
        <pt x="240" y="700" on="1"/>
        <pt x="318" y="700" on="0"/>
        <pt x="419" y="599" on="0"/>
        <pt x="419" y="523" on="1"/>
        <pt x="419" y="418" on="0"/>
        <pt x="333" y="342" on="1"/>
        <pt x="265" y="282" on="0"/>
        <pt x="180" y="278" on="1"/>
        <pt x="158" y="154" on="1"/>
        <pt x="156" y="144" on="0"/>
        <pt x="146" y="144" on="1"/>
        <pt x="144" y="144" on="1"/>
        <pt x="132" y="146" on="0"/>
        <pt x="135" y="158" on="1"/>
        <pt x="157" y="287" on="1"/>
        <pt x="158" y="288" on="0"/>
        <pt x="158" y="289" on="1"/>
        <pt x="158" y="301" on="0"/>
        <pt x="170" y="301" on="1"/>
        <pt x="248" y="301" on="0"/>
        <pt x="378" y="413" on="0"/>
        <pt x="392" y="491" on="1"/>
        <pt x="395" y="507" on="0"/>
        <pt x="395" y="523" on="1"/>
        <pt x="395" y="589" on="0"/>
        <pt x="309" y="675" on="0"/>
        <pt x="189" y="676" on="0"/>
        <pt x="93" y="624" on="0"/>
        <pt x="60" y="581" on="1"/>
        <pt x="52" y="571" on="0"/>
        <pt x="34" y="586" on="0"/>
        <pt x="41" y="596" on="1"/>
        <pt x="77" y="644" on="0"/>
        <pt x="183" y="700" on="0"/>
      </contour>
    </TTGlyph>
    <TTGlyph name="questiondown" xMin="52" yMin="0" xMax="430" yMax="700">
      <contour>
        <pt x="344" y="654" on="1"/>
        <pt x="332" y="656" on="0"/>
        <pt x="334" y="667" on="1"/>
        <pt x="338" y="690" on="1"/>
        <pt x="340" y="700" on="0"/>
        <pt x="350" y="700" on="1"/>
        <pt x="352" y="700" on="1"/>
        <pt x="364" y="698" on="0"/>
        <pt x="362" y="686" on="1"/>
        <pt x="358" y="663" on="1"/>
        <pt x="357" y="658" on="0"/>
        <pt x="348" y="653" on="0"/>
      </contour>
      <contour>
        <pt x="231" y="0" on="1"/>
        <pt x="153" y="0" on="0"/>
        <pt x="52" y="101" on="0"/>
        <pt x="52" y="177" on="1"/>
        <pt x="52" y="282" on="0"/>
        <pt x="138" y="358" on="1"/>
        <pt x="206" y="418" on="0"/>
        <pt x="291" y="422" on="1"/>
        <pt x="313" y="546" on="1"/>
        <pt x="315" y="556" on="0"/>
        <pt x="325" y="556" on="1"/>
        <pt x="327" y="556" on="1"/>
        <pt x="339" y="554" on="0"/>
        <pt x="336" y="542" on="1"/>
        <pt x="314" y="413" on="1"/>
        <pt x="313" y="412" on="0"/>
        <pt x="313" y="411" on="1"/>
        <pt x="313" y="399" on="0"/>
        <pt x="301" y="399" on="1"/>
        <pt x="223" y="399" on="0"/>
        <pt x="93" y="287" on="0"/>
        <pt x="79" y="209" on="1"/>
        <pt x="76" y="192" on="0"/>
        <pt x="76" y="177" on="1"/>
        <pt x="76" y="111" on="0"/>
        <pt x="162" y="25" on="0"/>
        <pt x="282" y="24" on="0"/>
        <pt x="378" y="76" on="0"/>
        <pt x="411" y="119" on="1"/>
        <pt x="419" y="129" on="0"/>
        <pt x="437" y="114" on="0"/>
        <pt x="430" y="104" on="1"/>
        <pt x="394" y="56" on="0"/>
        <pt x="288" y="0" on="0"/>
      </contour>
    </TTGlyph>
    <TTGlyph name="quotedbl" xMin="68" yMin="614" xMax="192" yMax="699">
      <contour>
        <pt x="68" y="634" on="1"/>
        <pt x="68" y="644" on="1"/>
        <pt x="68" y="689" on="0"/>
        <pt x="106" y="699" on="1"/>
        <pt x="109" y="699" on="1"/>
        <pt x="115" y="699" on="0"/>
        <pt x="115" y="693" on="1"/>
        <pt x="118" y="688" on="0"/>
        <pt x="110" y="684" on="1"/>
        <pt x="93" y="679" on="0"/>
        <pt x="86" y="663" on="1"/>
        <pt x="88" y="664" on="0"/>
        <pt x="103" y="664" on="0"/>
        <pt x="118" y="650" on="0"/>
        <pt x="118" y="630" on="0"/>
        <pt x="102" y="614" on="0"/>
        <pt x="74" y="614" on="0"/>
        <pt x="69" y="632" on="1"/>
        <pt x="68" y="632" on="0"/>
      </contour>
      <contour>
        <pt x="142" y="634" on="1"/>
        <pt x="142" y="644" on="1"/>
        <pt x="142" y="689" on="0"/>
        <pt x="180" y="699" on="1"/>
        <pt x="183" y="699" on="1"/>
        <pt x="189" y="699" on="0"/>
        <pt x="189" y="693" on="1"/>
        <pt x="192" y="688" on="0"/>
        <pt x="184" y="684" on="1"/>
        <pt x="167" y="679" on="0"/>
        <pt x="160" y="663" on="1"/>
        <pt x="162" y="664" on="0"/>
        <pt x="177" y="664" on="0"/>
        <pt x="192" y="650" on="0"/>
        <pt x="192" y="630" on="0"/>
        <pt x="176" y="614" on="0"/>
        <pt x="148" y="614" on="0"/>
        <pt x="143" y="632" on="1"/>
        <pt x="142" y="632" on="0"/>
      </contour>
    </TTGlyph>
</ttFont>
